<?xml version="1.0" standalone="no"?>
<!DOCTYPE svg PUBLIC "-//W3C//DTD SVG 1.1//EN" "http://www.w3.org/Graphics/SVG/1.1/DTD/svg11.dtd" >
<svg>
<metadata>
Created by FontForge 20090914 at Wed Dec  9 17:37:07 2020
 By www-data
</metadata>
<defs>
<font id="mr_PotraLightG-Light" horiz-adv-x="664" >
  <font-face 
    font-family="mr_PotraLightG"
    font-weight="300"
    font-stretch="normal"
    units-per-em="1000"
    panose-1="0 0 0 0 0 0 0 0 0 0"
    ascent="800"
    descent="-200"
    x-height="689.998"
    cap-height="697.999"
    bbox="-447.568 -237 923.042 884"
    underline-thickness="50"
    underline-position="-25"
    unicode-range="U+001D-U+2260"
  />
<missing-glyph horiz-adv-x="290" 
 />
    <glyph glyph-name=".notdef" horiz-adv-x="290" 
 />
    <glyph glyph-name=".null" horiz-adv-x="0" 
 />
    <glyph glyph-name=".null" horiz-adv-x="0" 
 />
    <glyph glyph-name="space" unicode=" " horiz-adv-x="210" 
 />
    <glyph glyph-name="exclam" unicode="!" horiz-adv-x="295" 
d="M117 624v-163h75c10.667 0 16 -5.33301 16 -16v-245c0 -10.667 -5.33301 -16 -16 -16c-4.66699 0 -8.66699 1.5 -12 4.5s-5 6.83301 -5 11.5v228h-74c-4.66699 0 -8.66699 1.66699 -12 5s-5 7.33301 -5 12v179c0 4.66699 1.66699 8.66699 5 12s7.33301 5 12 5
s8.5 -1.66699 11.5 -5s4.5 -7.33301 4.5 -12zM102 184c-4.66699 0 -8.66699 1.5 -12 4.5s-5 6.83301 -5 11.5v154c0 4.66699 1.66699 8.66699 5 12s7.33301 5 12 5s8.5 -1.66699 11.5 -5s4.5 -7.33301 4.5 -12v-154c0 -10.667 -5.33301 -16 -16 -16zM192 700
c10.667 0 16 -5.33301 16 -16v-150c0 -4.66699 -1.5 -8.66699 -4.5 -12s-6.83301 -5 -11.5 -5s-8.66699 1.66699 -12 5s-5 7.33301 -5 12v150c0 4.66699 1.66699 8.5 5 11.5s7.33301 4.5 12 4.5zM85 17v93c0 5.33301 1.66699 9.5 5 12.5s7.33301 4.5 12 4.5h94
c10.667 0 16 -5.66699 16 -17v-93c0 -11.333 -5.33301 -17 -16 -17h-94c-4.66699 0 -8.66699 1.5 -12 4.5s-5 7.16699 -5 12.5zM118 94v-61h61v61h-61zM107 697c4.66699 -1.33301 8.00098 -4.16602 10.001 -8.49902s2.33301 -8.83301 1 -13.5v-1c-3.33301 -8 -9 -12 -17 -12
c-7.33301 2 -12.333 5.16699 -15 9.5s-3.33398 9.16602 -2.00098 14.499c2 8 7.66699 12 17 12c2.66699 0 4.66699 -0.333008 6 -1z" />
    <glyph glyph-name="quotedbl" unicode="&#x22;" horiz-adv-x="459" 
d="M365 671c5.33301 0 9.33301 -2 12 -6c4 -2.66699 5.33301 -7 4 -13l-19 -157c-0.666992 -4 -2.5 -7.5 -5.5 -10.5s-6.5 -4.5 -10.5 -4.5h-61c-10 0 -15.667 5.33301 -17 16l-11 157c0 5.33301 1.66699 9.33301 5 12c3.33301 4 7.33301 6 12 6h91zM331 513l15 125h-55
l9 -125h31zM186 671c5.33301 0 9.33301 -2.00098 12 -6.00098c4 -3.33301 5.33301 -7.66602 4 -12.999l-19 -157c-0.666992 -4 -2.5 -7.5 -5.5 -10.5s-6.83301 -4.5 -11.5 -4.5h-60c-10 0 -15.667 5.33301 -17 16l-11 157c0 5.33301 1.33301 9.33301 4 12
c3.33301 4 7.33301 6 12 6h92zM152 512.999l15 125h-55l9 -125h31z" />
    <glyph glyph-name="numbersign" unicode="#" horiz-adv-x="685" 
d="M619 521c10.667 0 15.9961 -5.33301 15.9961 -16v-94c0 -10.667 -5.33301 -16 -16 -16h-86l-20 -127h53c10.667 0 16 -5.33301 16 -16v-94c0 -4.66699 -1.5 -8.66699 -4.5 -12s-6.83301 -5 -11.5 -5h-73l-14 -88c-1.33301 -9.33301 -6.66602 -14 -15.999 -14h-94
c-4.66699 0 -8.66699 2 -12 6s-4.66602 8.33301 -3.99902 13l13 83h-93l-14 -88c-1.33301 -9.33301 -6.66602 -14 -15.999 -14h-94c-5.33301 0 -9.66602 2 -12.999 6c-2.66699 2.66699 -4 7 -4 13l13 83h-79c-4.66699 0 -8.5 1.66699 -11.5 5s-4.5 7.33301 -4.5 12v94
c0 10.667 5.33301 16 16 16h99l20 127h-66c-10.667 0 -16 5.33301 -16 16v94c0 10.667 5.33301 16 16 16h86l16 103c1.33301 9.33301 6.66602 14 15.999 14h94c5.33301 0 9.33301 -2 12 -6c4 -2.66699 5.33301 -7 4 -13l-15 -98h93l16 103
c2.66699 9.33301 8.33398 14 17.001 14h93c6 0 10.333 -2 13 -6c2.66699 -2.66699 4 -7 4 -13l-15 -98h66zM601.996 428l-0.00195312 59.998h-69c-4 0 -8 2 -12 6c-3.33301 4.66699 -4.66602 9.33398 -3.99902 14.001l15 97h-60l-16 -103c-2 -9.33301 -7.66699 -14 -17 -14
h-126c-4.66699 0 -9 2 -13 6c-2.66699 3.33301 -4 8 -4 14l16 97h-61l-16 -103c-1.33301 -9.33301 -6.66602 -14 -15.999 -14h-83v-60h68c6 0 10.333 -2 13 -6c3.33301 -4 4.33301 -8.33301 3 -13l-24 -160c-2 -9.33301 -7.66699 -14 -17 -14h-96v-61h82
c5.33301 0 9.33301 -2 12 -6c4 -3.33301 5.33301 -7.66602 4 -12.999l-13 -83h60l14 88c1.33301 9.33301 6.66602 14 15.999 14h127c6 0 10.333 -2 13 -6c2.66699 -2.66699 4 -7 4 -13l-13 -83h60l14 88c1.33301 9.33301 6.66602 14 15.999 14h70v61h-55
c-5.33301 0 -9.66602 2 -12.999 6c-2.66699 2.66699 -4 7 -4 13l25 160c2.66699 9.33301 8.33398 14 17.001 14h83zM424.994 427.998c5.33301 0 9.33398 -2 12.001 -6c3.33301 -4.66699 4.66602 -9 3.99902 -13l-25 -160c-1.33301 -9.33301 -6.66602 -14 -15.999 -14h-127
c-4.66699 0 -8.66699 2 -12 6c-4 2.66699 -5.33301 7 -4 13l25 160c1.33301 9.33301 6.66602 14 15.999 14h127zM385.995 267.998l19 127h-93l-20 -127h94z" />
    <glyph glyph-name="dollar" unicode="$" horiz-adv-x="673" 
d="M159 371c-35.333 32 -51.9951 70.3301 -49.9951 114.997c0 1.33301 0.166992 4.5 0.5 9.5s1.66602 11 3.99902 18s5.66602 14.5 9.99902 22.5s10.5 16 18.5 24c10.667 10.667 22.667 19.167 36 25.5s27.166 11 41.499 14s28.833 4.83301 43.5 5.5s29.334 1 44.001 1
c25.333 -2 51.333 -7 78 -15s48.667 -22 66 -42c22.667 -24 33 -54.333 31 -91c0 -4.66699 -1.66699 -8.5 -5 -11.5s-7 -4.5 -11 -4.5c-5.33301 0 -9.5 1.66699 -12.5 5s-4.5 7.33301 -4.5 12c0.666992 28 -6.66602 50.667 -21.999 68c-16.667 18.667 -38.167 31 -64.5 37
s-51.5 9 -75.5 9c-13.333 0 -28.333 -1.33301 -45 -4s-32.5 -7.16699 -47.5 -13.5s-27.5 -15.166 -37.5 -26.499s-15 -25.666 -15 -42.999c-0.666992 -18 2.16602 -34.167 8.49902 -48.5s15.666 -27.333 27.999 -39s27.333 -22.167 45 -31.5s37.5 -18.666 59.5 -27.999
l15 -7l71.5 -31.5c21.667 -9.66699 40.167 -19.5 55.5 -29.5c18 -12 30.333 -24.333 37 -37c9.33301 -16 11.666 -32 6.99902 -48c-0.666992 -4 -2.5 -7.16699 -5.5 -9.5s-6.16699 -3.5 -9.5 -3.5c-14 3.33301 -19.333 10.333 -16 21c2.66699 11.333 0.5 20.833 -6.5 28.5
s-15.167 14.5 -24.5 20.5c-14 9.33301 -31.5 18.833 -52.5 28.5l-69.5 30.5l-15 6c-18.667 8 -37.834 17 -57.501 27s-37.5 22 -53.5 36zM570.005 197.997c-0.666992 -1.33301 -2.83496 -8.50098 -6.50195 -21.501s-12.834 -27.167 -27.501 -42.5
c-22.667 -22.667 -49 -37 -79 -43s-60.333 -9 -91 -9c-26 2 -52.167 7 -78.5 15s-48.5 22 -66.5 42c-22 24 -32 54.667 -30 92c0 4.66699 1.66699 8.5 5 11.5s7.33301 4.16699 12 3.5c4.66699 0 8.5 -1.66699 11.5 -5s4.5 -7.33301 4.5 -12c-2 -28 5.33301 -50.667 22 -68
c16.667 -18 38 -30.167 64 -36.5s50.667 -9.5 74 -9.5c15.333 0 31 1.33301 47 4s31.167 7.33398 45.5 14.001s27 15.5 38 26.5s18.5 24.833 22.5 41.5c0.666992 15.333 0 27.5 -2 36.5s-7 18.167 -15 27.5c-10 10.667 -25.833 22.167 -47.5 34.5
s-51.834 26.833 -90.501 43.5c-29.333 12 -55 23.333 -77 34s-41 21.667 -57 33c-40 28 -56.333 58 -49 90c0.666992 5.33301 2.83398 8.83301 6.50098 10.5s7.83398 2.5 12.501 2.5c4.66699 -1.33301 8.33398 -3.83301 11.001 -7.5s3.33398 -7.83398 2.00098 -12.501
c-2 -10.667 1 -21.167 9 -31.5s19.667 -20.333 35 -30s33.5 -19.334 54.5 -29.001l65.5 -29.5c42 -17.333 74.5 -32.666 97.5 -45.999s40.5 -26.666 52.5 -39.999c13.333 -14 21 -28.167 23 -42.5s2.66699 -29.833 2 -46.5zM560.004 535.996
c8 -24 11.332 -50.334 9.99902 -79.001c0 -4 -1.66699 -7.5 -5 -10.5s-7 -4.5 -11 -4.5c-5.33301 0 -9.5 1.66699 -12.5 5s-4.5 7.33301 -4.5 12c2 48.667 -11.667 89.334 -41 122.001c-35.333 39.333 -88.333 60.666 -159 63.999l-47 3c-10 0 -15 5.33301 -15 16v64
c0 10.667 5.33301 16 16 16c4.66699 0 8.66699 -1.5 12 -4.5s5 -6.83301 5 -11.5v-48l31 -2c24.667 -1.33301 48.334 -5 71.001 -11s43.667 -14.667 63 -26s36.5 -25.666 51.5 -42.999s26.833 -38 35.5 -62zM395.003 726.995c0 -4.66699 -1.66699 -8.5 -5 -11.5
s-7.33301 -4.5 -12 -4.5c-10.667 0 -16 5.33301 -16 16v58c0 4.66699 1.5 8.66699 4.5 12s6.83301 5 11.5 5s8.66699 -1.66699 12 -5s5 -7.33301 5 -12v-58zM103.003 230.995c0 4.66699 1.66895 8.49902 5.00195 11.499s7.33301 4.5 12 4.5
c10.667 -1.33301 16 -7.33301 16 -18c-1.33301 -24 1.66699 -46.667 9 -68s18.666 -40.333 33.999 -57c17.333 -19.333 39.333 -34.5 66 -45.5s57 -17.5 91 -19.5l47 -2c10 -1.33301 15 -7 15 -17v-114c0 -4.66699 -1.5 -8.66699 -4.5 -12s-6.83301 -5 -11.5 -5
s-8.66699 1.66699 -12 5s-5 7.33301 -5 12v99l-31 2c-77.333 3.33301 -137.333 28.333 -180 75c-18 19.333 -31.333 41.833 -40 67.5s-12.334 52.834 -11.001 81.501zM311.005 -95.0059c0 -10.667 -5.33301 -16 -16 -16c-4.66699 0 -8.66699 1.5 -12 4.5s-5 6.83301 -5 11.5
v58c0 4.66699 1.66699 8.5 5 11.5s7.33301 4.5 12 4.5c10.667 0 16 -5.33301 16 -16v-58zM285.005 766.994c-4.66699 1.33301 -8 4.16504 -10 8.49805s-2.33301 8.83301 -1 13.5v1c3.33301 8 9 12 17 12c2.66699 0 4.66699 -0.333008 6 -1
c5.33301 -1.33301 9 -4.16602 11 -8.49902s2 -9.16602 0 -14.499c-2 -8 -7.66699 -12 -17 -12z" />
    <glyph glyph-name="percent" unicode="%" horiz-adv-x="811" 
d="M255 52c-3.33301 0 -6.66699 0.999023 -10 2.99902c-3.33301 2.66699 -5.5 6.33398 -6.5 11.001s-0.166992 8.66699 2.5 12l192 260h-78c-6.66699 0 -11.667 3 -15 9c-3.33301 5.33301 -3 11 1 17l247 335c3.33301 4.66699 7.66602 7 12.999 7c4 0 7.33301 -1 10 -3
c8 -7.33301 9.33301 -15.333 4 -24l-228 -308h78c6.66699 0 11.667 -3 15 -9c2.66699 -6 2.33398 -12 -0.999023 -18l-211 -286c-2.66699 -4 -7 -6 -13 -6zM110.999 5.99902c-3.33301 0 -6.66602 1 -9.99902 3c-3.33301 3.33301 -5.5 7.16602 -6.5 11.499
s0.166992 8.16602 3.5 11.499l205 275c3.33301 4 7.66602 6 12.999 6c4 0 7.33301 -1 10 -3c3.33301 -3.33301 5.5 -7.16602 6.5 -11.499s-0.166992 -8.16602 -3.5 -11.499l-205 -275c-2.66699 -4 -7 -6 -13 -6zM510.999 398.999c-4 0 -7.33398 1.33105 -10.001 3.99805
c-4 2.66699 -6.33301 6.16699 -7 10.5s0.333008 8.5 3 12.5l148 199c2.66699 4.66699 7 7 13 7c4 0 7.33301 -1 10 -3c3.33301 -3.33301 5.5 -7.16602 6.5 -11.499s-0.166992 -8.16602 -3.5 -11.499l-147 -200c-3.33301 -4.66699 -7.66602 -7 -12.999 -7zM186.998 401.997
c-17.333 0 -33.666 3.33301 -48.999 10s-28.833 15.834 -40.5 27.501s-20.834 25.167 -27.501 40.5s-10 31.666 -10 48.999s3.33301 33.833 10 49.5s15.834 29.167 27.501 40.5s25.167 20.333 40.5 27s31.666 10 48.999 10s33.833 -3.33301 49.5 -10
s29.167 -15.667 40.5 -27s20.333 -24.833 27 -40.5s10 -32.167 10 -49.5s-3.33301 -33.666 -10 -48.999s-15.667 -28.833 -27 -40.5s-24.833 -20.834 -40.5 -27.501s-32.167 -10 -49.5 -10zM186.998 622.997c-26 0 -48.167 -9.16699 -66.5 -27.5s-27.5 -40.5 -27.5 -66.5
s9.16699 -48.167 27.5 -66.5s40.5 -27.5 66.5 -27.5s48.167 9.16699 66.5 27.5s27.5 40.5 27.5 66.5s-9.16699 48.167 -27.5 66.5s-40.5 27.5 -66.5 27.5zM186.998 477.997c-14 0 -26 5 -36 15s-15 22 -15 36c0 14.667 5 27 15 37s22 15 36 15s26.167 -5 36.5 -15
s15.5 -22.333 15.5 -37c0 -14 -5.16699 -26 -15.5 -36s-22.5 -15 -36.5 -15zM186.998 547.997c-5.33301 0 -9.66602 -1.83301 -12.999 -5.5s-5 -8.16699 -5 -13.5s1.66699 -9.66602 5 -12.999s7.66602 -5 12.999 -5s9.83301 1.66699 13.5 5s5.5 7.66602 5.5 12.999
s-1.83301 9.83301 -5.5 13.5s-8.16699 5.5 -13.5 5.5zM623.998 55.9971c-17.333 0 -33.666 3.33301 -48.999 10s-28.833 15.834 -40.5 27.501s-20.834 25.167 -27.501 40.5s-10 31.666 -10 48.999s3.33301 33.833 10 49.5s15.834 29.167 27.501 40.5s25.167 20.333 40.5 27
s31.666 10 48.999 10s33.833 -3.33301 49.5 -10s29.167 -15.667 40.5 -27s20.333 -24.833 27 -40.5s10 -32.167 10 -49.5s-3.33301 -33.666 -10 -48.999s-15.667 -28.833 -27 -40.5s-24.833 -20.834 -40.5 -27.501s-32.167 -10 -49.5 -10zM623.998 276.997
c-12.667 0 -24.835 -2.5 -36.502 -7.5s-21.667 -11.833 -30 -20.5s-15 -18.667 -20 -30s-7.5 -23.333 -7.5 -36c0 -26 9.16699 -48.167 27.5 -66.5s40.5 -27.5 66.5 -27.5s48.167 9.16699 66.5 27.5s27.5 40.5 27.5 66.5c0 12.667 -2.5 24.667 -7.5 36
s-11.667 21.333 -20 30s-18.166 15.5 -29.499 20.5s-23.666 7.5 -36.999 7.5zM623.997 130.997c-14 0 -26.167 5 -36.5 15s-15.5 22.333 -15.5 37c0 14 5.16699 26 15.5 36s22.5 15 36.5 15s26 -5 36 -15s15 -22 15 -36c0 -14.667 -5 -27 -15 -37s-22 -15 -36 -15z
M623.997 200.997c-5.33301 0 -9.83301 -1.66699 -13.5 -5s-5.5 -7.66602 -5.5 -12.999s1.83301 -9.83301 5.5 -13.5s8.16699 -5.5 13.5 -5.5s9.66602 1.83301 12.999 5.5s5 8.16699 5 13.5s-1.66699 9.66602 -5 12.999s-7.66602 5 -12.999 5zM221.997 4.99707
c-7.33301 2 -12.332 5.16699 -14.999 9.5s-3.33398 9.16602 -2.00098 14.499c3.33301 8 9 12 17 12c2.66699 0 4.66699 -0.333008 6 -1c4.66699 -1.33301 8 -4.16602 10 -8.49902s2.33301 -8.83301 1 -13.5v-1c-3.33301 -8 -9 -12 -17 -12z" />
    <glyph glyph-name="ampersand" unicode="&#x26;" horiz-adv-x="747" 
d="M755 252l-0.999023 -0.00195312c-44 0 -92.667 -21 -146 -63c-23.333 -18 -44.166 -36.833 -62.499 -56.5l-47.5 -50.5l-5 -6c-24 -26 -53 -45.5 -87 -58.5s-68.333 -19.5 -103 -19.5c-33.333 0 -64.5 5.33301 -93.5 16s-54.333 25.167 -76 43.5s-38.667 40 -51 65
s-18.5 51.833 -18.5 80.5c0 56 22 104 66 144c16 14.667 30.667 25.334 44 32.001l22 11l102 43c11.333 4.66699 22 9.33398 32 14.001s18.667 10.334 26 17.001c14.667 12 22 27 22 45c0 20.667 -7.16699 38.334 -21.5 53.001s-32.166 22 -53.499 22
c-20 0 -37.333 -7.33301 -52 -22s-22 -31.667 -22 -51c0 -10.667 2 -20.667 6 -30c0.666992 -0.666992 2.16699 -3.33398 4.5 -8.00098s4.16602 -8.66699 5.49902 -12c2 -4.66699 2.33301 -9.16699 1 -13.5s-4.33301 -7.5 -9 -9.5
c-1.33301 -0.666992 -3.66602 -1 -6.99902 -1c-6.66699 0 -12.5 4.16699 -17.5 12.5s-7.5 14.5 -7.5 18.5c-6 14 -9 28.333 -9 43c0 14 2.83301 27.5 8.5 40.5s13.334 24.333 23.001 34s21 17.334 34 23.001s26.833 8.5 41.5 8.5c15.333 0 29.5 -2.83301 42.5 -8.5
s24.333 -13.5 34 -23.5s17.334 -21.5 23.001 -34.5s8.5 -26.833 8.5 -41.5c0 -15.333 -2.83301 -28.5 -8.5 -39.5s-13.334 -20.667 -23.001 -29s-20.334 -15.5 -32.001 -21.5s-23.834 -11.333 -36.501 -16l-102 -43c-0.666992 0 -6.83398 -3 -18.501 -9
s-24.5 -15.667 -38.5 -29c-36.667 -32.667 -55 -72.334 -55 -119.001c0 -24 5.33301 -46.5 16 -67.5s25.167 -39.333 43.5 -55s40.166 -27.834 65.499 -36.501s52.333 -13 81 -13c30.667 0 60.667 5.66699 90 17s54.666 28 75.999 50
c0.666992 1.33301 2.33398 3.33301 5.00098 6c17.333 19.333 36.5 39.666 57.5 60.999s43.333 40.833 67 58.5s48.5 32.334 74.5 44.001s53 17.5 81 17.5h1c10.667 0 16 -5.33301 16 -16c0 -4.66699 -1.5 -8.66699 -4.5 -12s-6.83301 -5 -11.5 -5zM107.001 523.998
c0 27.333 5.33398 52.0029 16.001 74.0029s25.167 40.667 43.5 56s39.333 27 63 35s48.5 12 74.5 12s51 -4.16699 75 -12.5s45 -20.166 63 -35.499s32.333 -34.166 43 -56.499s16 -47.166 16 -74.499c0 -32.667 -5.16699 -59.834 -15.5 -81.501
s-21.166 -38.834 -32.499 -51.501c-12 -13.333 -23.167 -22.833 -33.5 -28.5s-15.833 -8.83398 -16.5 -9.50098c-11.333 -5.33301 -23.333 -10.666 -36 -15.999l-38 -17.5l-41 -19.5c-9.33301 -4.66699 -19.333 -10 -30 -16s-20.5 -12.5 -29.5 -19.5
s-16.5 -14.833 -22.5 -23.5s-9 -18 -9 -28c0 -13.333 3.16699 -25.166 9.5 -35.499s14.5 -19.166 24.5 -26.499s21.167 -13 33.5 -17s24.5 -6 36.5 -6c11.333 0 23.166 2.5 35.499 7.5s24.5 11.333 36.5 19s23.833 16.5 35.5 26.5s21.834 20 30.501 30
c12 14 26.167 29.667 42.5 47s35.166 34.166 56.499 50.499s45.5 31.166 72.5 44.499s56.833 22.666 89.5 27.999c10.667 0 17 -4.33301 19 -13c0.666992 -4.66699 -0.333008 -8.83398 -3 -12.501s-6.33398 -5.83398 -11.001 -6.50098c-26 -4.66699 -50 -12 -72 -22
s-42.833 -22 -62.5 -36s-38.167 -29.5 -55.5 -46.5s-34.333 -35.167 -51 -54.5c-31.333 -35.333 -61.666 -60 -90.999 -74s-53.333 -21 -72 -21c-16 0 -32.167 2.83301 -48.5 8.5s-31 13.667 -44 24s-23.667 22.666 -32 36.999s-12.5 30.5 -12.5 48.5
c0 15.333 3.66699 29 11 41s16.5 22.667 27.5 32s22.833 17.5 35.5 24.5s24.334 13.167 35.001 18.5l41.5 19.5l36.5 17l27 12.5c7.33301 3.33301 11.333 5 12 5c0.666992 0.666992 5 3.33398 13 8.00098s16.667 12.667 26 24c26 29.333 39 65.666 39 108.999
c0 23.333 -4.5 44 -13.5 62s-21 33.167 -36 45.5s-32.5 21.833 -52.5 28.5s-40.667 10 -62 10s-41.833 -3.16699 -61.5 -9.5s-37.167 -15.666 -52.5 -27.999s-27.5 -27.333 -36.5 -45s-13.5 -38.167 -13.5 -61.5c0 -19.333 2.5 -35.5 7.5 -48.5s11.5 -27.833 19.5 -44.5
c3.33301 -6 4.16602 -11.167 2.49902 -15.5s-4.16699 -7.5 -7.5 -9.5c-4 -1.33301 -6.66699 -2 -8 -2c-6 0 -10.667 2.66699 -14 8c-10.667 17.333 -18.834 35.166 -24.501 53.499s-8.5 37.833 -8.5 58.5zM609.002 13.001c-7.33301 22 -25.333 43.6689 -54 65.002
c-3.33301 3.33301 -5.5 7.16602 -6.5 11.499s0.166992 8.16602 3.5 11.499c2.66699 4.66699 7 7 13 7c4 0 7.33301 -1 10 -3c34.667 -25.333 56.667 -53 66 -83c1.33301 -4 1 -8 -1 -12s-5.33301 -6.66699 -10 -8c-10.667 -0.666992 -17.667 3 -21 11zM298.002 256.003
c23.333 -18.667 47.335 -33.668 72.002 -45.001c4 -1.33301 6.83301 -4.16602 8.5 -8.49902s1.5 -8.83301 -0.5 -13.5c-2.66699 -6 -7.66699 -9 -15 -9c-17.333 6.66699 -32.833 14.167 -46.5 22.5s-26.834 17.5 -39.501 27.5c-8 6.66699 -8.66699 14.667 -2 24
c3.33301 4 7.66602 6 12.999 6c2.66699 0 6 -1.33301 10 -4zM711.004 13.002c-6 19.333 -17.9971 39.501 -35.9971 60.501s-39.667 40.833 -65 59.5c-8.66699 6 -10 13.667 -4 23c3.33301 4 8 6 14 6c3.33301 0 6.33301 -1 9 -3
c29.333 -20.667 53.666 -42.834 72.999 -66.501s32.666 -47.167 39.999 -70.5c1.33301 -4 1 -8 -1 -12s-5.33301 -6.66699 -10 -8c-10.667 -0.666992 -17.334 3 -20.001 11zM418.007 235.003c-3.33301 0 -7.99805 1.66895 -13.998 5.00195s-12.333 7.33301 -19 12l-19 13.5
l-13 9.5c-3.33301 3.33301 -5.5 7.16602 -6.5 11.499s0.166992 8.16602 3.5 11.499c3.33301 4.66699 7.66602 7 12.999 7c4 0 7.33301 -1.33301 10 -4c18 -13.333 35.667 -25 53 -35c4 -2.66699 6.66699 -6.16699 8 -10.5s0.666016 -8.5 -2.00098 -12.5
c-3.33301 -5.33301 -8 -8 -14 -8zM775.009 362.005c-2.66699 -8 -8.33203 -12.002 -16.999 -12.002c-7.33301 2 -12.333 5.16699 -15 9.5s-3.33398 8.83301 -2.00098 13.5v1c3.33301 8 9 12 17 12c2.66699 0 4.66699 -0.333008 6 -1
c4.66699 -1.33301 8 -4.16602 10 -8.49902s2.33301 -9.16602 1 -14.499z" />
    <glyph glyph-name="quotesingle" unicode="'" horiz-adv-x="245" 
d="M149 480h-61c-10.667 0 -16 5.33301 -16 16l-12 157c0 4.66699 1.66699 8.66699 5 12c3.33301 4 7.33301 6 12 6h91c5.33301 0 9.5 -1.83301 12.5 -5.5s4.5 -8.16699 4.5 -13.5l-20 -157c-0.666992 -4 -2.5 -7.5 -5.5 -10.5s-6.5 -4.5 -10.5 -4.5zM150 638h-55l8 -125h31
z" />
    <glyph glyph-name="parenleft" unicode="(" horiz-adv-x="388" 
d="M312 -71c-40 0 -73.833 8.16895 -101.5 24.502s-49.834 43.166 -66.501 80.499c-15.333 33.333 -26.333 75.833 -33 127.5s-10 117.5 -10 197.5s3.33301 146 10 198s17.667 94.333 33 127c16.667 37.333 38.834 64.166 66.501 80.499s61.5 24.5 101.5 24.5
c11.333 0 20 -4.33301 26 -13c6 -6.66699 9 -15.334 9 -26.001v-56c0 -9.33301 -3 -18 -9 -26c-6.66699 -8 -14.334 -12.333 -23.001 -13c-33.333 -3.33301 -56.333 -26.666 -69 -69.999c-15.333 -51.333 -23 -126.666 -23 -225.999c0 -98.667 7.66699 -173.667 23 -225
c12.667 -44 35.334 -67.667 68.001 -71c9.33301 -0.666992 17.333 -5 24 -13c6 -8 9 -16.667 9 -26v-56c0 -10.667 -3 -19.334 -9 -26.001c-6 -8.66699 -14.667 -13 -26 -13zM312 758.002c-34.667 0 -63.168 -7 -85.501 -21s-40.5 -36 -54.5 -66
c-13.333 -30.667 -23.333 -70.834 -30 -120.501s-10 -113.5 -10 -191.5c0 -77.333 3.33301 -141 10 -191s16.667 -90.333 30 -121c14 -30 32.167 -52 54.5 -66s50.833 -21 85.5 -21c2.66699 2 4 4.66699 4 8v56c-28 10 -49.5 22 -64.5 36s-26.833 35.667 -35.5 65
c-16 52 -24 130 -24 234c0 20 0.333008 43.833 1 71.5s2.83398 55.834 6.50098 84.501s9.66699 55.834 18 81.501s19.833 46.5 34.5 62.5c16 16 35.667 25 59 27l5 64c0 3.33301 -0.666992 5.66602 -2 6.99902z" />
    <glyph glyph-name="parenright" unicode=")" horiz-adv-x="388" 
d="M74 -80c-10.667 0 -19 3.99805 -25 11.998s-9 17 -9 27v56c0 9.33301 3 18 9 26c6.66699 8 14.334 12.333 23.001 13c32 2.66699 55 26 69 70c15.333 51.333 23 126.333 23 225c0 99.333 -7.66699 174.666 -23 225.999c-14 44.667 -37 68.334 -69 71.001
c-8.66699 0.666992 -16.334 5 -23.001 13c-6 8 -9 16.667 -9 26v56c0 10.667 3 19.334 9 26.001c6 8.66699 14.333 13 25 13c41.333 0 75.333 -8.16699 102 -24.5s49 -43.166 67 -80.499c14.667 -33.333 25.334 -75.833 32.001 -127.5s10 -117.834 10 -198.501
c0 -79.333 -3.33301 -145 -10 -197s-17.334 -94.333 -32.001 -127c-18 -37.333 -40.333 -64.166 -67 -80.499s-60.667 -24.5 -102 -24.5zM75 22.998l-4 -64.001c0 -3.33301 0.666992 -5.66602 2 -6.99902c36 -0.666992 65.167 6 87.5 20s40.166 36 53.499 66
c14 30.667 24.167 70.834 30.5 120.501s9.5 113.167 9.5 190.5c0 78 -3.16699 142 -9.5 192s-16.5 90.333 -30.5 121c-13.333 30 -31.166 52 -53.499 66s-51.166 21 -86.499 21c-2 -2 -3 -4.66699 -3 -8v-56c13.333 -5.33301 25.166 -10.5 35.499 -15.5
s19.833 -11.5 28.5 -19.5c14.667 -16 26.167 -37 34.5 -63s14.333 -53.333 18 -82s5.83398 -56.834 6.50098 -84.501s1 -51.5 1 -71.5s-0.333008 -43.833 -1 -71.5s-2.83398 -55.667 -6.50098 -84s-9.66699 -55.333 -18 -81s-19.833 -46.5 -34.5 -62.5
c-16.667 -16 -36.667 -25 -60 -27z" />
    <glyph glyph-name="asterisk" unicode="*" horiz-adv-x="445" 
d="M427 546c1.33301 -4 0.667969 -8.33105 -1.99902 -12.998c-3.33301 -4.66699 -7.33301 -7 -12 -7l-76 -8l54 -53l5 -12l-113 -94l-60 77l-36 -70l-20 -7l-116 88l56 74l-75 7c-4.66699 1.33301 -8.33398 3.66602 -11.001 6.99902c-3.33301 4 -4.33301 8.33301 -3 13
l30 134c1.33301 5.33301 4.33301 9 9 11c2.66699 1.33301 5 2 7 2s4.33301 -0.666992 7 -2l82 -40l-18 76l163 20l-2 -97l76 37c4 1.33301 6.66699 2 8 2c0.666992 0 3 -0.666992 7 -2c5.33301 -2.66699 8.33301 -6.33398 9 -11.001zM298.002 547.002l93.001 10.001l-23 94
l-89 -43c-2.66699 -1.33301 -5 -2 -7 -2c-4.66699 0 -8.33398 1.33301 -11.001 4c-5.33301 4.66699 -7 10 -5 16l21 90h-105l21 -90c2 -6 0 -11.333 -6 -16c-2.66699 -2.66699 -6 -4 -10 -4c-2 0 -4.33301 0.666992 -7 2l-94 46l-22 -95l95 -9
c7.33301 -0.666992 12 -4.66699 14 -12c2 -6.66699 0.333008 -12.334 -5 -17.001l-71 -60l80 -62l41 81c3.33301 6 8.33301 9 15 9s11.667 -3 15 -9l41 -83l75 57l-66 64c-4.66699 5.33301 -6 11.333 -4 18c2 6 6.66699 9.66699 14 11z" />
    <glyph glyph-name="plus" unicode="+" horiz-adv-x="605" 
d="M543 370c10.667 0 16 -5.33301 16 -16v-94c0 -10.667 -5.33301 -16 -16 -16h-177v-177c0 -4.66699 -1.5 -8.66699 -4.5 -12s-7.16699 -5 -12.5 -5h-93c-5.33301 0 -9.5 1.66699 -12.5 5s-4.5 7.33301 -4.5 12v177h-177c-10.667 0 -16 5.33301 -16 16v94
c0 10.667 5.33301 16 16 16h177v177c0 4.66699 1.5 8.66699 4.5 12s7.16699 5 12.5 5h93c5.33301 0 9.5 -1.66699 12.5 -5s4.5 -7.33301 4.5 -12v-177h177zM526 277v60h-177c-4.66699 0 -8.5 1.66699 -11.5 5s-4.5 7.33301 -4.5 12v177h-61v-177
c0 -4.66699 -1.5 -8.66699 -4.5 -12s-6.83301 -5 -11.5 -5h-177v-60h177c4.66699 0 8.5 -1.66699 11.5 -5s4.5 -7.33301 4.5 -12v-177h61v177c0 4.66699 1.5 8.66699 4.5 12s6.83301 5 11.5 5h177z" />
    <glyph glyph-name="comma" unicode="," horiz-adv-x="281" 
d="M148 -30c-2 -7.33301 -7.33398 -11 -16.001 -11h-60c-5.33301 0 -9.66602 2 -12.999 6c-3.33301 4.66699 -4.66602 9 -3.99902 13l29 158c1.33301 8.66699 6.66602 13 15.999 13h91c6 0 10.667 -2.33301 14 -7s4 -9.66699 2 -15zM90.999 -8h30l46 124h-53z" />
    <glyph glyph-name="hyphen" unicode="-" horiz-adv-x="476" 
d="M88 236c-4.66699 0 -8.66699 1.5 -12 4.5s-5 6.83301 -5 11.5v94c0 4.66699 1.66699 8.5 5 11.5s7.33301 4.5 12 4.5h300c4.66699 0 8.66699 -1.5 12 -4.5s5 -6.83301 5 -11.5v-94c0 -4.66699 -1.66699 -8.5 -5 -11.5s-7.33301 -4.5 -12 -4.5h-300zM104 329v-60h268v60
h-268z" />
    <glyph glyph-name="period" unicode="." horiz-adv-x="287" 
d="M190 2h-93c-11.333 0 -17 5.33301 -17 16v94c0 10.667 5.66699 16 17 16h93c11.333 0 17 -5.33301 17 -16v-94c0 -10.667 -5.66699 -16 -17 -16zM113 95v-60h61v60h-61z" />
    <glyph glyph-name="slash" unicode="/" horiz-adv-x="539" 
d="M39 -87c-6 0 -10.667 2.66602 -14 7.99902c-3.33301 4.66699 -4 9.66699 -2 15l341 840c2 6.66699 7 10 15 10h121c6 0 10.667 -2.33301 14 -7c3.33301 -5.33301 4 -10.666 2 -15.999l-341 -839c-2 -7.33301 -7 -11 -15 -11h-121zM390 752.999l-327 -807h86l327 807h-86z
" />
    <glyph glyph-name="zero" unicode="0" horiz-adv-x="684" 
d="M347 -4c-48 0 -90.832 9.83301 -128.499 29.5s-69.334 45.834 -95.001 78.501s-45.334 70 -59.001 112s-20.5 85.333 -20.5 130c0 73.333 14.167 137.333 42.5 192s68.5 96 120.5 124c1.33301 0.666992 3.66602 1 6.99902 1c6.66699 0 11.667 -2.66699 15 -8
c4.66699 -10.667 2.33398 -18.334 -6.99902 -23.001c-46 -24 -81.667 -60.833 -107 -110.5s-38 -108.167 -38 -175.5c0 -40 6 -79 18 -117s29.5 -71.833 52.5 -101.5s51.333 -53.5 85 -71.5s71.834 -27 114.501 -27c43.333 0 81.833 9 115.5 27s61.834 42 84.501 72
s40 63.833 52 101.5s18 76.5 18 116.5c0 38 -5.5 75.5 -16.5 112.5s-27.333 70.167 -49 99.5s-48.167 53.5 -79.5 72.5s-67.333 29.833 -108 32.5v-71c0 -4.66699 -1.66699 -8.5 -5 -11.5s-7.33301 -4.5 -12 -4.5c-31.333 0 -58.5 -6.66699 -81.5 -20
s-42.167 -30.833 -57.5 -52.5s-26.666 -46 -33.999 -73s-11 -54.5 -11 -82.5s3.83301 -55.5 11.5 -82.5s19.167 -51.167 34.5 -72.5s34.5 -38.666 57.5 -51.999s50.167 -20 81.5 -20s58.5 6.5 81.5 19.5s42.167 30.333 57.5 52s26.666 46 33.999 73s11 54.5 11 82.5
c0 15.333 -1.16699 33.166 -3.5 53.499s-7.33301 40.5 -15 60.5s-18.5 38.833 -32.5 56.5s-32.667 31.5 -56 41.5c-4.66699 1.33301 -7.83398 4.16602 -9.50098 8.49902s-1.5 8.5 0.5 12.5c3.33301 6.66699 8.33301 10 15 10c3.33301 0 5.66602 -0.333008 6.99902 -1
c24 -10.667 44.167 -24.667 60.5 -42s29.5 -36.666 39.5 -57.999s17 -44.166 21 -68.499s6 -48.833 6 -73.5c0 -33.333 -4.66699 -65.5 -14 -96.5s-23 -58.667 -41 -83s-40.667 -43.833 -68 -58.5s-58.666 -22 -93.999 -22c-36 0 -67.5 7.5 -94.5 22.5
s-49.667 34.667 -68 59s-32.166 52 -41.499 83s-14 62.833 -14 95.5c0 31.333 4.16699 62 12.5 92s20.833 57 37.5 81s37.667 43.833 63 59.5s54.666 24.834 87.999 27.501v72c0 10.667 5.33301 16 16 16c48 0 90.833 -9.83301 128.5 -29.5s69.334 -45.834 95.001 -78.501
s45.334 -70 59.001 -112s20.5 -85.333 20.5 -130s-6.83301 -88 -20.5 -130s-33.334 -79.333 -59.001 -112s-57.334 -58.834 -95.001 -78.501s-80.5 -29.5 -128.5 -29.5zM266.001 649c-7.33301 2.66699 -12.332 6.16797 -14.999 10.501s-3.33398 8.83301 -2.00098 13.5v1
c3.33301 8 9 12 17 12c2.66699 0 4.66699 -0.333008 6 -1c4.66699 -1.33301 8 -4.33301 10 -9s2.33301 -9.33398 1 -14.001c-2 -8.66699 -7.66699 -13 -17 -13z" />
    <glyph glyph-name="one" unicode="1" horiz-adv-x="504" 
d="M305 -1c-4.66699 0 -8.66699 1.5 -12 4.5s-5 7.16699 -5 12.5v331c0 5.33301 1.66699 9.5 5 12.5s7.33301 4.5 12 4.5h74v318c0 5.33301 1.66699 9.5 5 12.5s7.33301 4.5 12 4.5c10.667 0 16 -5.66699 16 -17v-335c0 -10.667 -5.33301 -16 -16 -16h-75v-315
c0 -11.333 -5.33301 -17 -16 -17zM395 273c10.667 0 16 -5.33301 16 -16v-183c0 -11.333 -5.33301 -17 -16 -17c-4.66699 0 -8.66699 1.5 -12 4.5s-5 7.16699 -5 12.5v183c0 4.66699 1.66699 8.5 5 11.5s7.33301 4.5 12 4.5zM305 595c10.667 0 15.998 -5.33301 15.998 -16
v-143c0 -10.667 -5.33301 -16 -16 -16c-4.66699 0 -8.66699 1.5 -12 4.5s-5 6.83301 -5 11.5v108l-156 -126c-2.66699 -2.66699 -6 -4 -10 -4c-5.33301 0 -9.66602 2 -12.999 6c-3.33301 3.33301 -4.66602 7.33301 -3.99902 12s2.66699 8.66699 6 12l183 147
c3.33301 2.66699 7 4 11 4zM282.998 665l-153.997 -123.001c-2.66699 -2.66699 -6.33398 -4 -11.001 -4s-9 2 -13 6c-2.66699 3.33301 -3.66699 7.33301 -3 12s2.66699 8.33398 6 11.001l154 124c4 2.66699 7.33301 4 10 4c5.33301 0 9.66602 -2.33301 12.999 -7
c7.33301 -8 6.66602 -15.667 -2.00098 -23zM389.001 0.999023c-5.33301 1.33301 -8.99902 4.16602 -10.999 8.49902s-2 9.16602 0 14.499c2 8 7.66699 12 17 12c2.66699 0 4.66699 -0.333008 6 -1c4.66699 -1.33301 8 -4.16602 10 -8.49902s2.33301 -9.16602 1 -14.499
c-2.66699 -8 -8.33398 -12 -17.001 -12z" />
    <glyph glyph-name="two" unicode="2" horiz-adv-x="656" 
d="M115 109c-6.66699 0 -11.668 2.66797 -15.001 8.00098c-2 4 -2.5 8.16699 -1.5 12.5s3.5 7.83301 7.5 10.5c50.667 29.333 98 63.333 142 102s83.667 81.334 119 128.001c25.333 34 43.333 62 54 84s16.334 33.333 17.001 34c2 6.66699 7 10 15 10
c2.66699 0 4.66699 -0.333008 6 -1c4 -2 7 -5 9 -9s2 -8.33301 0 -13c-39.333 -78.667 -87.833 -147.834 -145.5 -207.501s-124.167 -111.834 -199.5 -156.501c-4 -1.33301 -6.66699 -2 -8 -2zM151.999 624.001c20.667 22.667 45.833 40.5 75.5 53.5s63.5 20.167 101.5 21.5
c4.66699 0.666992 8.66699 -0.5 12 -3.5s5 -7.16699 5 -12.5c0.666992 -4.66699 -0.5 -8.5 -3.5 -11.5s-6.83301 -4.83301 -11.5 -5.5c-68 -3.33301 -119.667 -24.666 -155 -63.999c-32.667 -36.667 -48 -82 -46 -136c0.666992 -4.66699 -0.5 -8.66699 -3.5 -12
s-6.83301 -5 -11.5 -5c-11.333 0 -17 5.33301 -17 16c-1.33301 30 2.5 58.667 11.5 86s23.167 51.666 42.5 72.999zM523.998 578.001c8.66699 -8.66699 15.333 -17.6738 20 -27.0068s8.16699 -17.666 10.5 -24.999s3.66602 -13.666 3.99902 -18.999s0.5 -8.33301 0.5 -9
c0 -29.333 -5.16699 -58.166 -15.5 -86.499s-23.666 -55.666 -39.999 -81.999s-34.833 -51.166 -55.5 -74.499s-41 -44.666 -61 -63.999c-12.667 -11.333 -28.167 -24.166 -46.5 -38.499s-37.666 -28.666 -57.999 -42.999l-60 -42l-52.5 -35.5h366
c4.66699 0 8.66699 -1.66699 12 -5s5 -7.33301 5 -12s-1.66699 -8.5 -5 -11.5s-7.33301 -4.5 -12 -4.5h-421c-2 8 6.66699 20.667 26 38s42.666 36.666 69.999 57.999l84.5 64.5c29 21.667 51.833 40.5 68.5 56.5c18.667 17.333 37.5 36.833 56.5 58.5s36.333 44.5 52 68.5
s28.5 49.167 38.5 75.5s15 52.833 15 79.5c0 1.33301 -1.16699 8 -3.5 20s-9.83301 24.333 -22.5 37c-24.667 24 -64.334 36 -119.001 36h-9c-2.66699 0 -5.66699 -0.333008 -9 -1c-11.333 0 -23.333 -1.16699 -36 -3.5s-24.834 -5.83301 -36.501 -10.5
s-22.5 -10.667 -32.5 -18s-18.333 -16 -25 -26c-11.333 -17.333 -16 -38 -14 -62c0 -4.66699 -1.5 -8.66699 -4.5 -12s-6.83301 -5 -11.5 -5c-11.333 0 -17 5.33301 -17 16c-3.33301 57.333 20.334 100 71.001 128c20.667 10.667 40.834 17.667 60.501 21s34.167 5 43.5 5
c3.33301 0.666992 6.66602 1 9.99902 1h10c62.667 0 110.334 -15.333 143.001 -46zM379.997 118.994h96c4.66699 0 8.66699 -1.5 12 -4.5s5 -6.83301 5 -11.5s-1.66699 -8.66699 -5 -12s-7.33301 -5 -12 -5h-96c-5.33301 0 -9.5 1.66699 -12.5 5s-4.5 7.33301 -4.5 12
c0 10.667 5.66699 16 17 16zM514.997 108.994c3.33301 8 9.00098 12 17.001 12c2.66699 0 4.66699 -0.333008 6 -1c4.66699 -1.33301 8 -4.16602 10 -8.49902s2.33301 -8.83301 1 -13.5v-1c-3.33301 -8 -9 -12 -17 -12c-7.33301 2 -12.333 5.16699 -15 9.5
s-3.33398 9.16602 -2.00098 14.499z" />
    <glyph glyph-name="three" unicode="3" horiz-adv-x="665" 
d="M337 365l-0.00195312 -31.9971c20 -4.66699 37.167 -10.167 51.5 -16.5s26.833 -13.833 37.5 -22.5s19.834 -18.834 27.501 -30.501s14.834 -25.834 21.501 -42.501c1.33301 -4 1.16602 -8.16699 -0.500977 -12.5s-4.5 -7.16602 -8.5 -8.49902
c-11.333 -0.666992 -18.666 2.33301 -21.999 9c-5.33301 14 -11 25.833 -17 35.5s-13.667 18.167 -23 25.5s-20.833 13.666 -34.5 18.999s-31.167 10.333 -52.5 15c-8.66699 1.33301 -13 6.66602 -13 15.999v57c0 9.33301 4 14.666 12 15.999c16.667 4.66699 31.5 9 44.5 13
s24.667 9.33301 35 16s19.333 15.167 27 25.5s14.834 23.833 21.501 40.5c2.66699 6.66699 8 10 16 10c2.66699 0 4.66699 -0.333008 6 -1c4 -1.33301 6.83301 -4.16602 8.5 -8.49902s1.83398 -8.5 0.500977 -12.5c-8 -18.667 -16.167 -33.834 -24.5 -45.501
s-17.833 -21.5 -28.5 -29.5s-22.834 -14.667 -36.501 -20s-29.834 -10.666 -48.501 -15.999zM100.998 223.003c0 4.66699 1.5 8.66895 4.5 12.002s6.83301 5 11.5 5s8.66699 -1.66699 12 -5s5 -7.33301 5 -12c0 -27.333 5.5 -52.5 16.5 -75.5s25.833 -42.667 44.5 -59
s40 -29.333 64 -39s49 -15.167 75 -16.5c4.66699 -0.666992 8.5 -2.66699 11.5 -6s4.16699 -7.33301 3.5 -12c0 -10 -5.33301 -15 -16 -15c-30.667 2 -60 8.66699 -88 20s-52.667 26.666 -74 45.999s-38.333 42.166 -51 68.499s-19 55.833 -19 88.5zM270.998 690.005
c0.666992 0.666992 2.00098 1.00098 4.00098 1.00098c8.66699 0 14 -4.33301 16 -13c1.33301 -4 0.833008 -8 -1.5 -12s-5.83301 -6.66699 -10.5 -8c-44 -10.667 -79.5 -32.167 -106.5 -64.5s-40.5 -71.5 -40.5 -117.5c0 -5.33301 -1.66699 -9.5 -5 -12.5
s-7.33301 -4.5 -12 -4.5c-10.667 0 -16 5.66699 -16 17c0 26.667 4.16699 51.667 12.5 75s20 44.166 35 62.499s33.167 34 54.5 47s44.666 22.833 69.999 29.5zM189.999 476.006c0 26.667 6.16992 49.168 18.5029 67.501s28 33.333 47 45s40.167 20.167 63.5 25.5
s46.333 8 69 8c29.333 0 57.833 -4.66699 85.5 -14s50.167 -26.666 67.5 -51.999c12 -16.667 19.167 -31.834 21.5 -45.501s3.5 -20.834 3.5 -21.501c0 -28 -5.66699 -54.667 -17 -80s-30 -44.333 -56 -57c2 -1.33301 3.83301 -2.5 5.5 -3.5s3.5 -2.16699 5.5 -3.5
c14 -9.33301 27.667 -24.166 41 -44.499s20 -48.5 20 -84.5c0 -24 -8 -47 -24 -69s-34.333 -38.333 -55 -49c-26.667 -14 -59.334 -21 -98.001 -21h-3c-24 0 -47.5 2.16699 -70.5 6.5s-43.667 12.166 -62 23.499s-33 26.333 -44 45s-16.5 42.334 -16.5 71.001
c0 4.66699 1.66699 8.66699 5 12s7.33301 5 12 5s8.5 -1.66699 11.5 -5s4.5 -7.33301 4.5 -12c0 -23.333 4.83301 -42.5 14.5 -57.5s22.167 -26.5 37.5 -34.5s32.666 -13.5 51.999 -16.5s38.666 -4.5 57.999 -4.5h1c58.667 0 100 17.667 124 53
c8.66699 12.667 14.167 24.334 16.5 35.001s3.5 16.667 3.5 18c0 14 -1.83301 27.833 -5.5 41.5s-9.33398 26 -17.001 37s-17.334 20.167 -29.001 27.5s-25.167 11.666 -40.5 12.999c-4 0.666992 -7.5 2.5 -10.5 5.5s-4.5 6.5 -4.5 10.5c0 4.66699 1.5 8.5 4.5 11.5
s6.5 4.83301 10.5 5.5c4.66699 0.666992 9.66699 2 15 4c4.66699 1.33301 9.66699 3.16602 15 5.49902s11 5.5 17 9.5c30.667 20.667 46 54.334 46 101.001c0 1.33301 -1 7.16602 -3 17.499s-7.66699 21.166 -17 32.499c-24 34 -65.667 51 -125 51
c-18 0 -36.667 -1.83301 -56 -5.5s-37.166 -10 -53.499 -19s-29.666 -20.667 -39.999 -35s-15.5 -32.166 -15.5 -53.499c0 -11.333 -5.33301 -17 -16 -17c-4.66699 0 -8.66699 1.5 -12 4.5s-5 7.16699 -5 12.5zM330.002 664.007c-16 4 -21.667 11.999 -17 23.999
c2 8 7.66699 12 17 12c2.66699 0 4.66699 -0.333008 6 -1c4.66699 -1.33301 8 -4.16602 10 -8.49902s2.33301 -8.83301 1 -13.5v-1c-3.33301 -8 -9 -12 -17 -12z" />
    <glyph glyph-name="four" unicode="4" horiz-adv-x="688" 
d="M628 170c0 -10.667 -5.33301 -16 -16 -16h-192v-138c0 -10.667 -5.33301 -16 -16 -16c-11.333 -0 -17 5.33301 -17 16v154c0 4.66699 1.66699 8.66699 5 12s7.33301 5 12 5h208c10.667 0 16 -5.66699 16 -17zM334 170c0 -4.66699 -1.66602 -8.66602 -4.99902 -11.999
s-7.33301 -5 -12 -5h-241c-6 0 -10.667 3 -14 9c-3.33301 5.33301 -3.33301 11 0 17l326 508c4.66699 5.33301 9.66699 7.66602 15 6.99902c11.333 0 17 -5.33301 17 -16v-419c0 -10.667 -5.33301 -16 -16 -16h-170c-6 0 -10.667 2.66699 -14 8
c-3.33301 6 -3.33301 11.667 0 17l96 162c2.66699 5.33301 7.33398 8 14.001 8c4 0 7 -0.666992 9 -2c3.33301 -2 5.66602 -5.33301 6.99902 -10s0.666016 -8.66699 -2.00098 -12l-81 -138h124v348l-281 -438h211c4.66699 0 8.66699 -1.5 12 -4.5s5 -6.83301 5 -11.5z
M491.001 629.001c4.66699 0 8.66699 -1.5 12 -4.5s5 -6.83301 5 -11.5v-337h45c5.33301 0 9.5 -1.66699 12.5 -5s4.5 -7.33301 4.5 -12c0 -10.667 -5.66699 -16 -17 -16h-62c-10.667 0 -16 5.33301 -16 16v354c0 10.667 5.33301 16 16 16zM491.001 0.000976562
c-10.667 0 -16 5.33301 -16 16v82c0 10.667 5.33301 16 16 16c4.66699 0 8.66699 -1.5 12 -4.5s5 -6.83301 5 -11.5v-82c0 -4.66699 -1.66699 -8.5 -5 -11.5s-7.33301 -4.5 -12 -4.5zM592.001 266.001c2 5.33301 5.00098 8.66797 9.00098 10.001s8.66699 2 14 2
c4.66699 -2 8 -5.16699 10 -9.5s2.33301 -8.83301 1 -13.5v-1c-3.33301 -8 -9 -12 -17 -12c-7.33301 2 -12.333 5.16699 -15 9.5s-3.33398 9.16602 -2.00098 14.499z" />
    <glyph glyph-name="five" unicode="5" horiz-adv-x="651" 
d="M237 679c0 10.667 5.66699 16 17 16h219c4.66699 0 8.66699 -1.5 12 -4.5s5 -6.83301 5 -11.5c0 -5.33301 -1.66699 -9.5 -5 -12.5s-7.33301 -4.5 -12 -4.5h-219c-11.333 0 -17 5.66699 -17 17zM99 198c11.333 0 17.9941 -4.33984 19.9941 -13.0068
c11.333 -49.333 35.5 -87.833 72.5 -115.5s80.5 -41.5 130.5 -41.5c32.667 0 63 5.66699 91 17s52 30.333 72 57c14.667 18.667 26.167 40 34.5 64s12.5 47.667 12.5 71c0 26.667 -4.33301 51.334 -13 74.001s-20.667 42.5 -36 59.5s-33.833 30.833 -55.5 41.5
s-45.5 17.334 -71.5 20.001c-3.33301 0 -7.16602 0.166992 -11.499 0.5s-9.16602 0.5 -14.499 0.5c-18 0 -36 -1.66699 -54 -5s-35.333 -8.66602 -52 -15.999c-1.33301 -1.33301 -3.66602 -2 -6.99902 -2s-6.66602 1 -9.99902 3c-6 4.66699 -8.33301 10 -7 16l16 93
c0.666992 5.33301 2.83398 9 6.50098 11s7.83398 3 12.501 3c4.66699 -1.33301 8.33398 -3.66602 11.001 -6.99902s3.33398 -7.33301 2.00098 -12l-10 -65c10.667 3.33301 23.667 6.5 39 9.5s33 4.5 53 4.5c4.66699 0 9.33398 -0.166992 14.001 -0.5s9.66699 -0.5 15 -0.5
c30.667 -2.66699 58.5 -10.334 83.5 -23.001s46.667 -29.167 65 -49.5s32.5 -43.833 42.5 -70.5s15 -55 15 -85c0 -24 -4.33301 -50.167 -13 -78.5s-22.667 -54.666 -42 -78.999s-44.333 -44.5 -75 -60.5s-68.334 -24 -113.001 -24c-28.667 0 -55.834 4.33301 -81.501 13
s-48.667 20.834 -69 36.501s-37.833 34.834 -52.5 57.501s-25.334 48 -32.001 76c-1.33301 4.66699 -0.833008 8.83398 1.5 12.501s5.83301 6.16699 10.5 7.5zM161.994 609.993h367.998c10.667 0 16 -5.66699 16 -17c0 -10.667 -5.33301 -16 -16 -16h-354l-35 -230l60 -15
c14 18.667 31.5 32.667 52.5 42s43.167 14 66.5 14c22 0 42.333 -4 61 -12s34.667 -19 48 -33s23.833 -30.5 31.5 -49.5s11.5 -39.167 11.5 -60.5s-4 -41.333 -12 -60s-18.833 -35 -32.5 -49s-29.667 -25.167 -48 -33.5s-37.833 -12.5 -58.5 -12.5
c-38.667 0 -70.834 9 -96.501 27s-41.167 42.667 -46.5 74c-1.33301 4.66699 -0.666016 8.66699 2.00098 12s6.33398 5.66602 11.001 6.99902c11.333 0 18 -4.33301 20 -13c4 -23.333 15.667 -41.666 35 -54.999c21.333 -12.667 46.333 -19 75 -19
c16 0 31.167 3.16699 45.5 9.5s26.833 15 37.5 26s19.167 24 25.5 39s9.5 30.833 9.5 47.5c0 17.333 -3 33.333 -9 48s-14.167 27.5 -24.5 38.5s-22.833 19.667 -37.5 26s-30.667 9.5 -48 9.5c-42 0 -75 -17 -99 -51c-3.33301 -4.66699 -7.66602 -7 -12.999 -7
c-2 0 -3.33301 0.333008 -4 1l-85 21c-10 2 -14.333 8 -13 18l40 259l5 9zM528.992 660.993c-7.33301 2 -12.3311 5.16504 -14.998 9.49805s-3.33398 8.83301 -2.00098 13.5v1c2 8 7.66699 12 17 12c2.66699 0 4.66699 -0.333008 6 -1
c4.66699 -1.33301 8 -4.16602 10 -8.49902s2.33301 -9.16602 1 -14.499c-2.66699 -8 -8.33398 -12 -17.001 -12z" />
    <glyph glyph-name="six" unicode="6" horiz-adv-x="655" 
d="M81 244c0 4.66699 1.67188 8.66602 5.00488 11.999s7.33301 5 12 5s8.5 -1.66699 11.5 -5s4.5 -7.33301 4.5 -12c0 -29.333 5.66699 -56.833 17 -82.5s26.666 -48.167 45.999 -67.5s42 -34.666 68 -45.999s53.667 -17 83 -17s56.833 5.66699 82.5 17
s48.167 26.666 67.5 45.999s34.666 41.833 45.999 67.5s17 53.167 17 82.5c0 46 -12.167 86.333 -36.5 121s-57.5 60.667 -99.5 78c-16 5.33301 -31.667 9 -47 11s-31.333 3 -48 3c-6.66699 0 -11.667 3 -15 9s-3.33301 11.667 0 17l14.5 21l36.5 52l49 67.5l53 69.5
c3.33301 4 7.66602 6 12.999 6c4 0 7.33301 -1 10 -3c3.33301 -3.33301 5.5 -7.16602 6.5 -11.499s-0.166992 -8.5 -3.5 -12.5c-12.667 -15.333 -25.334 -31.666 -38.001 -48.999l-37 -50.5l-33 -46l-26 -36.5c33.333 -2.66699 64.166 -10.667 92.499 -24
s53 -30.833 74 -52.5s37.5 -46.834 49.5 -75.501s18 -60 18 -94s-6.5 -65.833 -19.5 -95.5s-30.667 -55.667 -53 -78s-48.333 -40 -78 -53s-61.5 -19.5 -95.5 -19.5s-66 6.5 -96 19.5s-56.167 30.667 -78.5 53s-40 48.333 -53 78s-19.5 61.5 -19.5 95.5zM96.0049 316.999
c-2 4.66699 -2.33398 9.33105 -1.00098 13.998c8.66699 22 21.167 47 37.5 75s33.833 56.5 52.5 85.5s37.667 57 57 84l51 70.5c4 4.66699 8.66699 7 14 7c3.33301 0 6.33301 -1 9 -3c4 -3.33301 6.33301 -7.16602 7 -11.499s-0.333008 -8.16602 -3 -11.499l-75 -106.5
c-21.333 -31 -39.333 -58.167 -54 -81.5s-26.5 -43.333 -35.5 -60s-16.167 -30.667 -21.5 -42l68 -14c13.333 21.333 31.166 38.166 53.499 50.499s46.5 18.5 72.5 18.5c20 0 39 -3.83301 57 -11.5s33.667 -18.167 47 -31.5s23.833 -29 31.5 -47s11.5 -37.333 11.5 -58
c0 -20 -3.83301 -39 -11.5 -57s-18.167 -33.833 -31.5 -47.5s-29 -24.334 -47 -32.001s-37 -11.5 -57 -11.5c-18.667 0 -36.5 3.33301 -53.5 10s-32.167 15.834 -45.5 27.501s-24.166 25.5 -32.499 41.5s-13.5 33.333 -15.5 52c-1.33301 10.667 3.33398 16.667 14.001 18
s16.667 -3.33398 18 -14.001c3.33301 -29.333 15.833 -53.666 37.5 -72.999s47.5 -29 77.5 -29c16 0 30.833 3 44.5 9s25.667 14.333 36 25s18.5 22.834 24.5 36.501s9 28.5 9 44.5s-3 31 -9 45s-14.167 26.167 -24.5 36.5s-22.333 18.5 -36 24.5s-28.5 9 -44.5 9
c-22 0 -42.167 -5.5 -60.5 -16.5s-32.5 -26.167 -42.5 -45.5c-2 -4 -4.5 -6.5 -7.5 -7.5s-6.5 -1.5 -10.5 -1.5l-100 21c-5.33301 1.33301 -9 4 -11 8zM323.004 687.996c2 8 7.66699 12.001 17 12.001c2.66699 0 4.66699 -0.333008 6 -1c4.66699 -1.33301 8 -4.33301 10 -9
s2.33301 -9.33398 1 -14.001c-3.33301 -8.66699 -9 -13 -17 -13c-8 2.66699 -13.333 6.16699 -16 10.5s-3 8.83301 -1 13.5v1z" />
    <glyph glyph-name="seven" unicode="7" horiz-adv-x="579" 
d="M262 -1c-7.33301 2.66699 -12.168 6.16699 -14.501 10.5s-2.5 8.5 -0.5 12.5l249 575c3.33301 6.66699 8.33301 10 15 10c1.33301 0 2.5 -0.166992 3.5 -0.5s2.16699 -0.5 3.5 -0.5c4 -2 6.83301 -5.16699 8.5 -9.5s1.83398 -8.5 0.500977 -12.5l-250 -575
c-3.33301 -6.66699 -8.33301 -10 -15 -10zM335.998 576h-244c-10.667 0 -16 5.33301 -16 16c0 11.333 5.33301 17 16 17h244c10.667 0 16 -5.66699 16 -17c0 -10.667 -5.33301 -16 -16 -16zM151.998 -1c-0.666992 0 -2.99902 0.667969 -6.99902 2.00098
s-6.83301 4.16602 -8.5 8.49902s-1.5 8.83301 0.5 13.5l298 641h-286c-4.66699 0 -8.66699 1.5 -12 4.5s-5 6.83301 -5 11.5c0 5.33301 1.66699 9.5 5 12.5s7.33301 4.5 12 4.5h312c6 0 10.667 -2.66699 14 -8c3.33301 -4 3.66602 -9 0.999023 -15l-309 -665
c-3.33301 -6.66699 -8.33301 -10 -15 -10zM92.999 662.001c-7.33301 2.66699 -12.332 6.16504 -14.999 10.498s-3.33398 8.83301 -2.00098 13.5v1c3.33301 8 9 12 17 12c2.66699 0 4.66699 -0.333008 6 -1c4.66699 -1.33301 8 -4.16602 10 -8.49902
s2.33301 -9.16602 1 -14.499c-2 -8.66699 -7.66699 -13 -17 -13z" />
    <glyph glyph-name="eight" unicode="8" horiz-adv-x="681" 
d="M340 701c26.667 0 51.835 -4.16113 75.502 -12.4941s44.5 -20.333 62.5 -36s32.333 -34.5 43 -56.5s16 -47 16 -75c0 -32.667 -5.16699 -59.834 -15.5 -81.501s-21.166 -38.5 -32.499 -50.5c-12 -13.333 -23 -23 -33 -29s-15.333 -9.33301 -16 -10l-10.5 -4.5
c-7 -3 -15.833 -7 -26.5 -12l-36.5 -17l-41.5 -19.5c-10 -4.66699 -20.333 -9.83398 -31 -15.501s-20.5 -12 -29.5 -19s-16.333 -14.833 -22 -23.5s-8.5 -18 -8.5 -28c0 -20.667 9 -40 27 -58c20.667 -18.667 46 -28 76 -28c32 0 58.333 8.16699 79 24.5
s31 37.166 31 62.499c0 19.333 -6.66699 36.666 -20 51.999c-3.33301 3.33301 -4.83301 7.16602 -4.5 11.499s2.16602 8.16602 5.49902 11.499c2.66699 2.66699 6.33398 4 11.001 4c6.66699 0 12.5 -3.16699 17.5 -9.5s9.16699 -13.833 12.5 -22.5s6 -17.5 8 -26.5
s3 -15.833 3 -20.5c0 -16.667 -3.66699 -32.334 -11 -47.001s-17.333 -27.5 -30 -38.5s-27.667 -19.5 -45 -25.5s-36.333 -9 -57 -9c-16.667 0 -33.167 2.83301 -49.5 8.5s-30.833 13.667 -43.5 24s-23 22.833 -31 37.5s-12 31 -12 49c0 15.333 3.66699 29 11 41
s16.333 22.667 27 32s22.5 17.5 35.5 24.5l35.5 18.5l41.5 19.5l36.5 17c10.667 5 19.5 9 26.5 12s10.833 4.5 11.5 4.5c0.666992 0.666992 5.16699 3.33398 13.5 8.00098s17.166 12.667 26.499 24c25.333 29.333 38 65.666 38 108.999c0 22.667 -4.5 43.167 -13.5 61.5
s-21 33.833 -36 46.5s-32.333 22.334 -52 29.001s-40.5 10 -62.5 10c-21.333 0 -41.833 -3.33301 -61.5 -10s-37 -16.167 -52 -28.5s-27 -27.5 -36 -45.5s-13.5 -38.333 -13.5 -61c0 -27.333 6 -52.666 18 -75.999c2 -4 2.33301 -8.16699 1 -12.5s-4 -7.5 -8 -9.5
c-1.33301 -1.33301 -4 -2 -8 -2c-6.66699 0 -12.334 4.33301 -17.001 13s-8.33398 18.667 -11.001 30s-4.66699 22.5 -6 33.5s-2 18.833 -2 23.5c0 27.333 5.33301 52 16 74s25 40.667 43 56s38.833 27.166 62.5 35.499s48.5 12.5 74.5 12.5zM339.001 -2.99414
c-33.333 0 -64.5059 5.32715 -93.5059 15.9941s-54.333 25.167 -76 43.5s-38.667 40 -51 65s-18.5 51.833 -18.5 80.5c0 56 22.333 104.333 67 145c15.333 14.667 29.833 25.334 43.5 32.001l22.5 11l102 43l27.5 11c9.66699 4 18.334 9 26.001 15s14 13 19 21
s7.5 17.667 7.5 29c0 20.667 -7.33301 38.167 -22 52.5s-32.334 21.5 -53.001 21.5c-20 0 -37.333 -7.16699 -52 -21.5s-22 -31.5 -22 -51.5c0 -10 2 -20 6 -30c1.33301 -4 1.16602 -8.16699 -0.500977 -12.5s-4.5 -7.16602 -8.5 -8.49902
c-1.33301 -0.666992 -3.33301 -1 -6 -1c-5.33301 0 -9.66602 2 -12.999 6s-5.83301 8.66699 -7.5 14s-2.66699 11 -3 17s-0.5 11 -0.5 15c0 14.667 2.83301 28.334 8.5 41.001s13.334 23.834 23.001 33.501s21 17.334 34 23.001s26.833 8.5 41.5 8.5
s28.5 -2.83301 41.5 -8.5s24.5 -13.334 34.5 -23.001s17.833 -21 23.5 -34s8.5 -26.833 8.5 -41.5c0 -15.333 -3 -28.666 -9 -39.999s-13.667 -21.166 -23 -29.499s-20 -15.5 -32 -21.5s-24.333 -11.333 -37 -16l-102 -43c-6 -2.66699 -12 -5.66699 -18 -9
s-12.167 -7.33301 -18.5 -12s-13.166 -10 -20.499 -16c-36.667 -34.667 -55 -74.667 -55 -120c0 -24 5.33301 -46.5 16 -67.5s25.334 -39.167 44.001 -54.5s40.5 -27.5 65.5 -36.5s51.833 -13.5 80.5 -13.5s55.667 4.5 81 13.5s47.5 21.333 66.5 37s34 33.834 45 54.501
s16.5 43 16.5 67c0 11.333 -0.833008 22 -2.5 32s-4.16699 19.667 -7.5 29c-1.33301 4.66699 -1 9 1 13s5 6.66699 9 8c1.33301 0 2.33301 0.166992 3 0.5s1.66699 0.5 3 0.5c6 0 10.833 -3.5 14.5 -10.5s6.33398 -15.333 8.00098 -25s2.83398 -19 3.50098 -28
s1 -15.5 1 -19.5c0 -28 -6.33301 -54.5 -19 -79.5s-30 -46.833 -52 -65.5s-47.667 -33.334 -77 -44.001s-60.666 -16 -93.999 -16zM509.995 324c3.33301 8 9.00098 12.001 17.001 12.001c2.66699 0 4.66699 -0.333008 6 -1c4.66699 -1.33301 8.16699 -4.33301 10.5 -9
s2.5 -9.33398 0.5 -14.001c-2 -8.66699 -7.66699 -13 -17 -13c-7.33301 2.66699 -12.333 6.16699 -15 10.5s-3.33398 8.83301 -2.00098 13.5v1z" />
    <glyph glyph-name="nine" unicode="9" horiz-adv-x="646" 
d="M77 456c0 34 6.49707 65.835 19.4971 95.502s30.667 55.667 53 78s48.333 40 78 53s61.5 19.5 95.5 19.5s65.833 -6.5 95.5 -19.5s55.667 -30.667 78 -53s40 -48.333 53 -78s19.5 -61.5 19.5 -95.5c0 -11.333 -5.33301 -17 -16 -17c-11.333 0 -17 5.66699 -17 17
c0 29.333 -5.66699 56.833 -17 82.5s-26.666 48.167 -45.999 67.5s-41.833 34.666 -67.5 45.999s-53.167 17 -82.5 17s-56.833 -5.66699 -82.5 -17s-48.167 -26.666 -67.5 -45.999s-34.666 -41.833 -45.999 -67.5s-17 -53.167 -17 -82.5c0 -34 6 -64.167 18 -90.5
s28.5 -48.666 49.5 -66.999s45.5 -32.333 73.5 -42s58 -14.5 90 -14.5c6 1.33301 11 -1.33398 15 -8.00098c3.33301 -6.66699 3 -12.334 -1 -17.001c0 -0.666992 -4.83301 -7.83398 -14.5 -21.501l-36.5 -51.5l-49 -67.5l-53 -69.5
c-3.33301 -4.66699 -7.66602 -7 -12.999 -7c-2.66699 -0 -6 1.33301 -10 4c-8.66699 7.33301 -9.33398 15 -2.00098 23l37.5 49.5l37.5 50.5l33 46.5l25 36.5c-33.333 2.66699 -64.166 10.5 -92.499 23.5s-52.833 30.167 -73.5 51.5s-37 46.5 -49 75.5s-18 60.833 -18 95.5z
M553.997 382.002c2.66699 -4 2.99902 -8.66602 0.999023 -13.999c-8.66699 -21.333 -21.167 -46 -37.5 -74s-33.833 -56.5 -52.5 -85.5s-37.667 -57 -57 -84l-51 -70.5c-2.66699 -4.66699 -7 -7 -13 -7c-3.33301 0 -6.66602 1 -9.99902 3
c-3.33301 3.33301 -5.5 7.16602 -6.5 11.499s0.166992 8.16602 3.5 11.499l75.5 106.5c21 31 38.667 58.167 53 81.5s26.166 43.333 35.499 60s16.333 30.334 21 41.001l-68 15c-13.333 -21.333 -31.166 -38.166 -53.499 -50.499s-46.166 -18.5 -71.499 -18.5
c-20.667 0 -40 3.83301 -58 11.5s-33.667 18.167 -47 31.5s-23.833 29 -31.5 47s-11.5 37.333 -11.5 58c0 20 3.83301 39 11.5 57s18.167 33.667 31.5 47s29 23.833 47 31.5s37.333 11.5 58 11.5c18.667 0 36.5 -3.33301 53.5 -10s32 -15.834 45 -27.501
s23.833 -25.5 32.5 -41.5s14 -33.333 16 -52c0.666992 -4.66699 -0.5 -8.66699 -3.5 -12s-6.83301 -5.33301 -11.5 -6s-8.66699 0.5 -12 3.5s-5.33301 6.83301 -6 11.5c-3.33301 29.333 -15.833 53.5 -37.5 72.5s-47.167 28.5 -76.5 28.5c-16 0 -30.833 -3 -44.5 -9
s-25.834 -14.167 -36.501 -24.5s-19 -22.333 -25 -36s-9 -28.5 -9 -44.5s3 -31 9 -45s14.333 -26.167 25 -36.5s22.834 -18.5 36.501 -24.5s28.5 -9 44.5 -9c21.333 0 41.166 5.5 59.499 16.5s32.5 26.167 42.5 45.5c3.33301 6 8.33301 9 15 9
c1.33301 0 2.33301 -0.333008 3 -1l100 -20c5.33301 -1.33301 9 -4.33301 11 -9zM310.996 1.00293c-7.33301 2 -12.3311 5.16504 -14.998 9.49805s-3.33398 8.83301 -2.00098 13.5v1c3.33301 8 9 12 17 12c2.66699 0 4.66699 -0.333008 6 -1
c4.66699 -1.33301 8 -4.16602 10 -8.49902s2.33301 -9.16602 1 -14.499c-2.66699 -8 -8.33398 -12 -17.001 -12z" />
    <glyph glyph-name="colon" unicode=":" horiz-adv-x="295" 
d="M194 553c11.333 0 17 -5.33301 17 -16v-94c0 -10.667 -5.66699 -16 -17 -16h-93c-11.333 0 -17 5.33301 -17 16v94c0 10.667 5.66699 16 17 16h93zM178 460v60h-61v-60h61zM84 101v94c0 10.667 5.66699 16 17 16h93c11.333 0 17 -5.33301 17 -16v-94
c0 -10.667 -5.66699 -16 -17 -16h-93c-11.333 0 -17 5.33301 -17 16zM117 178v-60h61v60h-61z" />
    <glyph glyph-name="semicolon" unicode=";" horiz-adv-x="303" 
d="M195 551c4.66699 0 8.66699 -1.66699 12 -5s5 -7.33301 5 -12v-94c0 -4.66699 -1.66699 -8.5 -5 -11.5s-7.33301 -4.5 -12 -4.5h-94c-10.667 0 -16 5.33301 -16 16v94c0 4.66699 1.5 8.66699 4.5 12s6.83301 5 11.5 5h94zM179 457v61h-61v-61h61zM59 38l29.001 157
c1.33301 9.33301 6.66602 14 15.999 14h91c6 0 10.667 -2.66699 14 -8c3.33301 -4.66699 4 -9.66699 2 -15l-59 -157c-2.66699 -7.33301 -7.66699 -11 -15 -11h-61c-6 0 -10.333 2 -13 6s-4 8.66699 -4 14zM118.001 176l-23 -125h30l47 125h-54z" />
    <glyph glyph-name="less" unicode="&#x3c;" horiz-adv-x="519" 
d="M451 648c6 -2 9.00098 -6.66797 9.00098 -14.001v-147c0 -6 -2.33301 -10.667 -7 -14l-210 -146l208 -112c6 -2.66699 9 -7.66699 9 -15v-146c0 -6.66699 -2.66699 -11.667 -8 -15c-4 -1.33301 -6.66699 -2 -8 -2c-2 0 -5 0.666992 -9 2l-390 218
c-5.33301 3.33301 -8 8 -8 14v107c0 6.66699 2.33301 11.334 7 14.001l390 256c2 1.33301 5.33301 2 10 2c3.33301 0 5.66602 -0.666992 6.99902 -2zM427.001 494.999l0.000976562 108l-357 -234v-88l357 -199v108l-224 120c-5.33301 3.33301 -8 8 -8 14
c-0.666992 5.33301 1.66602 10.333 6.99902 15z" />
    <glyph glyph-name="equal" unicode="=" horiz-adv-x="566" 
d="M511 481v-94c0 -4.66699 -1.5 -8.66699 -4.5 -12s-7.16699 -5 -12.5 -5h-422c-5.33301 0 -9.5 1.66699 -12.5 5s-4.5 7.33301 -4.5 12v94c0 10.667 5.66699 16 17 16h422c11.333 0 17 -5.33301 17 -16zM478 403v61h-390v-61h390zM511 137c0 -10.667 -5.66699 -16 -17 -16
h-422c-11.333 0 -17 5.33301 -17 16v94c0 4.66699 1.5 8.66699 4.5 12s7.16699 5 12.5 5h422c5.33301 0 9.5 -1.66699 12.5 -5s4.5 -7.33301 4.5 -12v-94zM478 154v61h-390v-61h390z" />
    <glyph glyph-name="greater" unicode="&#x3e;" horiz-adv-x="519" 
d="M474 431c5.33301 -3.33301 8 -8.33105 8 -14.998v-107c0 -6.66699 -2.33301 -11.334 -7 -14.001l-390 -255c-2.66699 -2 -5.66699 -3 -9 -3c-11.333 0 -17 5.66699 -17 17v147c0 5.33301 2.33301 9.66602 7 12.999l210 147l-208 112c-6 3.33301 -9 8 -9 14v147
c0 5.33301 1.66699 9.33301 5 12s7.33301 4 12 4c3.33301 0 6 -0.666992 8 -2zM449 318.002v88l-357 200v-109l224 -120c5.33301 -3.33301 8 -8 8 -14c1.33301 -6 -1 -10.667 -7 -14l-225 -157v-108z" />
    <glyph glyph-name="question" unicode="?" horiz-adv-x="603" 
d="M262 0c-10.667 0 -16 5.66699 -16 17v93c0 4.66699 1.5 8.66699 4.5 12s6.83301 5 11.5 5h94c4.66699 0 8.5 -1.66699 11.5 -5s4.5 -7.33301 4.5 -12v-93c0 -11.333 -5.33301 -17 -16 -17h-94zM279 94v-61h60v61h-60zM252 274c6 26.667 15.1689 51.334 27.502 74.001
s24.833 42.167 37.5 58.5s23.834 29.5 33.501 39.5s15.5 15.667 17.5 17c11.333 10.667 17 23.667 17 39c0 20.667 -8.16699 38.167 -24.5 52.5s-36.166 21.5 -59.499 21.5c-11.333 0 -22.333 -2 -33 -6s-20.167 -9.5 -28.5 -16.5s-15 -15 -20 -24s-7.5 -18.5 -7.5 -28.5
c0 -10.667 -5.33301 -16 -16 -16c-4.66699 0 -8.66699 1.5 -12 4.5s-5 6.83301 -5 11.5c0 16 3.66699 30.5 11 43.5s16.666 24.333 27.999 34s24.333 17.167 39 22.5s29.334 8 44.001 8c16 0 31.167 -2.83301 45.5 -8.5s26.666 -13.334 36.999 -23.001
s18.666 -21 24.999 -34s9.5 -26.833 9.5 -41.5c0 -24.667 -9 -45.667 -27 -63l-13.5 -13.5c-9 -9 -19.5 -21.167 -31.5 -36.5s-23.833 -33.5 -35.5 -54.5s-20.5 -43.833 -26.5 -68.5c-2 -8.66699 -7.33301 -13 -16 -13c-6.66699 1.33301 -11.334 4 -14.001 8
s-3.33398 8.33301 -2.00098 13zM472.002 391l-15.5 -16.498c-10.333 -11 -21.5 -25 -33.5 -42s-23 -35.833 -33 -56.5s-15 -41.334 -15 -62.001c0 -4.66699 -1.66699 -8.5 -5 -11.5s-7.33301 -4.5 -12 -4.5c-10.667 0 -16 5.33301 -16 16c0 23.333 5 46.333 15 69
s21.333 43.334 34 62.001s24.667 34.167 36 46.5s18.333 19.833 21 22.5c23.333 28.667 35 62 35 100c0 24.667 -5.33301 46.167 -16 64.5s-24.667 33.666 -42 45.999s-36.833 21.5 -58.5 27.5s-43.5 9 -65.5 9c-25.333 0 -49 -3.33301 -71 -10
s-41.167 -16.834 -57.5 -30.501s-29.166 -30.5 -38.499 -50.5s-14 -43.333 -14 -70c0 -10.667 -5.33301 -16 -16 -16c-4.66699 0 -8.66699 1.5 -12 4.5s-5 6.83301 -5 11.5c0 30.667 5.66699 58.167 17 82.5s26.666 44.666 45.999 60.999s42 28.833 68 37.5s53.667 13 83 13
c26.667 0 52.834 -3.83301 78.501 -11.5s48.667 -19.167 69 -34.5s36.666 -34.166 48.999 -56.499s18.5 -48.166 18.5 -77.499c0 -46.667 -14.333 -87.334 -43 -122.001zM256.002 197.002c-5.33301 2 -9 5.16504 -11 9.49805s-2 8.83301 0 13.5v1c2 8 7.66699 12 17 12
c2.66699 0 4.66699 -0.333008 6 -1c4.66699 -1.33301 8 -4.16602 10 -8.49902s2.33301 -9.16602 1 -14.499c-3.33301 -8.66699 -9 -13 -17 -13z" />
    <glyph glyph-name="at" unicode="@" horiz-adv-x="846" 
d="M428 -66c-47.333 0 -92.1641 5.16602 -134.497 15.499s-80.5 26.5 -114.5 48.5s-62.833 50.5 -86.5 85.5s-40.834 76.833 -51.501 125.5c-1.33301 4.66699 -0.833008 8.83398 1.5 12.501s5.83301 6.16699 10.5 7.5c11.333 0 18 -4.33301 20 -13
c10 -46 26.167 -85 48.5 -117s49 -57.667 80 -77s65.667 -33.333 104 -42s79.166 -13 122.499 -13c28.667 0 57.167 2 85.5 6s55.833 10.667 82.5 20s52 21.5 76 36.5s45.667 33.833 65 56.5c3.33301 4 7.66602 6 12.999 6c4 0 7.33301 -1.33301 10 -4
c8.66699 -7.33301 9.33398 -15 2.00098 -23c-20.667 -24.667 -43.834 -45.334 -69.501 -62.001s-53 -30.167 -82 -40.5s-58.833 -17.666 -89.5 -21.999s-61.667 -6.5 -93 -6.5zM428.002 32.999c-104.667 0 -180.001 26.0039 -226.001 78.0039s-69 127 -69 225h-87
c-4.66699 0 -8.66699 1.5 -12 4.5s-5 6.83301 -5 11.5c0 23.333 0.666992 45.666 2 66.999s4 42.166 8 62.499s9.66699 40.666 17 60.999s17.333 40.833 30 61.5c17.333 29.333 38 54.666 62 75.999s50.333 38.666 79 51.999s58.834 23.166 90.501 29.499
s64.167 9.5 97.5 9.5c136.667 0 237.834 -32.167 303.501 -96.5s98.5 -163.833 98.5 -298.5c0 -17.333 -0.333008 -34.5 -1 -51.5s-2.66699 -33.5 -6 -49.5s-8.83301 -31.333 -16.5 -46s-18.167 -28.334 -31.5 -41.001c-33.333 -29.333 -72.333 -44 -117 -44
c-21.333 0 -42.833 3.16699 -64.5 9.5s-40.5 16.833 -56.5 31.5c-16.667 -21.333 -36.167 -35.166 -58.5 -41.499s-46.5 -9.5 -72.5 -9.5c-31.333 0 -58.166 6.16699 -80.499 18.5s-40.5 28.666 -54.5 48.999s-24.333 43.666 -31 69.999s-10 53.5 -10 81.5
c0 27.333 3.16699 54.333 9.5 81s16.333 50.334 30 71.001s31.5 37.334 53.5 50.001s48.667 19 80 19c24 0 45 -4 63 -12s34.667 -21.333 50 -40c2.66699 -3.33301 3.66699 -7.33301 3 -12s-2.66699 -8.33398 -6 -11.001c-2.66699 -2.66699 -6 -4 -10 -4
c-6 0 -10.333 2.33301 -13 7c-12 14.667 -24.667 24.834 -38 30.501s-29.666 8.5 -48.999 8.5c-26.667 0 -49 -5.5 -67 -16.5s-32.333 -25.5 -43 -43.5s-18.334 -38.167 -23.001 -60.5s-7 -44.833 -7 -67.5c0 -23.333 2.5 -46.166 7.5 -68.499s13 -42.166 24 -59.499
s25.667 -31.333 44 -42s40.833 -16 67.5 -16c26 0 48.167 3.16699 66.5 9.5s34.833 20.5 49.5 42.5c2 4 6.33301 6.66699 13 8c4.66699 0 9.33398 -2.33301 14.001 -7c7.33301 -9.33301 20.666 -19.333 39.999 -30c18 -8.66699 41 -13 69 -13
c41.333 0 73.833 12.833 97.5 38.5s36.834 58.167 39.501 97.5c0.666992 10 1.16699 20.333 1.5 31s0.5 21.334 0.5 32.001c0 127.333 -30.333 219.5 -91 276.5s-153.334 85.5 -278.001 85.5c-48 0 -92.333 -6.83301 -133 -20.5s-76.334 -33.334 -107.001 -59.001
s-55.5 -57.167 -74.5 -94.5s-30.833 -80 -35.5 -128c-1.33301 -7.33301 -2 -16.5 -2 -27.5s-0.333008 -24.167 -1 -39.5h87c4.66699 0 8.66699 -1.5 12 -4.5s5 -7.16699 5 -12.5c0 -33.333 1 -59.666 3 -78.999c7.33301 -70 32.166 -122 74.499 -156s103.833 -51 184.5 -51
c30 0 57 1.5 81 4.5s49.333 10.833 76 23.5c1.33301 1.33301 3.66602 2 6.99902 2c6.66699 0 11.667 -2.66699 15 -8c4.66699 -10.667 2.33398 -18.334 -6.99902 -23.001c-28 -14 -55.833 -22.833 -83.5 -26.5s-57.167 -5.5 -88.5 -5.5zM413.001 233.003
c-17.333 0 -31.833 3.50098 -43.5 10.501s-21.167 16 -28.5 27s-12.5 23.667 -15.5 38s-4.5 29.166 -4.5 44.499s1.33301 30.333 4 45s7.5 27.667 14.5 39s16.5 20.333 28.5 27s27 10 45 10c18.667 0 34 -3.33301 46 -10s21.5 -15.5 28.5 -26.5s11.833 -23.833 14.5 -38.5
s4 -30 4 -46s-1.33301 -31.167 -4 -45.5s-7.66699 -27 -15 -38s-17 -19.833 -29 -26.5s-27 -10 -45 -10zM413.001 441.004c-20 0 -34.334 -6.33398 -43.001 -19.001c-10.667 -13.333 -16 -36.333 -16 -69c0 -10 0.833008 -20.167 2.5 -30.5s4.5 -19.666 8.5 -27.999
s9.83301 -15.166 17.5 -20.499s17.834 -8 30.501 -8c13.333 0 24 2.5 32 7.5s14 11.5 18 19.5s6.66699 17.167 8 27.5s2 21.166 2 32.499c0 32.667 -5 56 -15 70c-10 12 -25 18 -45 18zM645 243.003c-23.333 0 -40.498 8.16797 -51.498 24.501s-16.5 35.166 -16.5 56.499
v202h-36c-10.667 0 -16 5.66699 -16 17c0 10.667 5.33301 16 16 16h52c4.66699 0 8.66699 -1.5 12 -4.5s5 -6.83301 5 -11.5v-219c0 -12 2.33301 -23 7 -33s14 -15 28 -15c8 0 13.833 1.33301 17.5 4s6.16699 5 7.5 7c6 10 9 22.333 9 37c0.666992 6 1 13.833 1 23.5v34.5
c0 24.667 -1 48.834 -3 72.501s-6.66699 45.667 -14 66s-18.5 38.666 -33.5 54.999s-35.167 29.833 -60.5 40.5c-38 15.333 -89.333 23 -154 23c-70.667 0 -127.167 -16.833 -169.5 -50.5s-67.833 -86.5 -76.5 -158.5c-0.666992 -4 -2.66699 -7.33301 -6 -10s-7 -4 -11 -4
h-2c-10.667 1.33301 -15.334 7.33301 -14.001 18c10 80 39.167 139.667 87.5 179s112.166 59 191.499 59c44.667 0 84.834 -3.83301 120.501 -11.5s66.167 -20.667 91.5 -39s45.166 -42.833 59.499 -73.5s22.833 -69 25.5 -115c0.666992 -6 1 -13.167 1 -21.5v-29.5v-35
c0 -10 -0.333008 -18 -1 -24c0 -21.333 -5.16699 -40 -15.5 -56s-27.5 -24 -51.5 -24zM49.002 250.004c-8 2 -13.333 5.16699 -16 9.5s-3 9.16602 -1 14.499c2 8 7.66699 12 17 12c2.66699 0 4.66699 -0.333008 6 -1c4.66699 -1.33301 8 -4.16602 10 -8.49902
s2.33301 -8.83301 1 -13.5v-1c-3.33301 -8 -9 -12 -17 -12z" />
    <glyph glyph-name="A" unicode="A" horiz-adv-x="684" 
d="M49 1c-13.333 4 -18.335 11.333 -15.002 22l246 661c3.33301 7.33301 8.66602 11 15.999 11h14c7.33301 0 12.666 -3.66699 15.999 -11l119 -363c1.33301 -4.66699 1 -9 -1 -13s-5.33301 -6.66699 -10 -8c-1.33301 0 -2.16602 -0.166992 -2.49902 -0.5
s-1.16602 -0.5 -2.49902 -0.5c-7.33301 0 -12.666 4 -15.999 12l-111 338l-237 -638c-3.33301 -6.66699 -8.66602 -10 -15.999 -10zM614.998 1c-7.33301 0 -12.667 3.33301 -16 10l-80 218h-222c-5.33301 0 -9.5 1.66699 -12.5 5s-4.5 7.33301 -4.5 12
c0 10.667 5.66699 16 17 16h234c6.66699 0 11.667 -3 15 -9l84 -230c3.33301 -10.667 0 -17.667 -10 -21zM160.997 54c-13.333 4 -18.335 11.332 -15.002 21.999l139 410c4 7.33301 9.33301 11 16 11c1.33301 0 2.33301 -0.166992 3 -0.5s1.33398 -0.5 2.00098 -0.5
c4.66699 -1.33301 8 -4.16602 10 -8.49902s2.33301 -8.5 1 -12.5l-140 -410c-3.33301 -7.33301 -8.66602 -11 -15.999 -11zM507.995 54.999c-8 0 -12.999 3.66699 -14.999 11l-25 75h-199c-4.66699 0 -8.5 1.66699 -11.5 5s-4.5 7.33301 -4.5 12c0 10.667 5.33301 16 16 16
h211c7.33301 0 12.666 -3.66699 15.999 -11l28 -87c1.33301 -4 1 -8 -1 -12s-5.33301 -6.66699 -10 -8zM504.996 299.999c-7.33301 0 -12.667 3.66699 -16 11l-100 307c-3.33301 10.667 0 17.667 10 21c1.33301 0.666992 3 1 5 1c8 0 13.333 -3.66699 16 -11l101 -307
c1.33301 -4.66699 1 -9 -1 -13s-5.33301 -6.66699 -10 -8zM142.995 -1.00098c-7.33301 2 -12.332 5.16797 -14.999 9.50098s-3.33398 9.16602 -2.00098 14.499c3.33301 8.66699 9 13 17 13c1.33301 0 2.33301 -0.166992 3 -0.5s1.66699 -0.5 3 -0.5
c4.66699 -2 8 -5.16699 10 -9.5s2.33301 -8.83301 1 -13.5v-1c-3.33301 -8 -9 -12 -17 -12z" />
    <glyph glyph-name="B" unicode="B" horiz-adv-x="640" 
d="M108 1c-4.66699 0 -8.66406 1.50195 -11.9971 4.50195s-5 7.16699 -5 12.5v665c0 4.66699 1.66699 8.5 5 11.5s7.33301 4.5 12 4.5h168c30.667 0 60.5 -2.5 89.5 -7.5s54.833 -14.167 77.5 -27.5s40.834 -31.666 54.501 -54.999s20.5 -53.333 20.5 -90
c0 -10.667 -1 -21 -3 -31c-0.666992 -5.33301 -2.83398 -9 -6.50098 -11s-7.83398 -3 -12.501 -3c-4.66699 1.33301 -8.33398 3.66602 -11.001 6.99902s-3.33398 7.33301 -2.00098 12c0.666992 4 1.16699 8.16699 1.5 12.5s0.5 8.83301 0.5 13.5
c0 31.333 -6 56.666 -18 75.999s-28 34.166 -48 44.499s-42.333 17.333 -67 21s-50 5.5 -76 5.5h-152v-648c0 -11.333 -5.33301 -17 -16 -17zM340.003 1.00195h-143.001c-10.667 0 -16 5.33301 -16 16c0 4.66699 1.5 8.66699 4.5 12s6.83301 5 11.5 5h143
c54.667 0 96.167 15.667 124.5 47s42.5 74 42.5 128c0 56.667 -14.5 99.167 -43.5 127.5s-71.5 42.5 -127.5 42.5h-62c-4.66699 0 -8.66699 1.5 -12 4.5s-5 6.83301 -5 11.5s1.66699 8.66699 5 12s7.33301 5 12 5h62c64.667 0 114.834 -17.333 150.501 -52
s53.5 -85 53.5 -151c0 -63.333 -17.333 -113.833 -52 -151.5s-84 -56.5 -148 -56.5zM314.002 90.002l-118.001 0.000976562c-10.667 0 -16 5.66699 -16 17v491c0 10.667 5.33301 16 16 16h102c28 0 50.333 -3.66699 67 -11s29.5 -16.5 38.5 -27.5s14.833 -22.667 17.5 -35
s4 -23.5 4 -33.5c0 -4 -0.166992 -9.33301 -0.5 -16s-1.5 -13.334 -3.5 -20.001s-4.66699 -12.334 -8 -17.001s-7.66602 -7 -12.999 -7c-3.33301 0 -5.66602 0.333008 -6.99902 1c-4 2 -6.83301 5.16699 -8.5 9.5s-1.5 8.5 0.5 12.5c4.66699 10 7 22.333 7 37
c0 29.333 -9 49 -27 59s-40.333 15 -67 15h-85v-458h101c16 0 30.667 0.666992 44 2s24.666 4.66602 33.999 9.99902s16.5 13.333 21.5 24s7.5 25.334 7.5 44.001s-2.5 33.667 -7.5 45s-12.333 20.333 -22 27s-21 11.167 -34 13.5s-27.5 3.5 -43.5 3.5h-40
c-4.66699 0 -8.5 1.66699 -11.5 5s-4.5 7.33301 -4.5 12c0 10.667 5.33301 16 16 16h40c20.667 0 39.5 -2 56.5 -6s31.667 -10.833 44 -20.5s22 -22.167 29 -37.5s10.5 -34.666 10.5 -57.999c0 -24 -3.5 -43.333 -10.5 -58s-16.667 -26.167 -29 -34.5s-27 -13.833 -44 -16.5
s-35.833 -4 -56.5 -4zM481.001 420.003c-8 2 -13.333 5.16602 -16 9.49902s-3 9.16602 -1 14.499c2 8 7.66699 12 17 12c2.66699 0 4.66699 -0.333008 6 -1c4.66699 -1.33301 8 -4.16602 10 -8.49902s2.33301 -9.16602 1 -14.499c-3.33301 -8 -9 -12 -17 -12z" />
    <glyph glyph-name="C" unicode="C" horiz-adv-x="706" 
d="M151 416c-14 4 -19.334 11.332 -16.001 21.999c8 24 19.333 46.333 34 67s31.667 38.667 51 54s40.833 27.166 64.5 35.499s48.5 12.5 74.5 12.5c33.333 0 64.666 -6.83301 93.999 -20.5s55 -32.834 77 -57.501c3.33301 -3.33301 4.83301 -7.16602 4.5 -11.499
s-2.16602 -8.16602 -5.49902 -11.499c-2.66699 -2.66699 -6.33398 -4 -11.001 -4s-8.66699 1.66699 -12 5c-19.333 21.333 -41.666 37.833 -66.999 49.5s-52 17.5 -80 17.5c-22.667 0 -44.167 -3.66699 -64.5 -11s-38.833 -17.666 -55.5 -30.999
s-31.167 -28.833 -43.5 -46.5s-21.833 -37.167 -28.5 -58.5c-3.33301 -7.33301 -8.66602 -11 -15.999 -11zM358.999 92.999c-33.333 0 -63.9961 6.49902 -91.9961 19.499s-52.5 30.5 -73.5 52.5s-37.833 47.5 -50.5 76.5s-19.667 59.5 -21 91.5h-64
c-10.667 0 -16 5.33301 -16 16c0 45.333 7.83301 89 23.5 131s37.667 79.167 66 111.5s62 58.333 101 78s81.833 29.5 128.5 29.5c34 0 66.5 -5.5 97.5 -16.5s59.333 -26.333 85 -46s48.334 -43 68.001 -70s35.167 -56.167 46.5 -87.5
c1.33301 -4.66699 1.16602 -9.16699 -0.500977 -13.5s-4.83398 -7.16602 -9.50098 -8.49902c-0.666992 0 -1.33398 -0.166992 -2.00098 -0.5s-1.66699 -0.5 -3 -0.5c-6.66699 0 -12 3.66699 -16 11c-10 28 -23.833 54.167 -41.5 78.5s-38 45.5 -61 63.5s-48.333 32 -76 42
s-56.834 15 -87.501 15c-40.667 0 -78.167 -8.33301 -112.5 -25s-64 -39 -89 -67s-44.833 -60 -59.5 -96s-23 -73.333 -25 -112h63c4.66699 0 8.5 -1.66699 11.5 -5s4.5 -7.33301 4.5 -12c0 -28.667 5 -56.5 15 -83.5s24 -50.833 42 -71.5s39.667 -37.167 65 -49.5
s53 -18.5 83 -18.5c39.333 0 75.333 10.667 108 32s57.667 51 75 89c3.33301 6 8.33301 9 15 9c2.66699 0 5 -0.333008 7 -1c4 -2 6.66699 -5.16699 8 -9.5s1.33301 -8.5 0 -12.5c-20 -42 -48.833 -75.833 -86.5 -101.5s-79.834 -38.5 -126.501 -38.5zM361.003 -1.00195
c-36 0 -70.6699 6.33203 -104.003 18.999s-63.666 30.5 -90.999 53.5s-50.833 50.5 -70.5 82.5s-34.167 67 -43.5 105c-1.33301 4.66699 -0.666016 8.83398 2.00098 12.501s6.33398 6.16699 11.001 7.5c4 0 8 -0.833008 12 -2.5s6.33301 -4.83398 7 -9.50098
c8 -32 20.5 -62.333 37.5 -91s37.5 -53.667 61.5 -75s51 -38.166 81 -50.499s62.333 -18.5 97 -18.5c30.667 0 60.167 5.16699 88.5 15.5s54.333 24.833 78 43.5s44.5 41 62.5 67s32 55 42 87c2 8 7.33301 12 16 12c0.666992 0 1.33398 -0.166992 2.00098 -0.5
s1.66699 -0.5 3 -0.5c9.33301 -3.33301 13 -10.333 11 -21c-11.333 -35.333 -27 -67.5 -47 -96.5s-43.333 -53.833 -70 -74.5s-55.834 -36.667 -87.501 -48s-64.5 -17 -98.5 -17zM550 454.997c-7.33301 2 -12.3311 5.16602 -14.998 9.49902
s-3.33398 9.16602 -2.00098 14.499c3.33301 8 9 12 17 12c2.66699 0 4.66699 -0.333008 6 -1c4.66699 -1.33301 8 -4.16602 10 -8.49902s2.33301 -9.16602 1 -14.499c-2.66699 -8 -8.33398 -12 -17.001 -12z" />
    <glyph glyph-name="D" unicode="D" horiz-adv-x="700" 
d="M222 664c-4.66699 0 -8.66992 1.50195 -12.0029 4.50195s-5 6.83301 -5 11.5s1.66699 8.66699 5 12s7.33301 5 12 5h108c28.667 0 56.334 -4.66699 83.001 -14s51.334 -22 74.001 -38s43 -35.167 61 -57.5s32.333 -46.5 43 -72.5c21.333 -50 32 -106.667 32 -170
c0 -46.667 -6 -90.834 -18 -132.501s-30.167 -78 -54.5 -109s-54.833 -55.667 -91.5 -74s-79.667 -27.5 -129 -27.5h-107c-4.66699 0 -8.66699 1.5 -12 4.5s-5 6.83301 -5 11.5v501c0 5.33301 1.66699 9.5 5 12.5s7.33301 4.5 12 4.5c10.667 0 16 -5.66699 16 -17v-484h91
c52.667 0 99.834 13.167 141.501 39.5s72.167 64.166 91.5 113.499c18 44 27 96.333 27 157c0 48 -7.16699 94.167 -21.5 138.5s-39.833 82.833 -76.5 115.5c-27.333 24 -55.833 40.833 -85.5 50.5s-55.167 14.5 -76.5 14.5h-108zM134.997 1.00195
c-4.66699 0 -8.50098 1.66992 -11.501 5.00293s-4.5 7.33301 -4.5 12v577c0 4.66699 1.5 8.66699 4.5 12s6.83301 5 11.5 5h173c46 0 86.833 -12.667 122.5 -38s62.834 -58.333 81.501 -99c15.333 -36.667 23 -77.667 23 -123c0 -28.667 -3.16699 -56.334 -9.5 -83.001
s-16.166 -51.167 -29.499 -73.5s-30.333 -42 -51 -59s-45.334 -30.167 -74.001 -39.5c-12 0 -19 3.66699 -21 11c-1.33301 4.66699 -1 9 1 13s5.33301 6.66699 10 8c10.667 3.33301 24 9.16602 40 17.499s31.5 21 46.5 38s27.833 39 38.5 66s16 60.833 16 101.5
c0 34.667 -5.16699 67.167 -15.5 97.5s-28.5 57.5 -54.5 81.5c-17.333 15.333 -36.833 27.166 -58.5 35.499s-43.5 12.5 -65.5 12.5h-156v-561c0 -4.66699 -1.66699 -8.66699 -5 -12s-7.33301 -5 -12 -5zM310.996 86.0049c-8 2 -13.334 5.16797 -16.001 9.50098
s-3 9.16602 -1 14.499c1.33301 6 4.33301 9.5 9 10.5s9.33398 1.5 14.001 1.5c4.66699 -2 8 -5.16699 10 -9.5s2.33301 -8.83301 1 -13.5v-1c-3.33301 -8 -9 -12 -17 -12z" />
    <glyph glyph-name="E" unicode="E" horiz-adv-x="545" 
d="M95 -2c-4.66699 0 -8.66699 1.66699 -12 5s-5 7.33301 -5 12v290c0 4.66699 1.66699 8.66699 5 12s7.33301 5 12 5h273c4.66699 0 8.66699 -1.66699 12 -5s5 -7.33301 5 -12s-1.66699 -8.5 -5 -11.5s-7.33301 -4.5 -12 -4.5h-257v-258h347c10.667 0 16 -5.33301 16 -16
c0 -4.66699 -1.5 -8.66699 -4.5 -12s-6.83301 -5 -11.5 -5h-363zM95 376c-4.66699 0 -8.66699 1.66699 -12 5s-5 7.33301 -5 12v292c0 4.66699 1.66699 8.66699 5 12s7.33301 5 12 5s8.5 -1.66699 11.5 -5s4.5 -7.33301 4.5 -12v-276h257c4.66699 0 8.66699 -1.5 12 -4.5
s5 -6.83301 5 -11.5s-1.66699 -8.66699 -5 -12s-7.33301 -5 -12 -5h-273zM456 612c4.66699 0 8.66699 -1.66699 12 -5s5 -7.33301 5 -12s-1.66699 -8.5 -5 -11.5s-7.33301 -4.5 -12 -4.5h-259v-112c0 -4.66699 -1.66699 -8.66699 -5 -12s-7.33301 -5 -12 -5
s-8.5 1.66699 -11.5 5s-4.5 7.33301 -4.5 12v128c0 4.66699 1.5 8.66699 4.5 12s6.83301 5 11.5 5h276zM177 666c-4.66699 0 -8.5 1.66699 -11.5 5s-4.5 7.33301 -4.5 12c0 10.667 5.33301 16 16 16h281c4.66699 0 8.66699 -1.5 12 -4.5s5 -6.83301 5 -11.5
s-1.66699 -8.66699 -5 -12s-7.33301 -5 -12 -5h-281zM180 251c4.66699 0 8.66699 -1.5 12 -4.5s5 -7.16699 5 -12.5v-118h200c4.66699 0 8.66699 -1.66699 12 -5s5 -7.33301 5 -12s-1.66699 -8.5 -5 -11.5s-7.33301 -4.5 -12 -4.5h-217c-10.667 0 -16 5.33301 -16 16v135
c0 11.333 5.33301 17 16 17zM459 117c4.66699 -1.33301 8.00098 -4.16602 10.001 -8.49902s2.33301 -8.83301 1 -13.5v-1c-3.33301 -8 -9 -12 -17 -12c-7.33301 2 -12.333 5.16699 -15 9.5s-3.33398 9.16602 -2.00098 14.499c3.33301 8 9 12 17 12
c2.66699 0 4.66699 -0.333008 6 -1z" />
    <glyph glyph-name="F" unicode="F" horiz-adv-x="504" 
d="M156 380c-10.667 0 -16 5.33301 -16 16v126c0 4.66699 1.5 8.66699 4.5 12s6.83301 5 11.5 5s8.66699 -1.66699 12 -5s5 -7.33301 5 -12v-109h257c4.66699 0 8.5 -1.66699 11.5 -5s4.5 -7.33301 4.5 -12c0 -10.667 -5.33301 -16 -16 -16h-274zM154 670
c-10.667 0 -16 5.66699 -16 17c0 10.667 5.33301 16 16 16h282c4.66699 0 8.66699 -1.5 12 -4.5s5 -6.83301 5 -11.5c0 -5.33301 -1.66699 -9.5 -5 -12.5s-7.33301 -4.5 -12 -4.5h-282zM140 17v291c0 5.33301 1.33301 9.33301 4 12c4.66699 3.33301 8.66699 5 12 5h231
c4.66699 0 8.66699 -1.5 12 -4.5s5 -7.16699 5 -12.5c0 -4.66699 -1.66699 -8.5 -5 -11.5s-7.33301 -4.5 -12 -4.5h-214v-275c0 -4.66699 -1.66699 -8.5 -5 -11.5s-7.33301 -4.5 -12 -4.5c-10.667 0 -16 5.33301 -16 16zM66 1c-10.667 0 -16 5.33301 -16 16v581
c0 10.667 5.33301 16 16 16h314c11.333 0 17 -5.33301 17 -16c0 -4.66699 -1.5 -8.66699 -4.5 -12s-7.16699 -5 -12.5 -5h-297v-564c0 -4.66699 -1.66699 -8.5 -5 -11.5s-7.33301 -4.5 -12 -4.5zM442 615c4.66699 -1.33301 8.16797 -4.16797 10.501 -8.50098
s2.5 -9.16602 0.5 -14.499c-2 -8 -7.66699 -12 -17 -12c-7.33301 2 -12.333 5.16699 -15 9.5s-3.33398 8.83301 -2.00098 13.5v1c3.33301 8 9 12 17 12c2.66699 0 4.66699 -0.333008 6 -1z" />
    <glyph glyph-name="G" unicode="G" horiz-adv-x="751" 
d="M173 350c0 -32 4.49902 -62.167 13.499 -90.5s22.167 -52.833 39.5 -73.5s38.833 -37 64.5 -49s55.167 -18 88.5 -18c31.333 0 58.5 5.66699 81.5 17s42.5 26.666 58.5 45.999s28.5 41.666 37.5 66.999s14.5 52 16.5 80h-233c-10.667 0 -16 5.33301 -16 16
c0 4.66699 1.5 8.66699 4.5 12s6.83301 5 11.5 5h250c4.66699 0 8.5 -1.66699 11.5 -5s4.5 -7.33301 4.5 -12c0 -38 -5.5 -72.833 -16.5 -104.5s-26.5 -59 -46.5 -82s-44 -40.833 -72 -53.5s-58.667 -19 -92 -19c-38 0 -72 7 -102 21s-55 33 -75 57s-35.333 52 -46 84
s-16 66 -16 102c0 40 7 76.167 21 108.5s32.333 59.833 55 82.5s48.334 40 77.001 52s57.334 18 86.001 18c22.667 0 45.5 -3.33301 68.5 -10s44.5 -16 64.5 -28c3.33301 -2 5.66602 -5.33301 6.99902 -10s0.666016 -8.66699 -2.00098 -12
c-2.66699 -5.33301 -7.33398 -8 -14.001 -8c-4 0 -6.66699 0.666992 -8 2c-17.333 10.667 -36.166 18.834 -56.499 24.501s-40.166 8.5 -59.499 8.5c-30.667 0 -58.667 -6.5 -84 -19.5s-47 -30.167 -65 -51.5s-32 -45.666 -42 -72.999s-15 -55.333 -15 -84zM484.999 240
h-145c-4.66699 0 -8.5 1.66699 -11.5 5s-4.5 7.33301 -4.5 12c0 10.667 5.33301 16 16 16h145c11.333 0 17 -5.33301 17 -16c0 -4.66699 -1.5 -8.66699 -4.5 -12s-7.16699 -5 -12.5 -5zM379.999 -5c-46 0 -88.8389 9.16699 -128.506 27.5s-74.167 43.5 -103.5 75.5
s-52.5 69.5 -69.5 112.5s-25.5 89.5 -25.5 139.5c0 47.333 8 92.166 24 134.499s38.5 79.333 67.5 111s63.833 56.834 104.5 75.501s85.334 28 134.001 28c28 0 56 -4 84 -12s54.5 -19.167 79.5 -33.5s48 -31.666 69 -51.999s38.5 -42.5 52.5 -66.5
c2.66699 -4 3.33398 -8.16699 2.00098 -12.5s-3.66602 -7.83301 -6.99902 -10.5c-2 -1.33301 -5 -2 -9 -2c-6 0 -10.667 2.66699 -14 8c-13.333 22 -29.333 42 -48 60s-39.167 33.5 -61.5 46.5s-46.166 23.167 -71.499 30.5s-50.666 11 -75.999 11
c-44.667 0 -85.167 -8.33301 -121.5 -25s-67.5 -39.5 -93.5 -68.5s-46.167 -62.667 -60.5 -101s-21.5 -78.833 -21.5 -121.5c0 -44.667 7.5 -86.667 22.5 -126s35.833 -73.333 62.5 -102s57.834 -51.334 93.501 -68.001s74.167 -25 115.5 -25
c46.667 0 87.334 8.66699 122.001 26s63.667 40.833 87 70.5s41.666 63.667 54.999 102s22.666 78.5 27.999 120.5c0.666992 4.66699 2.66699 8.5 6 11.5s7.33301 3.83301 12 2.5c10.667 -1.33301 15.334 -7.33301 14.001 -18c-6 -54.667 -18 -103.5 -36 -146.5
s-40.833 -79.5 -68.5 -109.5s-60 -53 -97 -69s-77.833 -24 -122.5 -24zM546.993 506c-7.33301 2.66699 -12.332 6.16504 -14.999 10.498s-3.33398 8.83301 -2.00098 13.5v1c2 8 7.66699 12 17 12c2.66699 0 4.66699 -0.333008 6 -1c4.66699 -1.33301 8 -4.16602 10 -8.49902
s2.33301 -9.16602 1 -14.499c-3.33301 -8.66699 -9 -13 -17 -13z" />
    <glyph glyph-name="H" unicode="H" horiz-adv-x="663" 
d="M169 223c0 10.667 5.66699 16 17 16c10.667 0 16 -5.33301 16 -16v-203c0 -10.667 -5.33301 -16 -16 -16c-11.333 0 -17 5.33301 -17 16v203zM477 451c-10.667 0 -16 5.33301 -16 16v212c0 4.66699 1.5 8.66699 4.5 12s6.83301 5 11.5 5c5.33301 0 9.5 -1.66699 12.5 -5
s4.5 -7.33301 4.5 -12v-212c0 -10.667 -5.66699 -16 -17 -16zM566 7c-4.66699 0 -8.5 1.66699 -11.5 5s-4.5 7.33301 -4.5 12v586c0 10.667 5.33301 16 16 16c4.66699 0 8.66699 -1.5 12 -4.5s5 -6.83301 5 -11.5v-586c0 -4.66699 -1.66699 -8.66699 -5 -12
s-7.33301 -5 -12 -5zM186 372c-5.33301 0 -9.5 1.66699 -12.5 5s-4.5 7.33301 -4.5 12v291c0 10.667 5.66699 16 17 16c10.667 0 16 -5.33301 16 -16v-275h275c11.333 0 17 -5.33301 17 -16v-308c0 -4.66699 -1.5 -8.66699 -4.5 -12s-7.16699 -5 -12.5 -5
c-4.66699 0 -8.5 1.66699 -11.5 5s-4.5 7.33301 -4.5 12v291h-275zM97 373c-4.66699 0 -8.66699 1.5 -12 4.5s-5 6.83301 -5 11.5v291c0 4.66699 1.66699 8.5 5 11.5s7.33301 4.5 12 4.5c10.667 0 16 -5.33301 16 -16v-291c0 -10.667 -5.33301 -16 -16 -16zM97 7
c-4.66699 0 -8.66699 1.66699 -12 5s-5 7.33301 -5 12v274c0 4.66699 1.66699 8.66699 5 12s7.33301 5 12 5h301c4.66699 0 8.5 -1.66699 11.5 -5s4.5 -7.33301 4.5 -12c0 -10.667 -5.33301 -16 -16 -16h-285v-258c0 -4.66699 -1.5 -8.66699 -4.5 -12s-6.83301 -5 -11.5 -5z
M484 43c4.66699 -2 8.00098 -5.16797 10.001 -9.50098s2.33301 -8.83301 1 -13.5v-1c-3.33301 -8 -9 -12 -17 -12c-7.33301 2 -12.333 5.33301 -15 10s-3.33398 9.33398 -2.00098 14.001c2 8.66699 7.66699 13 17 13c1.33301 0 2.33301 -0.166992 3 -0.5
s1.66699 -0.5 3 -0.5z" />
    <glyph glyph-name="I" unicode="I" horiz-adv-x="275" 
d="M166 73v259h-75c-10.667 0 -16 5.33301 -16 16v335c0 4.66699 1.5 8.66699 4.5 12s6.83301 5 11.5 5s8.66699 -1.66699 12 -5s5 -7.33301 5 -12v-318h74c4.66699 0 8.66699 -1.66699 12 -5s5 -7.33301 5 -12v-275c0 -4.66699 -1.66699 -8.5 -5 -11.5
s-7.33301 -4.5 -12 -4.5c-10.667 0 -16 5.33301 -16 16zM76 258c0 10.667 5.33301 16 16 16c11.333 0 17 -5.33301 17 -16v-242c0 -10.667 -5.66699 -16 -17 -16c-10.667 -0 -16 5.33301 -16 16v242zM199 437c0 -4.66699 -1.66699 -8.5 -5 -11.5s-7.33301 -4.5 -12 -4.5
c-10.667 0 -16 5.33301 -16 16v172c0 4.66699 1.5 8.66699 4.5 12s6.83301 5 11.5 5s8.66699 -1.66699 12 -5s5 -7.33301 5 -12v-172zM176 0c-4.66699 1.33301 -8 4.33301 -10 9s-2.33301 9.33398 -1 14.001v1c3.33301 8 9 12 17 12c1.33301 0 2.33301 -0.166992 3 -0.5
s1.66699 -0.5 3 -0.5c5.33301 -1.33301 9 -4.33301 11 -9s2 -9.33398 0 -14.001v-1c-2 -8 -7.66699 -12 -17 -12z" />
    <glyph glyph-name="J" unicode="J" horiz-adv-x="542" 
d="M98 118c-18.667 34.667 -27.998 75.6689 -27.998 123.002c0 4.66699 1.5 8.66699 4.5 12s7.16699 5 12.5 5c4.66699 0 8.5 -1.66699 11.5 -5s4.5 -7.33301 4.5 -12c0 -34.667 6 -66.5 18 -95.5s32.333 -54.167 61 -75.5c22.667 -16 44.334 -26.5 65.001 -31.5
s34.667 -7.5 42 -7.5c3.33301 -0.666992 6.16602 -1 8.49902 -1h7.5c7.33301 0 15.166 0.5 23.499 1.5s15.5 3.16699 21.5 6.5v541h-171c-4.66699 0 -8.5 1.66699 -11.5 5s-4.5 7.33301 -4.5 12c0 10.667 5.33301 16 16 16h187c4.66699 0 8.66699 -1.5 12 -4.5
s5 -6.83301 5 -11.5v-568c0 -8.66699 -4 -14 -12 -16c-9.33301 -6.66699 -20.333 -10.834 -33 -12.501s-23.667 -2.5 -33 -2.5c-20.667 0 -41.334 2.66699 -62.001 8s-40.167 13.166 -58.5 23.499s-35 23 -50 38s-27.167 32.167 -36.5 51.5zM182.002 202.002
c1.33301 0.666992 3.66602 1 6.99902 1c7.33301 0 12.333 -3 15 -9c8 -17.333 19.833 -32.166 35.5 -44.499s33.167 -20.5 52.5 -24.5c4.66699 -1.33301 8.16699 -3.83301 10.5 -7.5s2.83301 -7.83398 1.5 -12.501c-1.33301 -8.66699 -6.66602 -13 -15.999 -13
c-26 5.33301 -49 15.833 -69 31.5s-35 34.5 -45 56.5c-2 4 -2.16699 8.16699 -0.5 12.5s4.5 7.5 8.5 9.5zM87.002 665.002c-4.66699 0 -8.66699 1.5 -12 4.5s-5 7.16699 -5 12.5c0 4.66699 1.66699 8.5 5 11.5s7.33301 4.5 12 4.5h368c4.66699 0 8.66699 -1.5 12 -4.5
s5 -6.83301 5 -11.5v-544c0 -4.66699 -1.66699 -8.5 -5 -11.5s-7.33301 -4.5 -12 -4.5c-10.667 0 -16 5.33301 -16 16v527h-352zM183.002 259.002c4.66699 -1.33301 8 -4.33203 10 -8.99902s2.33301 -9.33398 1 -14.001c-3.33301 -8.66699 -9 -13 -17 -13
c-8 2.66699 -13.333 6.16699 -16 10.5s-3 8.83301 -1 13.5v1c2 8 7.66699 12 17 12c2.66699 0 4.66699 -0.333008 6 -1z" />
    <glyph glyph-name="K" unicode="K" horiz-adv-x="668" 
d="M121 379c-4.66699 0 -8.5 1.66699 -11.5 5s-4.5 7.33301 -4.5 12v287c0 4.66699 1.5 8.66699 4.5 12s6.83301 5 11.5 5s8.66699 -1.66699 12 -5s5 -7.33301 5 -12v-287c0 -4.66699 -1.66699 -8.66699 -5 -12s-7.33301 -5 -12 -5zM105 78l0.000976562 173.001
c0 4 1 7.33301 3 10l342 435c3.33301 4 7.66602 6 12.999 6c4 0 7.33301 -1 10 -3c9.33301 -6.66699 10.333 -14.334 3 -23.001l-338 -431v-167c0 -4.66699 -1.66699 -8.66699 -5 -12s-7.33301 -5 -12 -5s-8.5 1.66699 -11.5 5s-4.5 7.33301 -4.5 12zM226.001 498.001
c0 -4.66699 -1.66699 -8.66699 -5 -12s-7.33301 -5 -12 -5s-8.5 1.66699 -11.5 5s-4.5 7.33301 -4.5 12v96c0 10.667 5.33301 16 16 16c4.66699 0 8.66699 -1.5 12 -4.5s5 -6.83301 5 -11.5v-96zM209.001 4.00098c-10.667 0 -16 5.33398 -16 16.001v185c0 4.66699 1 8 3 10
l59 75c3.33301 4 7.66602 6 12.999 6c6 0 10.333 -2 13 -6l200 -262c6 -8.66699 5 -16.334 -3 -23.001c-2.66699 -2 -6 -3 -10 -3c-5.33301 0 -9.66602 2 -12.999 6l-187 245l-42 -53v-180c0 -4.66699 -1.66699 -8.5 -5 -11.5s-7.33301 -4.5 -12 -4.5zM599.001 699.002
c8.66699 -7.33301 9.33203 -15.0029 1.99902 -23.0029l-251 -318l252 -328c2.66699 -3.33301 3.66699 -7.16602 3 -11.499s-3 -8.16602 -7 -11.499c-2 -2 -5.33301 -3 -10 -3s-9 2 -13 6l-259 338c-4.66699 6.66699 -4.66699 13.334 0 20.001l260 328
c3.33301 4 7.33301 6 12 6s8.33398 -1 11.001 -3zM103.999 27.999c3.33301 8 9.00098 12 17.001 12c2.66699 0 4.66699 -0.333008 6 -1c4.66699 -1.33301 8 -4.16602 10 -8.49902s2.33301 -8.83301 1 -13.5v-1c-2 -8 -7.66699 -12 -17 -12
c-7.33301 2 -12.333 5.16699 -15 9.5s-3.33398 9.16602 -2.00098 14.499z" />
    <glyph glyph-name="L" unicode="L" horiz-adv-x="473" 
d="M141 24c0 4.66699 1.66699 8.5 5 11.5s7.33301 4.5 12 4.5h246c10.667 0 16 -5.33301 16 -16c0 -4.66699 -1.5 -8.66699 -4.5 -12s-6.83301 -5 -11.5 -5h-246c-4.66699 0 -8.66699 1.66699 -12 5s-5 7.33301 -5 12zM66 94c-10.667 0 -16 5.33301 -16 16v579
c0 10.667 5.33301 16 16 16c11.333 0 17 -5.33301 17 -16v-562h266c5.33301 0 9.5 -1.66699 12.5 -5s4.5 -7.33301 4.5 -12c0 -10.667 -5.66699 -16 -17 -16h-283zM140 599c0 10.667 5.33301 16 16 16c4.66699 0 8.66699 -1.5 12 -4.5s5 -6.83301 5 -11.5v-409
c0 -4.66699 -1.66699 -8.5 -5 -11.5s-7.33301 -4.5 -12 -4.5c-10.667 0 -16 5.33301 -16 16v409zM405 92c-7.33301 2 -12.332 5.33301 -14.999 10s-3.33398 9.33398 -2.00098 14.001v1c3.33301 8 9 12 17 12c1.33301 0 2.33301 -0.166992 3 -0.5s1.66699 -0.5 3 -0.5
c5.33301 -1.33301 9 -4.33301 11 -9s2 -9.33398 0 -14.001v-1c-2 -8 -7.66699 -12 -17 -12z" />
    <glyph glyph-name="M" unicode="M" horiz-adv-x="831" 
d="M647 31c4.66699 -1.33301 8.00098 -4.16699 10.001 -8.5s2.33301 -9.16602 1 -14.499c-2 -8 -7.66699 -12 -17 -12c-7.33301 2 -12.333 5.16699 -15 9.5s-3.33398 9.16602 -2.00098 14.499c3.33301 8 9 12 17 12c2.66699 0 4.66699 -0.333008 6 -1zM202.001 -3.00098
c-4.66699 0 -8.5 1.66699 -11.5 5s-4.5 7.33301 -4.5 12v313c0 10.667 5.33301 16 16 16c4.66699 0 8.66699 -1.5 12 -4.5s5 -6.83301 5 -11.5v-313c0 -4.66699 -1.66699 -8.66699 -5 -12s-7.33301 -5 -12 -5zM374.001 374.999c-6.66699 0 -11.668 2.66699 -15.001 8
l-131 236c-2.66699 4 -3.33398 8.16699 -2.00098 12.5s4 7.83301 8 10.5c4 1.33301 6.66699 2 8 2c6.66699 0 11.334 -3 14.001 -9l132 -235c2.66699 -4 3.33398 -8.16699 2.00098 -12.5s-4 -7.83301 -8 -10.5c-4 -1.33301 -6.66699 -2 -8 -2zM114 -3.00098
c-4.66699 0 -8.66699 1.66797 -12 5.00098s-5 7.33301 -5 12v666c0 8.66699 4.33301 14 13 16c4 0 7.5 -0.5 10.5 -1.5s5.5 -3.5 7.5 -7.5l236 -452l224 400c3.33301 5.33301 8 8 14 8c4 0 6.66699 -0.666992 8 -2c4 -2 6.66699 -5.16699 8 -9.5s1 -8.5 -1 -12.5l-239 -427
c-4 -6.66699 -9 -9.33398 -15 -8.00098c-7.33301 0 -12 2.66699 -14 8l-219 420v-598c0 -4.66699 -1.5 -8.66699 -4.5 -12s-6.83301 -5 -11.5 -5zM641 53c-10.667 0 -16 5.33301 -16 16v258c0 10.667 5.33301 16 16 16c4.66699 0 8.66699 -1.5 12 -4.5s5 -6.83301 5 -11.5
v-258c0 -4.66699 -1.66699 -8.5 -5 -11.5s-7.33301 -4.5 -12 -4.5zM731 -3c-4.66699 0 -8.66797 1.66699 -12.001 5s-5 7.33301 -5 12v601l-290 -531c-3.33301 -6 -8.33301 -9 -15 -9c-2 0 -4.66699 1 -8 3c-4 2 -6.66699 5.16699 -8 9.5s-0.666016 8.5 2.00098 12.5
l321 588c2 3.33301 4.66699 5.5 8 6.5s7 1.5 11 1.5c8 -2 12 -7.33301 12 -16v-666c0 -4.66699 -1.5 -8.66699 -4.5 -12s-6.83301 -5 -11.5 -5z" />
    <glyph glyph-name="N" unicode="N" 
d="M190 64c0 -10.667 -5.66699 -16 -17 -16c-10.667 0 -16 5.33301 -16 16v283c0 11.333 5.33301 17 16 17c11.333 0 17 -5.66699 17 -17v-283zM85 -2c-10.667 0 -16.002 5.33301 -16.002 16v668c0 8.66699 4 14 12 16c0.666992 0 1.33398 0.166992 2.00098 0.5
s1.33398 0.5 2.00098 0.5c6 0 10.667 -2.66699 14 -8l412 -668c6 -9.33301 4.33301 -17 -5 -23c-4 -1.33301 -7 -2 -9 -2c-6 0 -10.667 2.66699 -14 8l-381 618v-610c0 -4.66699 -1.66699 -8.5 -5 -11.5s-7.33301 -4.5 -12 -4.5zM214.998 625
c-6 9.33301 -4.33496 17 4.99805 23c2 1.33301 5 2 9 2c6.66699 0 11.334 -2.33301 14.001 -7l238 -379v418c0 4.66699 1.5 8.66699 4.5 12s6.83301 5 11.5 5s8.66699 -1.66699 12 -5s5 -7.33301 5 -12v-475c0 -8.66699 -4 -14 -12 -16
c-9.33301 0 -15.666 2.33301 -18.999 7zM584.996 643c5.33301 0 9.5 -1.66699 12.5 -5s4.5 -7.33301 4.5 -12v-612c0 -10.667 -5.66699 -16 -17 -16c-10.667 0 -16 5.33301 -16 16v612c0 4.66699 1.5 8.66699 4.5 12s6.83301 5 11.5 5zM579.996 665
c-5.33301 1.33301 -8.99805 4.33301 -10.998 9s-2.33301 9.33398 -1 14.001h1c2 8.66699 7.66699 13 17 13c1.33301 0 2.16602 -0.166992 2.49902 -0.5s1.16602 -0.5 2.49902 -0.5c11.333 -4.66699 15.333 -12.334 12 -23.001l-1 -1c-2 -8 -7.66699 -12 -17 -12z" />
    <glyph glyph-name="O" unicode="O" horiz-adv-x="715" 
d="M34 354c0 32 4.16992 63.6602 12.5029 94.9932s20.333 60.833 36 88.5s34.834 52.834 57.501 75.501s48.334 41.334 77.001 56.001c1.33301 1.33301 4 2 8 2c6 0 10.667 -2.66699 14 -8c2.66699 -4.66699 3.16699 -9.16699 1.5 -13.5s-4.5 -7.5 -8.5 -9.5
c-26 -14 -49.333 -31.167 -70 -51.5s-38 -43 -52 -68s-24.667 -51.667 -32 -80s-11 -57.166 -11 -86.499c0 -40.667 7.16699 -80.167 21.5 -118.5s34.333 -72.166 60 -101.499s56.334 -52.833 92.001 -70.5s74.834 -26.5 117.501 -26.5s81.667 8.83301 117 26.5
s65.833 41.334 91.5 71.001s45.667 63.5 60 101.5s21.5 77.333 21.5 118c0 39.333 -6.66699 77.5 -20 114.5s-32 70 -56 99s-52.833 52.833 -86.5 71.5s-70.834 29.334 -111.501 32.001v-71c0 -10.667 -5.33301 -16 -16 -16c-30.667 0 -58.667 -6.33301 -84 -19
s-46.833 -29.667 -64.5 -51s-31.334 -45.666 -41.001 -72.999s-14.5 -55.666 -14.5 -84.999c0 -28.667 4.83301 -56.667 14.5 -84s23.5 -51.666 41.5 -72.999s39.5 -38.333 64.5 -51s52.833 -19 83.5 -19s58.667 6.33301 84 19s47 29.5 65 50.5s31.833 45.167 41.5 72.5
s14.5 55.666 14.5 84.999c0 48 -11.5 91 -34.5 129s-54.167 65.667 -93.5 83c-4 1.33301 -6.83301 4.16602 -8.5 8.49902s-1.5 8.5 0.5 12.5c2 6.66699 7 10 15 10c2.66699 0 4.66699 -0.333008 6 -1c22.667 -10 43 -23.167 61 -39.5s33.5 -35 46.5 -56s23 -43.833 30 -68.5
s10.5 -50.667 10.5 -78c0 -34 -5.83301 -66.667 -17.5 -98s-27.834 -59 -48.501 -83s-45.667 -43.167 -75 -57.5s-61.666 -21.5 -96.999 -21.5s-67.5 7.33301 -96.5 22s-54 34 -75 58s-37.167 51.667 -48.5 83s-17 63.666 -17 96.999c0 32 5.16699 63.167 15.5 93.5
s25.166 57.333 44.499 81s42.5 43.334 69.5 59.001s57.167 24.5 90.5 26.5v72c0 10.667 5.66699 16 17 16c47.333 0 90.666 -9.83301 129.999 -29.5s73.333 -45.667 102 -78s51 -69.5 67 -111.5s24 -85.667 24 -131s-8 -89.166 -24 -131.499s-38.333 -79.666 -67 -111.999
s-62.834 -58.166 -102.501 -77.499s-82.834 -29 -129.501 -29c-47.333 0 -90.833 9.66699 -130.5 29s-73.834 45.166 -102.501 77.499s-51 69.666 -67 111.999s-24 86.166 -24 131.499zM260.003 681.993c2 8 7.66699 12.001 17 12.001c2.66699 0 4.66699 -0.333008 6 -1
c4.66699 -1.33301 8 -4.33301 10 -9s2.33301 -9.33398 1 -14.001c-3.33301 -8.66699 -9 -13 -17 -13c-8 2.66699 -13.333 6.16699 -16 10.5s-3 8.83301 -1 13.5v1z" />
    <glyph glyph-name="P" unicode="P" horiz-adv-x="529" 
d="M196 74c-10.667 0 -16.001 5.33398 -16.001 16.001v215c0 10.667 5.33301 16 16 16h78c8.66699 0 21.5 2.33301 38.5 7s34.167 13.667 51.5 27c40.667 33.333 61 82.666 61 147.999c0 23.333 -3.33301 45 -10 65s-16.334 37.167 -29.001 51.5s-28.5 25.666 -47.5 33.999
s-40.5 12.5 -64.5 12.5h-79c-4.66699 0 -8.66699 1.66699 -12 5s-5 7.33301 -5 12s1.66699 8.5 5 11.5s7.33301 4.5 12 4.5h79c29.333 0 55.5 -5 78.5 -15s42.333 -23.833 58 -41.5s27.5 -38.5 35.5 -62.5s12 -49.667 12 -77c0 -32.667 -5.66699 -64.5 -17 -95.5
s-30.333 -56.833 -57 -77.5c-19.333 -15.333 -39.166 -26.166 -59.499 -32.499s-37.166 -9.5 -50.499 -9.5h-61v-198c0 -4.66699 -1.66699 -8.5 -5 -11.5s-7.33301 -4.5 -12 -4.5zM89.999 594.001c0 4.66699 1.49805 8.66602 4.49805 11.999s7.16699 5 12.5 5h130
c18 0 35.167 -2.16699 51.5 -6.5s30.5 -11.166 42.5 -20.499s21.667 -21.333 29 -36s11 -32 11 -52s-3.5 -37.333 -10.5 -52s-16.667 -27.167 -29 -37.5s-26.666 -18 -42.999 -23s-33.5 -7.5 -51.5 -7.5h-41c-10.667 0 -16 5.33301 -16 16v70c0 10.667 5.33301 16 16 16
c4.66699 0 8.66699 -1.5 12 -4.5s5 -6.83301 5 -11.5v-53h24c27.333 0 51 7 71 21s30 36 30 66c0 15.333 -2.83301 28.166 -8.5 38.499s-13 18.833 -22 25.5s-19.667 11.334 -32 14.001s-25.166 4 -38.499 4h-114v-564c0 -4.66699 -1.5 -8.66699 -4.5 -12
s-6.83301 -5 -11.5 -5c-5.33301 0 -9.5 1.66699 -12.5 5s-4.5 7.33301 -4.5 12v580zM190.997 501c-5.33301 1.33301 -9 4.16504 -11 8.49805s-2.33301 8.83301 -1 13.5v1c3.33301 8 9.33301 12 18 12c2 0 3.66699 -0.333008 5 -1c5.33301 -1.33301 9 -4.16602 11 -8.49902
s2.33301 -9.16602 1 -14.499h-1c-2 -8 -7.66699 -12 -17 -12z" />
    <glyph glyph-name="Q" unicode="Q" horiz-adv-x="769" 
d="M753 -20c-15.333 0.666992 -31.8359 2.50293 -49.5029 5.50293s-35.5 7.83301 -53.5 14.5s-35.667 15.5 -53 26.5s-33.333 25.5 -48 43.5c-28 -23.333 -58.667 -41.166 -92 -53.499s-68 -18.5 -104 -18.5c-47.333 0 -90.833 9.83301 -130.5 29.5s-73.667 45.667 -102 78
s-50.5 69.666 -66.5 111.999s-24 86.166 -24 131.499c0 32 4 63.333 12 94s19.5 59.5 34.5 86.5s33.5 51.667 55.5 74s47 41.5 75 57.5c2 1.33301 4.66699 2 8 2c6.66699 0 11.667 -2.66699 15 -8c4.66699 -9.33301 2.33398 -17 -6.99902 -23
c-25.333 -14 -48 -31.333 -68 -52s-36.833 -43.167 -50.5 -67.5s-24 -50.5 -31 -78.5s-10.5 -56.333 -10.5 -85c0 -40.667 7 -80.167 21 -118.5s33.833 -72.333 59.5 -102s56.334 -53.334 92.001 -71.001s74.834 -26.5 117.501 -26.5c34.667 0 68.167 6.66699 100.5 20
s61.166 31.666 86.499 54.999c2.66699 2.66699 6.66699 4 12 4c4 0 8 -2 12 -6l1 -2c22.667 -32 50.5 -54.167 83.5 -66.5s68.167 -19.833 105.5 -22.5c4.66699 -0.666992 8.5 -2.66699 11.5 -6s4.16699 -7.33301 3.5 -12c-1.33301 -10 -6.66602 -15 -15.999 -15z
M752.997 68.0029c-66.667 10 -119 37.3311 -157 81.998c-4.66699 4.66699 -5.33398 10.667 -2.00098 18l4.5 10l11 24c4.33301 9.33301 8.66602 19.333 12.999 30s7.5 20 9.5 28l1 7c3.33301 13.333 5.83301 26.833 7.5 40.5s2.5 27.5 2.5 41.5
c0 39.333 -6.5 77.333 -19.5 114s-31.5 69.667 -55.5 99s-52.833 53.333 -86.5 72s-70.834 29 -111.501 31v-70c0 -4.66699 -1.66699 -8.66699 -5 -12s-7.33301 -5 -12 -5c-30.667 0 -58.5 -6.33301 -83.5 -19s-46.5 -29.667 -64.5 -51s-31.833 -45.666 -41.5 -72.999
s-14.5 -55.333 -14.5 -84c0 -29.333 4.83301 -57.666 14.5 -84.999s23.5 -51.5 41.5 -72.5s39.667 -38 65 -51s53.333 -19.5 84 -19.5c20.667 0 40.167 3.33301 58.5 10s35.833 15.667 52.5 27c-19.333 21.333 -40.166 37.666 -62.499 48.999s-45.166 17 -68.499 17
c-10.667 0 -16 5.33301 -16 16c0 4.66699 1.5 8.66699 4.5 12s6.83301 5 11.5 5c30.667 0 60.334 -7.83301 89.001 -23.5s55 -38.167 79 -67.5c3.33301 -3.33301 4.33301 -7.33301 3 -12c0 -4 -2 -7.66699 -6 -11c-18 -18 -40.5 -31.667 -67.5 -41s-52.833 -14 -77.5 -14
c-35.333 0 -67.666 7.33301 -96.999 22s-54.333 34 -75 58s-36.834 51.833 -48.501 83.5s-17.5 64.167 -17.5 97.5c0 32 5.16699 63.167 15.5 93.5s25.166 57.333 44.499 81s42.666 43.167 69.999 58.5s57.666 24.333 90.999 27v71c0 4.66699 1.5 8.66699 4.5 12
s6.83301 5 11.5 5c47.333 0 90.833 -9.66699 130.5 -29s73.667 -45.333 102 -78s50.5 -70 66.5 -112s24 -85.667 24 -131c0 -32.667 -3.33301 -62.667 -10 -90l-2 -7c-3.33301 -14 -9 -29.833 -17 -47.5s-14.333 -31.167 -19 -40.5c32 -34 74.667 -55 128 -63
c4.66699 -1.33301 8.33398 -3.66602 11.001 -6.99902s3.33398 -7.33301 2.00098 -12c-1.33301 -9.33301 -6.66602 -14 -15.999 -14zM537.997 195.001c-6 0 -10.6641 2.00098 -13.9971 6.00098c-22 30.667 -49.5 55.167 -82.5 73.5s-68.5 27.5 -106.5 27.5
c-10 0 -15.667 5.33301 -17 16c0 6.66699 2.16699 11.167 6.5 13.5s9.16602 3.5 14.499 3.5c36 0 71.333 -8.66699 106 -26s64 -39.333 88 -66l7 17c5.33301 11.333 9.16602 22.166 11.499 32.499s3.5 16.166 3.5 17.499c1.33301 6.66699 2.33301 13.334 3 20.001
s1 13.667 1 21c0 47.333 -11.667 90 -35 128s-54.333 65.667 -93 83c-4 2 -6.83301 5 -8.5 9s-1.5 8.33301 0.5 13c2 6.66699 7 10 15 10c1.33301 0 3.33301 -0.666992 6 -2c22.667 -10 43 -23 61 -39s33.5 -34.5 46.5 -55.5s23 -44 30 -69s10.5 -50.833 10.5 -77.5
c0 -8 -0.333008 -16 -1 -24s-1.66699 -15.667 -3 -23c-0.666992 -1.33301 -2.33398 -7.83301 -5.00098 -19.5s-7 -24.167 -13 -37.5l-17 -42c-2 -6.66699 -6.33301 -10 -13 -10h-2zM267 651.002c-8 2 -13.333 5.16699 -16 9.5s-3.33398 9.16602 -2.00098 14.499h1
c2 8 7.66699 12 17 12c2.66699 0 4.33398 -0.333008 5.00098 -1c5.33301 -1.33301 9 -4.16602 11 -8.49902s2.33301 -8.83301 1 -13.5v-1c-3.33301 -8 -9 -12 -17 -12z" />
    <glyph glyph-name="R" unicode="R" horiz-adv-x="645" 
d="M200 209c10.667 0 16 -5.33301 16 -16v-174c0 -11.333 -5.33301 -17 -16 -17c-4.66699 0 -8.66699 1.5 -12 4.5s-5 7.16699 -5 12.5v174c0 4.66699 1.66699 8.5 5 11.5s7.33301 4.5 12 4.5zM403 75c2.66699 -3.33301 3.49805 -7.33203 2.49805 -11.999
s-3.16699 -8.33398 -6.5 -11.001c-2.66699 -2 -6 -3 -10 -3c-5.33301 0 -9.66602 2.66699 -12.999 8l-194 288c-6 9.33301 -4.33301 17 5 23c2 2 5 3 9 3c4.66699 0 9.33398 -2.33301 14.001 -7zM127.998 585.001l-0.00195312 -565.998c0 -11.333 -5.33301 -17 -16 -17
c-11.333 0 -17 5.66699 -17 17v582c0 4.66699 1.5 8.66699 4.5 12s7.16699 5 12.5 5h199c24 0 46.167 -2.16699 66.5 -6.5s37.666 -11.833 51.999 -22.5s25.5 -24.834 33.5 -42.501s12 -39.834 12 -66.501c0 -94 -52.667 -141 -158 -141h-31
c-4.66699 0 -8.66699 1.66699 -12 5s-5 7.33301 -5 12s1.66699 8.5 5 11.5s7.33301 4.5 12 4.5h31c38.667 0 69.167 7.66699 91.5 23s33.5 43.666 33.5 84.999c0 21.333 -3.16699 38.833 -9.5 52.5s-15.166 24.334 -26.499 32.001s-25.166 13 -41.499 16
s-34.166 4.5 -53.499 4.5h-183zM371.996 265.003l161.999 -237.002c6 -9.33301 4.66699 -17 -4 -23c-2.66699 -2 -5.66699 -3 -9 -3c-6 0 -10.667 2.33301 -14 7l-178 262c-4 4.66699 -4.33301 10.334 -1 17.001c3.33301 6 8.33301 9 15 9c28 0 53.667 4.33301 77 13
s43.333 21 60 37s29.5 35.333 38.5 58s13.5 48.334 13.5 77.001c0 64 -16 110.167 -48 138.5s-79 42.5 -141 42.5h-142c-10.667 0 -16 5.66699 -16 17c0 10.667 5.33301 16 16 16h142c70.667 0 125.334 -17.167 164.001 -51.5s58 -88.5 58 -162.5
c0 -61.333 -17.167 -110.833 -51.5 -148.5s-81.5 -60.5 -141.5 -68.5zM425.995 37.001c5.33301 -1.33301 9.00098 -4.16797 11.001 -8.50098s2.33301 -9.16602 1 -14.499h-1c-2 -8 -7.66699 -12 -17 -12c-7.33301 2 -12.333 5.16699 -15 9.5s-3.33398 8.83301 -2.00098 13.5
v1c3.33301 8 9 12 17 12c2.66699 0 4.66699 -0.333008 6 -1z" />
    <glyph glyph-name="S" unicode="S" horiz-adv-x="608" 
d="M122 378c-36.667 33.333 -53.3311 72.9971 -49.998 118.997c0 1.33301 0.166992 4.66602 0.5 9.99902s1.66602 11.833 3.99902 19.5s5.83301 15.834 10.5 24.501s11.334 17 20.001 25c21.333 21.333 46.5 34.333 75.5 39s57.833 7 86.5 7
c9.33301 -0.666992 24 -2.5 44 -5.5s40 -10.167 60 -21.5c50 -27.333 74 -70 72 -128c-1.33301 -10 -7 -15 -17 -15c-5.33301 0 -9.5 1.66699 -12.5 5s-4.16699 7.33301 -3.5 12c1.33301 24.667 -3.66699 45 -15 61c-6 10.667 -14 19.5 -24 26.5s-21 12.833 -33 17.5
s-24.167 8.16699 -36.5 10.5s-24.166 3.83301 -35.499 4.5c-24 0 -48.5 -1.66699 -73.5 -5s-46.5 -13.666 -64.5 -30.999c-12.667 -12 -20 -24 -22 -36s-3 -18.667 -3 -20c-0.666992 -19.333 2 -36.5 8 -51.5s15.333 -28.5 28 -40.5s27.834 -23.167 45.501 -33.5
s37.5 -20.166 59.5 -29.499l15 -7l71.5 -32.5c21.667 -10.333 40.167 -21.166 55.5 -32.499c17.333 -11.333 29.666 -24 36.999 -38c9.33301 -16 11.666 -32.667 6.99902 -50c-2 -8 -7.33301 -12 -16 -12c-6.66699 1.33301 -11.334 3.83301 -14.001 7.5
s-3.33398 7.83398 -2.00098 12.501c5.33301 20 -5.66699 38.333 -33 55s-67 36.667 -119 60l-15 6c-18.667 8.66699 -38 18.167 -58 28.5s-37.667 23.166 -53 38.499zM297.003 -2.00293c-34 2 -65.833 9.33008 -95.5 21.9971s-55.167 30.334 -76.5 53.001
c-20.667 22 -36.167 46.667 -46.5 74s-14.833 56 -13.5 86c1.33301 10.667 7.33301 16 18 16c4.66699 -0.666992 8.5 -2.5 11.5 -5.5s4.16699 -7.16699 3.5 -12.5c-2 -52 15 -97 51 -135c18.667 -19.333 40.667 -34.666 66 -45.999s53 -17.666 83 -18.999
c5.33301 0 9.5 -1.66699 12.5 -5s4.16699 -7.33301 3.5 -12c0 -4.66699 -1.66699 -8.5 -5 -11.5s-7 -4.5 -11 -4.5h-1zM499.003 128.994c-23.333 -24.667 -49.502 -39.9951 -78.502 -45.9951s-59.5 -9 -91.5 -9c-16 0.666992 -32.5 3 -49.5 7s-33 9.66699 -48 17
s-28.5 16.666 -40.5 27.999s-21.333 25 -28 41c-1.33301 4 -1.16602 8.16699 0.500977 12.5s4.5 7.5 8.5 9.5c1.33301 0 2.33301 0.166992 3 0.5s1.66699 0.5 3 0.5c7.33301 0 12.666 -3.33301 15.999 -10c5.33301 -13.333 13 -24.333 23 -33s21.333 -15.834 34 -21.501
s25.834 -9.83398 39.501 -12.501s26.834 -4.66699 39.501 -6c16.667 0 34 1 52 3s35 6.33301 51 13s30 15.834 42 27.501s20.333 27.167 25 46.5c0.666992 16.667 0 30 -2 40s-7 19.667 -15 29c-10 11.333 -26 23.5 -48 36.5s-52.333 28.167 -91 45.5
c-28.667 12.667 -54.167 24.667 -76.5 36s-41.166 22.666 -56.499 33.999c-39.333 29.333 -56 60.333 -50 93c1.33301 6 3.83301 9.66699 7.5 11s7.83398 2 12.501 2c4.66699 -0.666992 8.16699 -2.83398 10.5 -6.50098s3.16602 -7.83398 2.49902 -12.501
c-2 -11.333 1 -22.5 9 -33.5s19.667 -21.667 35 -32s33.5 -20.666 54.5 -30.999s42.833 -20.5 65.5 -30.5c42 -19.333 74.5 -36 97.5 -50s40.167 -27.667 51.5 -41c13.333 -14.667 21.166 -29.334 23.499 -44.001s2.83301 -30.667 1.5 -48c0 -1.33301 -2 -8.83301 -6 -22.5
s-13 -28.167 -27 -43.5zM479.001 621.999c39.333 -43.333 57.3311 -96.332 53.998 -158.999c-1.33301 -10.667 -7 -16 -17 -16c-12 1.33301 -17.333 7.33301 -16 18c1.33301 26 -2 50.667 -10 74s-20 43.666 -36 60.999c-17.333 19.333 -39.166 34.5 -65.499 45.5
s-55.833 17.5 -88.5 19.5c-4.66699 0 -8.66699 1.66699 -12 5s-4.66602 7.33301 -3.99902 12c0 4.66699 1.66699 8.5 5 11.5s7.33301 4.5 12 4.5c76 -4 135.333 -29.333 178 -76zM186.999 222c-3.33301 -8 -9 -12 -17 -12c-8 2 -13.333 5.33301 -16 10s-3 9.33398 -1 14.001
v1c2 8 7.66699 12 17 12c1.33301 0 2.33301 -0.166992 3 -0.5s1.66699 -0.5 3 -0.5c4.66699 -1.33301 8 -4.33301 10 -9s2.33301 -9.33398 1 -14.001v-1z" />
    <glyph glyph-name="T" unicode="T" horiz-adv-x="603" 
d="M278 16c0 -10.667 -5.33301 -16 -16 -16c-4.66699 0 -8.66699 1.5 -12 4.5s-5 6.83301 -5 11.5v241c0 5.33301 1.66699 9.5 5 12.5s7.33301 4.5 12 4.5c10.667 0 16 -5.66699 16 -17v-241zM335 437v156c0 4.66699 1.66699 8.66699 5 12s7.33301 5 12 5h185
c5.33301 0 9.5 -1.66699 12.5 -5s4.5 -7.33301 4.5 -12c0 -10.667 -5.66699 -16 -17 -16h-169v-140c0 -10.667 -5.33301 -16 -16 -16c-4.66699 0 -8.66699 1.5 -12 4.5s-5 6.83301 -5 11.5zM184 610c4.66699 0 8.5 -1.66699 11.5 -5s4.5 -7.33301 4.5 -12
c0 -10.667 -5.33301 -16 -16 -16h-122c-11.333 0 -17 5.33301 -17 16c0 4.66699 1.5 8.66699 4.5 12s7.16699 5 12.5 5h122zM277 681v-316h75c4.66699 0 8.5 -1.66699 11.5 -5s4.5 -7.33301 4.5 -12v-255c0 -11.333 -5.33301 -17 -16 -17c-4.66699 0 -8.66699 1.5 -12 4.5
s-5 7.16699 -5 12.5v239h-74c-4.66699 0 -8.66699 1.5 -12 4.5s-5 6.83301 -5 11.5v317h-182c-11.333 0 -17 5.33301 -17 16c0 11.333 5.66699 17 17 17h199c10.667 0 16 -5.66699 16 -17zM352 698h130c10.667 0 16 -5.66699 16 -17c0 -10.667 -5.33301 -16 -16 -16h-130
c-4.66699 0 -8.66699 1.5 -12 4.5s-5 6.83301 -5 11.5c0 5.33301 1.66699 9.5 5 12.5s7.33301 4.5 12 4.5zM543 699c5.33301 -1.33301 9 -4.33203 11 -8.99902s2.33301 -9.33398 1 -14.001h-1c-2 -8.66699 -7.66699 -13 -17 -13c-7.33301 2.66699 -12.333 6.16699 -15 10.5
s-3.33398 8.83301 -2.00098 13.5l1 1c2 8 7.66699 12 17 12c2.66699 0 4.33398 -0.333008 5.00098 -1z" />
    <glyph glyph-name="U" unicode="U" horiz-adv-x="689" 
d="M148 593c0 4.66699 1.50098 8.66602 4.50098 11.999s7.16699 5 12.5 5c4.66699 0 8.5 -1.66699 11.5 -5s4.5 -7.33301 4.5 -12v-257c0 -19.333 2 -38.833 6 -58.5s10 -38.667 18 -57s18.333 -35.166 31 -50.499s27.334 -28.333 44.001 -39
c4 -2.66699 6.66699 -6.16699 8 -10.5s0.666016 -8.5 -2.00098 -12.5c-2.66699 -4.66699 -7.33398 -7 -14.001 -7c-4 0 -7 0.666992 -9 2c-36 22 -64.167 53.833 -84.5 95.5s-30.5 87.5 -30.5 137.5v257zM60.001 337.999l0.000976562 334.998c0 4.66699 1.5 8.66699 4.5 12
s7.16699 5 12.5 5c4.66699 0 8.5 -1.66699 11.5 -5s4.5 -7.33301 4.5 -12v-335c0 -42 6.16699 -81.5 18.5 -118.5s29 -69.667 50 -98s45.833 -51.333 74.5 -69s59.334 -27.834 92.001 -30.501v70c0 4.66699 1.5 8.66699 4.5 12s6.83301 5 11.5 5
c29.333 0 54.333 7.33301 75 22s37.5 33 50.5 55s22.5 46.333 28.5 73s9 52.334 9 77.001v279c0 5.33301 1.66699 9.5 5 12.5s7.33301 4.5 12 4.5c10.667 0 16 -5.66699 16 -17v-279c0 -28 -3.33301 -56.667 -10 -86s-17.334 -56.166 -32.001 -80.499
s-33.334 -45 -56.001 -62s-49.667 -27.167 -81 -30.5v-72c0 -4.66699 -1.66699 -8.66699 -5 -12s-7.33301 -5 -12 -5c-45.333 0 -85.5 10.667 -120.5 32s-64.667 48.833 -89 82.5s-42.833 71.334 -55.5 113.001s-19 82.5 -19 122.5zM416.002 25.9971
c30 11.333 56.168 27.834 78.501 49.501s41 46.334 56 74.001s26.333 57.167 34 88.5s11.5 62 11.5 92v342c0 4.66699 1.5 8.66699 4.5 12s6.83301 5 11.5 5s8.66699 -1.66699 12 -5s5 -7.33301 5 -12v-342c0 -32.667 -4.33301 -66.334 -13 -101.001
s-21.334 -67.334 -38.001 -98.001s-37.5 -58 -62.5 -82s-54.167 -41.667 -87.5 -53c-11.333 -2 -18.333 1 -21 9c-2 4.66699 -2 9 0 13s5 6.66699 9 8zM530.003 688.998c4.66699 -2 8.00098 -5.16797 10.001 -9.50098s2.33301 -8.83301 1 -13.5v-1
c-3.33301 -8 -9 -12 -17 -12c-7.33301 2 -12.333 5.33301 -15 10s-3.33398 9.33398 -2.00098 14.001v1c3.33301 8 9 12 17 12c1.33301 0 2.33301 -0.166992 3 -0.5s1.66699 -0.5 3 -0.5z" />
    <glyph glyph-name="V" unicode="V" horiz-adv-x="697" 
d="M320 0c-8 0 -13.333 3.66699 -16 11l-236 661c-1.33301 4.66699 -1 9 1 13s5 7 9 9c1.33301 0 2.33301 0.166992 3 0.5s1.66699 0.5 3 0.5c7.33301 0 12.333 -3.66699 15 -11l236 -661c3.33301 -10 0 -17.333 -10 -22zM392 259
c-7.33301 1.33301 -12.168 4.16699 -14.501 8.5s-2.83301 8.5 -1.5 12.5l119 346c3.33301 7.33301 8.66602 11 15.999 11c2.66699 0 4.33398 -0.333008 5.00098 -1c4.66699 -1.33301 8 -4 10 -8s2.33301 -8.33301 1 -13l-119 -345
c-3.33301 -7.33301 -8.66602 -11 -15.999 -11zM395.998 0.000976562c-8.66699 1.33301 -14 5.33203 -16 11.999l-198 591c-3.33301 10.667 0 17.667 10 21c1.33301 0.666992 3 1 5 1c8.66699 0 14 -3.66699 16 -11l183 -546l215 615c2 8 7 12 15 12
c1.33301 0 2.33301 -0.166992 3 -0.5s1.66699 -0.5 3 -0.5c4 -1.33301 7 -4.16602 9 -8.49902s2.33301 -8.5 1 -12.5l-231 -661c-2 -8 -7 -12 -15 -12zM530.998 660c-7.33301 2 -12.332 5.16797 -14.999 9.50098s-3.33398 9.16602 -2.00098 14.499c2 6 5 9.5 9 10.5
s8.66699 1.5 14 1.5c4.66699 -2 8 -5.16699 10 -9.5s2.33301 -8.83301 1 -13.5v-1c-3.33301 -8 -9 -12 -17 -12z" />
    <glyph glyph-name="W" unicode="W" horiz-adv-x="833" 
d="M633 329c-12 2 -17.333 8.33301 -16 19l42 280c1.33301 9.33301 6.66602 14 15.999 14c0.666992 0 1.33398 -0.333008 2.00098 -1c4.66699 -0.666992 8.5 -2.66699 11.5 -6s3.83301 -7.33301 2.5 -12l-41 -279c-2 -10 -7.66699 -15 -17 -15zM560 52
c-7.33301 0 -12.333 3.33301 -15 10l-97 236c-2 4 -2.16699 8.16699 -0.5 12.5s4.83398 7.16602 9.50098 8.49902c2.66699 1.33301 4.66699 2 6 2c8 0 13 -3.66699 15 -11l98 -236c1.33301 -4 1.16602 -8.16699 -0.500977 -12.5s-4.5 -7.16602 -8.5 -8.49902zM683 -1
c-6.66699 0 -11.667 3.33301 -15 10l-195 447l-185 -394c-3.33301 -6.66699 -8.33301 -10 -15 -10c-2 0 -4.33301 0.666992 -7 2c-4 2 -6.83301 5.16699 -8.5 9.5s-1.5 8.5 0.5 12.5l200 426c3.33301 6.66699 8.33301 10 15 10c8 0 13 -3.33301 15 -10l187 -427l88 609
c0.666992 4.66699 2.66699 8.16699 6 10.5s7.33301 3.5 12 3.5c4.66699 -0.666992 8.5 -2.66699 11.5 -6s3.83301 -7.33301 2.5 -12l-95 -667c-1.33301 -8 -6.33301 -12.667 -15 -14h-2zM190 335c-4 0 -7.5 1.5 -10.5 4.5s-5.16699 6.5 -6.5 10.5l-41 330
c-1.33301 10.667 3.33398 16.667 14.001 18c4.66699 0 8.66699 -1.16699 12 -3.5s5.33301 -5.83301 6 -10.5l42 -330c1.33301 -10.667 -3.33398 -16.667 -14.001 -18zM150 -1c-10 2 -15.666 6.66602 -16.999 13.999l-95 667c-1.33301 4.66699 -0.5 8.66699 2.5 12
s6.83301 5.33301 11.5 6c4.66699 0 8.66699 -1.16699 12 -3.5s5.33301 -5.83301 6 -10.5l88 -612l256 539c3.33301 6 8.33301 9 15 9c3.33301 0 5.66602 -0.666992 6.99902 -2c4 -1.33301 6.83301 -4.16602 8.5 -8.49902s1.5 -8.5 -0.5 -12.5l-279 -588
c-3.33301 -6.66699 -8.33301 -10 -15 -10zM683.001 661.999c-7.33301 2 -12.332 5.33301 -14.999 10s-3.33398 9.33398 -2.00098 14.001v1c3.33301 8 9 12 17 12c1.33301 0 2.33301 -0.166992 3 -0.5s1.66699 -0.5 3 -0.5c5.33301 -1.33301 9 -4.33301 11 -9
s2 -9.33398 0 -14.001v-1c-2 -8 -7.66699 -12 -17 -12z" />
    <glyph glyph-name="X" unicode="X" 
d="M318 257c-3.33301 5.33301 -3.3291 11.333 0.00390625 18l266 418c3.33301 4.66699 8 7 14 7c2 0 5 -0.666992 9 -2c3.33301 -2.66699 5.66602 -6.16699 6.99902 -10.5s0.666016 -8.5 -2.00098 -12.5l-261 -409l125 -197c6 -9.33301 4.33301 -17 -5 -23
c-2.66699 -1.33301 -5.33398 -2 -8.00098 -2c-6.66699 0 -11.334 2.33301 -14.001 7zM610.004 21c2.66699 -3.33301 3.5 -7.33203 2.5 -11.999s-3.5 -8.33398 -7.5 -11.001c-2.66699 -1.33301 -5.66699 -2 -9 -2c-5.33301 0 -10 2.66699 -14 8l-169 266
c-6 9.33301 -4.33301 17 5 23c3.33301 2 6.33301 3 9 3c6 0 10.667 -2.66699 14 -8zM376.004 499.001c-3.33301 2.66699 -5.66699 6.16699 -7 10.5s-0.666016 8.5 2.00098 12.5l79 123c3.33301 5.33301 8 8 14 8c3.33301 0 6 -1 8 -3c9.33301 -6 11 -13.667 5 -23l-78 -123
c-2.66699 -4.66699 -7.33398 -7 -14.001 -7c-4 0 -7 0.666992 -9 2zM58.0029 -1.99902c-4 2.66699 -6.5 6.33301 -7.5 11s-0.166992 8.66699 2.5 12l260 409l-155 245c-6 9.33301 -4.33301 17 5 23c2.66699 1.33301 5.33398 2 8.00098 2c6 0 10.667 -2.33301 14 -7l161 -254
c4.66699 -5.33301 4.66699 -11 0 -17l-266 -418c-3.33301 -5.33301 -8 -8 -14 -8c-2.66699 0 -5.33398 0.666992 -8.00098 2zM224.003 408l-169.998 267c-2.66699 4 -3.33398 8.16699 -2.00098 12.5s3.66602 7.83301 6.99902 10.5c4 1.33301 7 2 9 2
c6 0 10.667 -2.33301 14 -7l170 -267c4.66699 -9.33301 3 -17 -5 -23c-2.66699 -2 -5.66699 -3 -9 -3c-6 0 -10.667 2.66699 -14 8zM200.005 42c-2.66699 0 -5.66895 1 -9.00195 3c-3.33301 2.66699 -5.66602 6.16699 -6.99902 10.5s-0.666016 8.5 2.00098 12.5l79 124
c4 4.66699 8.66699 7 14 7c4 0 7 -0.666992 9 -2c9.33301 -6 11 -13.667 5 -23l-79 -124c-3.33301 -5.33301 -8 -8 -14 -8zM476.003 690c2 8 7.66895 11.998 17.002 11.998c2.66699 0 4.66699 -0.333008 6 -1c4.66699 -1.33301 8 -4.16602 10 -8.49902
s2.33301 -9.16602 1 -14.499c-2.66699 -8 -8.33398 -12 -17.001 -12c-7.33301 2 -12.333 5.16699 -15 9.5s-3.33398 8.83301 -2.00098 13.5v1z" />
    <glyph glyph-name="Y" unicode="Y" horiz-adv-x="618" 
d="M49 694c1.33301 1.33301 3.66699 2.00098 7 2.00098c6.66699 0 11.667 -2.66699 15 -8l215 -396c1.33301 -2.66699 2 -5.33398 2 -8.00098v-269c0 -10.667 -5.33301 -16 -16 -16c-4.66699 0 -8.66699 1.5 -12 4.5s-5 6.83301 -5 11.5v265l-213 392
c-2 4 -2.33301 8.16699 -1 12.5s4 7.5 8 9.5zM374.001 15.001c0 -10.667 -5.33301 -16 -16 -16c-4.66699 0 -8.66699 1.5 -12 4.5s-5 6.83301 -5 11.5v203c0 4.66699 1.66699 8.5 5 11.5s7.33301 4.5 12 4.5c10.667 0 16 -5.33301 16 -16v-203zM177.001 645.001
c1.33301 1.33301 4 2 8 2c6 0 10.667 -2.66699 14 -8l161 -295l187 344c3.33301 5.33301 8 8 14 8c4 0 6.66699 -0.666992 8 -2c4 -2 6.66699 -5.16699 8 -9.5s1 -8.5 -1 -12.5l-201 -370c-3.33301 -5.33301 -8.33301 -8 -15 -8h-1c-6 0 -10.667 2.66699 -14 8l-175 321
c-2 4 -2.33301 8.16699 -1 12.5s4 7.5 8 9.5zM348.001 479.001c-4 0 -6.66699 0.666992 -8 2c-4 2 -6.66699 5.16699 -8 9.5s-1 8.5 1 12.5l78 141c3.33301 6 8 9 14 9c1.33301 0 4 -0.666992 8 -2c4 -2 6.66699 -5.33301 8 -10s1 -9 -1 -13l-78 -141
c-3.33301 -5.33301 -8 -8 -14 -8zM164.001 697.001c4.66699 -1.33301 8.00098 -4.16602 10.001 -8.49902s2.33301 -8.83301 1 -13.5v-1c-3.33301 -8 -9 -12 -17 -12c-7.33301 2 -12.333 5.16699 -15 9.5s-3.33398 9.16602 -2.00098 14.499c3.33301 8 9 12 17 12
c2.66699 0 4.66699 -0.333008 6 -1z" />
    <glyph glyph-name="Z" unicode="Z" horiz-adv-x="655" 
d="M280 121h226c4.66699 0 8.66699 -1.5 12 -4.5s5 -6.83301 5 -11.5c0 -5.33301 -1.66699 -9.5 -5 -12.5s-7.33301 -4.5 -12 -4.5h-226c-4.66699 0 -8.66699 1.5 -12 4.5s-5 7.16699 -5 12.5c0 4.66699 1.66699 8.5 5 11.5s7.33301 4.5 12 4.5zM576 543
c8.66699 -7.33301 9.33105 -15 1.99805 -23l-439 -487h424c4.66699 0 8.66699 -1.5 12 -4.5s5 -6.83301 5 -11.5s-1.66699 -8.66699 -5 -12s-7.33301 -5 -12 -5h-461c-8 -0 -13 3.33301 -15 10c-3.33301 6.66699 -2.66602 12.667 2.00098 18l464 514
c2.66699 3.33301 6.66699 5 12 5c4.66699 0 8.33398 -1.33301 11.001 -4zM348.997 580h-167c-11.333 0 -17 5.33301 -17 16c0 4.66699 1.5 8.66699 4.5 12s7.16699 5 12.5 5h167c4.66699 0 8.66699 -1.66699 12 -5s5 -7.33301 5 -12s-1.66699 -8.5 -5 -11.5
s-7.33301 -4.5 -12 -4.5zM587.997 690c3.33301 -6.66699 2.66699 -12.665 -2 -17.998l-456 -506c-4 -4 -8.33301 -6 -13 -6c-2.66699 0 -6.33398 1.66699 -11.001 5c-3.33301 3.33301 -5.16602 7.16602 -5.49902 11.499s1.16699 8.16602 4.5 11.499l431 479h-423
c-10.667 0 -16 5.33301 -16 16c0 4.66699 1.5 8.66699 4.5 12s6.83301 5 11.5 5h460c8 0 13 -3.33301 15 -10zM567.998 122.002c4.66699 -1.33301 8.00098 -4.16797 10.001 -8.50098s2.33301 -9.16602 1 -14.499c-2 -8 -7.66699 -12 -17 -12
c-7.33301 2 -12.333 5.16699 -15 9.5s-3.33398 8.83301 -2.00098 13.5v1c3.33301 8 9 12 17 12c2.66699 0 4.66699 -0.333008 6 -1z" />
    <glyph glyph-name="bracketleft" unicode="[" horiz-adv-x="388" 
d="M344 769c4.66699 0 8.66699 -1.5 12 -4.5s5 -6.83301 5 -11.5v-87c0 -4.66699 -1.66699 -8.5 -5 -11.5s-7.33301 -4.5 -12 -4.5h-156v-672h156c4.66699 0 8.66699 -1.5 12 -4.5s5 -6.83301 5 -11.5v-86c0 -4.66699 -1.66699 -8.66699 -5 -12s-7.33301 -5 -12 -5h-258
c-5.33301 0 -9.5 1.66699 -12.5 5s-4.5 7.33301 -4.5 12v877c0 10.667 5.66699 16 17 16h258zM328 683v53h-226v-844h226v53h-156c-4.66699 0 -8.66699 1.66699 -12 5s-5 7.33301 -5 12v704c0 5.33301 1.66699 9.5 5 12.5s7.33301 4.5 12 4.5h156z" />
    <glyph glyph-name="backslash" unicode="\" horiz-adv-x="538" 
d="M177 772l336 -833c1.33301 -2.66699 2 -5 2 -7c0 -10.667 -5.66699 -16 -17 -16h-121c-8 0 -13 3.33301 -15 10l-337 834c-2 5.33301 -1.66699 10.333 1 15s7.33398 7 14.001 7h121c7.33301 0 12.666 -3.33301 15.999 -10zM388 -51h86l-324 800h-86z" />
    <glyph glyph-name="bracketright" unicode="]" horiz-adv-x="388" 
d="M310 766c4.66699 0 8.66699 -1.5 12 -4.5s5 -6.83301 5 -11.5v-877c0 -4.66699 -1.66699 -8.66699 -5 -12s-7.33301 -5 -12 -5h-258c-5.33301 0 -9.5 1.66699 -12.5 5s-4.5 7.33301 -4.5 12v86c0 10.667 5.66699 16 17 16h155v672h-155c-11.333 0 -17 5.33301 -17 16v87
c0 10.667 5.66699 16 17 16h258zM294 733h-226v-53h156c10.667 0 16 -5.66699 16 -17v-704c0 -4.66699 -1.5 -8.66699 -4.5 -12s-6.83301 -5 -11.5 -5h-156v-53h226v844z" />
    <glyph glyph-name="underscore" unicode="_" horiz-adv-x="734" 
d="M662 63c4.66699 0 8.66699 -1.5 12 -4.5s5 -6.83301 5 -11.5v-94c0 -4.66699 -1.66699 -8.5 -5 -11.5s-7.33301 -4.5 -12 -4.5h-580c-4.66699 0 -8.66699 1.5 -12 4.5s-5 6.83301 -5 11.5v94c0 4.66699 1.66699 8.5 5 11.5s7.33301 4.5 12 4.5h580zM646 -30v60h-548v-60
h548z" />
    <glyph glyph-name="grave" unicode="`" horiz-adv-x="404" 
d="M60 750c2 6.66699 7.33301 10.001 16 10.001h114c4.66699 0 8.66699 -1.66699 12 -5l123 -132c4 -5.33301 5 -11.333 3 -18c-3.33301 -6.66699 -8.66602 -10 -15.999 -10h-77c-4.66699 0 -8.33398 1.33301 -11.001 4l-159 132c-5.33301 5.33301 -7 11.666 -5 18.999z
M121 727.001l119 -99h35l-92 99h-62z" />
    <glyph glyph-name="a" unicode="a" horiz-adv-x="684" 
d="M49 1c-13.333 4 -18.335 11.333 -15.002 22l246 661c3.33301 7.33301 8.66602 11 15.999 11h14c7.33301 0 12.666 -3.66699 15.999 -11l119 -363c1.33301 -4.66699 1 -9 -1 -13s-5.33301 -6.66699 -10 -8c-1.33301 0 -2.16602 -0.166992 -2.49902 -0.5
s-1.16602 -0.5 -2.49902 -0.5c-7.33301 0 -12.666 4 -15.999 12l-111 338l-237 -638c-3.33301 -6.66699 -8.66602 -10 -15.999 -10zM614.998 1c-7.33301 0 -12.667 3.33301 -16 10l-80 218h-222c-5.33301 0 -9.5 1.66699 -12.5 5s-4.5 7.33301 -4.5 12
c0 10.667 5.66699 16 17 16h234c6.66699 0 11.667 -3 15 -9l84 -230c3.33301 -10.667 0 -17.667 -10 -21zM160.997 54c-13.333 4 -18.335 11.332 -15.002 21.999l139 410c4 7.33301 9.33301 11 16 11c1.33301 0 2.33301 -0.166992 3 -0.5s1.33398 -0.5 2.00098 -0.5
c4.66699 -1.33301 8 -4.16602 10 -8.49902s2.33301 -8.5 1 -12.5l-140 -410c-3.33301 -7.33301 -8.66602 -11 -15.999 -11zM507.995 54.999c-8 0 -12.999 3.66699 -14.999 11l-25 75h-199c-4.66699 0 -8.5 1.66699 -11.5 5s-4.5 7.33301 -4.5 12c0 10.667 5.33301 16 16 16
h211c7.33301 0 12.666 -3.66699 15.999 -11l28 -87c1.33301 -4 1 -8 -1 -12s-5.33301 -6.66699 -10 -8zM504.996 299.999c-7.33301 0 -12.667 3.66699 -16 11l-100 307c-3.33301 10.667 0 17.667 10 21c1.33301 0.666992 3 1 5 1c8 0 13.333 -3.66699 16 -11l101 -307
c1.33301 -4.66699 1 -9 -1 -13s-5.33301 -6.66699 -10 -8zM142.995 -1.00098c-7.33301 2 -12.332 5.16797 -14.999 9.50098s-3.33398 9.16602 -2.00098 14.499c3.33301 8.66699 9 13 17 13c1.33301 0 2.33301 -0.166992 3 -0.5s1.66699 -0.5 3 -0.5
c4.66699 -2 8 -5.16699 10 -9.5s2.33301 -8.83301 1 -13.5v-1c-3.33301 -8 -9 -12 -17 -12z" />
    <glyph glyph-name="b" unicode="b" horiz-adv-x="639" 
d="M108 1c-4.66699 0 -8.66406 1.50195 -11.9971 4.50195s-5 7.16699 -5 12.5v665c0 4.66699 1.66699 8.5 5 11.5s7.33301 4.5 12 4.5h168c30.667 0 60.5 -2.5 89.5 -7.5s54.833 -14.167 77.5 -27.5s40.834 -31.666 54.501 -54.999s20.5 -53.333 20.5 -90
c0 -10.667 -1 -21 -3 -31c-0.666992 -5.33301 -2.83398 -9 -6.50098 -11s-7.83398 -3 -12.501 -3c-4.66699 1.33301 -8.33398 3.66602 -11.001 6.99902s-3.33398 7.33301 -2.00098 12c0.666992 4 1.16699 8.16699 1.5 12.5s0.5 8.83301 0.5 13.5
c0 31.333 -6 56.666 -18 75.999s-28 34.166 -48 44.499s-42.333 17.333 -67 21s-50 5.5 -76 5.5h-152v-648c0 -11.333 -5.33301 -17 -16 -17zM340.003 1.00195h-143.001c-10.667 0 -16 5.33301 -16 16c0 4.66699 1.5 8.66699 4.5 12s6.83301 5 11.5 5h143
c54.667 0 96.167 15.667 124.5 47s42.5 74 42.5 128c0 56.667 -14.5 99.167 -43.5 127.5s-71.5 42.5 -127.5 42.5h-62c-4.66699 0 -8.66699 1.5 -12 4.5s-5 6.83301 -5 11.5s1.66699 8.66699 5 12s7.33301 5 12 5h62c64.667 0 114.834 -17.333 150.501 -52
s53.5 -85 53.5 -151c0 -63.333 -17.333 -113.833 -52 -151.5s-84 -56.5 -148 -56.5zM314.002 90.002l-118.001 0.000976562c-10.667 0 -16 5.66699 -16 17v491c0 10.667 5.33301 16 16 16h102c28 0 50.333 -3.66699 67 -11s29.5 -16.5 38.5 -27.5s14.833 -22.667 17.5 -35
s4 -23.5 4 -33.5c0 -4 -0.166992 -9.33301 -0.5 -16s-1.5 -13.334 -3.5 -20.001s-4.66699 -12.334 -8 -17.001s-7.66602 -7 -12.999 -7c-3.33301 0 -5.66602 0.333008 -6.99902 1c-4 2 -6.83301 5.16699 -8.5 9.5s-1.5 8.5 0.5 12.5c4.66699 10 7 22.333 7 37
c0 29.333 -9 49 -27 59s-40.333 15 -67 15h-85v-458h101c16 0 30.667 0.666992 44 2s24.666 4.66602 33.999 9.99902s16.5 13.333 21.5 24s7.5 25.334 7.5 44.001s-2.5 33.667 -7.5 45s-12.333 20.333 -22 27s-21 11.167 -34 13.5s-27.5 3.5 -43.5 3.5h-40
c-4.66699 0 -8.5 1.66699 -11.5 5s-4.5 7.33301 -4.5 12c0 10.667 5.33301 16 16 16h40c20.667 0 39.5 -2 56.5 -6s31.667 -10.833 44 -20.5s22 -22.167 29 -37.5s10.5 -34.666 10.5 -57.999c0 -24 -3.5 -43.333 -10.5 -58s-16.667 -26.167 -29 -34.5s-27 -13.833 -44 -16.5
s-35.833 -4 -56.5 -4zM481.001 420.003c-8 2 -13.333 5.16602 -16 9.49902s-3 9.16602 -1 14.499c2 8 7.66699 12 17 12c2.66699 0 4.66699 -0.333008 6 -1c4.66699 -1.33301 8 -4.16602 10 -8.49902s2.33301 -9.16602 1 -14.499c-3.33301 -8 -9 -12 -17 -12z" />
    <glyph glyph-name="c" unicode="c" horiz-adv-x="706" 
d="M151 416c-14 4 -19.334 11.332 -16.001 21.999c8 24 19.333 46.333 34 67s31.667 38.667 51 54s40.833 27.166 64.5 35.499s48.5 12.5 74.5 12.5c33.333 0 64.666 -6.83301 93.999 -20.5s55 -32.834 77 -57.501c3.33301 -3.33301 4.83301 -7.16602 4.5 -11.499
s-2.16602 -8.16602 -5.49902 -11.499c-2.66699 -2.66699 -6.33398 -4 -11.001 -4s-8.66699 1.66699 -12 5c-19.333 21.333 -41.666 37.833 -66.999 49.5s-52 17.5 -80 17.5c-22.667 0 -44.167 -3.66699 -64.5 -11s-38.833 -17.666 -55.5 -30.999
s-31.167 -28.833 -43.5 -46.5s-21.833 -37.167 -28.5 -58.5c-3.33301 -7.33301 -8.66602 -11 -15.999 -11zM358.999 92.999c-33.333 0 -63.9961 6.49902 -91.9961 19.499s-52.5 30.5 -73.5 52.5s-37.833 47.5 -50.5 76.5s-19.667 59.5 -21 91.5h-64
c-10.667 0 -16 5.33301 -16 16c0 45.333 7.83301 89 23.5 131s37.667 79.167 66 111.5s62 58.333 101 78s81.833 29.5 128.5 29.5c34 0 66.5 -5.5 97.5 -16.5s59.333 -26.333 85 -46s48.334 -43 68.001 -70s35.167 -56.167 46.5 -87.5
c1.33301 -4.66699 1.16602 -9.16699 -0.500977 -13.5s-4.83398 -7.16602 -9.50098 -8.49902c-0.666992 0 -1.33398 -0.166992 -2.00098 -0.5s-1.66699 -0.5 -3 -0.5c-6.66699 0 -12 3.66699 -16 11c-10 28 -23.833 54.167 -41.5 78.5s-38 45.5 -61 63.5s-48.333 32 -76 42
s-56.834 15 -87.501 15c-40.667 0 -78.167 -8.33301 -112.5 -25s-64 -39 -89 -67s-44.833 -60 -59.5 -96s-23 -73.333 -25 -112h63c4.66699 0 8.5 -1.66699 11.5 -5s4.5 -7.33301 4.5 -12c0 -28.667 5 -56.5 15 -83.5s24 -50.833 42 -71.5s39.667 -37.167 65 -49.5
s53 -18.5 83 -18.5c39.333 0 75.333 10.667 108 32s57.667 51 75 89c3.33301 6 8.33301 9 15 9c2.66699 0 5 -0.333008 7 -1c4 -2 6.66699 -5.16699 8 -9.5s1.33301 -8.5 0 -12.5c-20 -42 -48.833 -75.833 -86.5 -101.5s-79.834 -38.5 -126.501 -38.5zM361.003 -1.00195
c-36 0 -70.6699 6.33203 -104.003 18.999s-63.666 30.5 -90.999 53.5s-50.833 50.5 -70.5 82.5s-34.167 67 -43.5 105c-1.33301 4.66699 -0.666016 8.83398 2.00098 12.501s6.33398 6.16699 11.001 7.5c4 0 8 -0.833008 12 -2.5s6.33301 -4.83398 7 -9.50098
c8 -32 20.5 -62.333 37.5 -91s37.5 -53.667 61.5 -75s51 -38.166 81 -50.499s62.333 -18.5 97 -18.5c30.667 0 60.167 5.16699 88.5 15.5s54.333 24.833 78 43.5s44.5 41 62.5 67s32 55 42 87c2 8 7.33301 12 16 12c0.666992 0 1.33398 -0.166992 2.00098 -0.5
s1.66699 -0.5 3 -0.5c9.33301 -3.33301 13 -10.333 11 -21c-11.333 -35.333 -27 -67.5 -47 -96.5s-43.333 -53.833 -70 -74.5s-55.834 -36.667 -87.501 -48s-64.5 -17 -98.5 -17zM550 454.997c-7.33301 2 -12.3311 5.16602 -14.998 9.49902
s-3.33398 9.16602 -2.00098 14.499c3.33301 8 9 12 17 12c2.66699 0 4.66699 -0.333008 6 -1c4.66699 -1.33301 8 -4.16602 10 -8.49902s2.33301 -9.16602 1 -14.499c-2.66699 -8 -8.33398 -12 -17.001 -12z" />
    <glyph glyph-name="d" unicode="d" horiz-adv-x="700" 
d="M222 664c-4.66699 0 -8.66992 1.50195 -12.0029 4.50195s-5 6.83301 -5 11.5s1.66699 8.66699 5 12s7.33301 5 12 5h108c28.667 0 56.334 -4.66699 83.001 -14s51.334 -22 74.001 -38s43 -35.167 61 -57.5s32.333 -46.5 43 -72.5c21.333 -50 32 -106.667 32 -170
c0 -46.667 -6 -90.834 -18 -132.501s-30.167 -78 -54.5 -109s-54.833 -55.667 -91.5 -74s-79.667 -27.5 -129 -27.5h-107c-4.66699 0 -8.66699 1.5 -12 4.5s-5 6.83301 -5 11.5v501c0 5.33301 1.66699 9.5 5 12.5s7.33301 4.5 12 4.5c10.667 0 16 -5.66699 16 -17v-484h91
c52.667 0 99.834 13.167 141.501 39.5s72.167 64.166 91.5 113.499c18 44 27 96.333 27 157c0 48 -7.16699 94.167 -21.5 138.5s-39.833 82.833 -76.5 115.5c-27.333 24 -55.833 40.833 -85.5 50.5s-55.167 14.5 -76.5 14.5h-108zM134.997 1.00195
c-4.66699 0 -8.50098 1.66992 -11.501 5.00293s-4.5 7.33301 -4.5 12v577c0 4.66699 1.5 8.66699 4.5 12s6.83301 5 11.5 5h173c46 0 86.833 -12.667 122.5 -38s62.834 -58.333 81.501 -99c15.333 -36.667 23 -77.667 23 -123c0 -28.667 -3.16699 -56.334 -9.5 -83.001
s-16.166 -51.167 -29.499 -73.5s-30.333 -42 -51 -59s-45.334 -30.167 -74.001 -39.5c-12 0 -19 3.66699 -21 11c-1.33301 4.66699 -1 9 1 13s5.33301 6.66699 10 8c10.667 3.33301 24 9.16602 40 17.499s31.5 21 46.5 38s27.833 39 38.5 66s16 60.833 16 101.5
c0 34.667 -5.16699 67.167 -15.5 97.5s-28.5 57.5 -54.5 81.5c-17.333 15.333 -36.833 27.166 -58.5 35.499s-43.5 12.5 -65.5 12.5h-156v-561c0 -4.66699 -1.66699 -8.66699 -5 -12s-7.33301 -5 -12 -5zM310.996 86.0049c-8 2 -13.334 5.16797 -16.001 9.50098
s-3 9.16602 -1 14.499c1.33301 6 4.33301 9.5 9 10.5s9.33398 1.5 14.001 1.5c4.66699 -2 8 -5.16699 10 -9.5s2.33301 -8.83301 1 -13.5v-1c-3.33301 -8 -9 -12 -17 -12z" />
    <glyph glyph-name="e" unicode="e" horiz-adv-x="545" 
d="M95 -2c-4.66699 0 -8.66699 1.66699 -12 5s-5 7.33301 -5 12v290c0 4.66699 1.66699 8.66699 5 12s7.33301 5 12 5h273c4.66699 0 8.66699 -1.66699 12 -5s5 -7.33301 5 -12s-1.66699 -8.5 -5 -11.5s-7.33301 -4.5 -12 -4.5h-257v-258h347c10.667 0 16 -5.33301 16 -16
c0 -4.66699 -1.5 -8.66699 -4.5 -12s-6.83301 -5 -11.5 -5h-363zM95 376c-4.66699 0 -8.66699 1.66699 -12 5s-5 7.33301 -5 12v292c0 4.66699 1.66699 8.66699 5 12s7.33301 5 12 5s8.5 -1.66699 11.5 -5s4.5 -7.33301 4.5 -12v-276h257c4.66699 0 8.66699 -1.5 12 -4.5
s5 -6.83301 5 -11.5s-1.66699 -8.66699 -5 -12s-7.33301 -5 -12 -5h-273zM456 612c4.66699 0 8.66699 -1.66699 12 -5s5 -7.33301 5 -12s-1.66699 -8.5 -5 -11.5s-7.33301 -4.5 -12 -4.5h-259v-112c0 -4.66699 -1.66699 -8.66699 -5 -12s-7.33301 -5 -12 -5
s-8.5 1.66699 -11.5 5s-4.5 7.33301 -4.5 12v128c0 4.66699 1.5 8.66699 4.5 12s6.83301 5 11.5 5h276zM177 666c-4.66699 0 -8.5 1.66699 -11.5 5s-4.5 7.33301 -4.5 12c0 10.667 5.33301 16 16 16h281c4.66699 0 8.66699 -1.5 12 -4.5s5 -6.83301 5 -11.5
s-1.66699 -8.66699 -5 -12s-7.33301 -5 -12 -5h-281zM180 251c4.66699 0 8.66699 -1.5 12 -4.5s5 -7.16699 5 -12.5v-118h200c4.66699 0 8.66699 -1.66699 12 -5s5 -7.33301 5 -12s-1.66699 -8.5 -5 -11.5s-7.33301 -4.5 -12 -4.5h-217c-10.667 0 -16 5.33301 -16 16v135
c0 11.333 5.33301 17 16 17zM459 117c4.66699 -1.33301 8.00098 -4.16602 10.001 -8.49902s2.33301 -8.83301 1 -13.5v-1c-3.33301 -8 -9 -12 -17 -12c-7.33301 2 -12.333 5.16699 -15 9.5s-3.33398 9.16602 -2.00098 14.499c3.33301 8 9 12 17 12
c2.66699 0 4.66699 -0.333008 6 -1z" />
    <glyph glyph-name="f" unicode="f" horiz-adv-x="504" 
d="M156 380c-10.667 0 -16 5.33301 -16 16v126c0 4.66699 1.5 8.66699 4.5 12s6.83301 5 11.5 5s8.66699 -1.66699 12 -5s5 -7.33301 5 -12v-109h257c4.66699 0 8.5 -1.66699 11.5 -5s4.5 -7.33301 4.5 -12c0 -10.667 -5.33301 -16 -16 -16h-274zM154 670
c-10.667 0 -16 5.66699 -16 17c0 10.667 5.33301 16 16 16h282c4.66699 0 8.66699 -1.5 12 -4.5s5 -6.83301 5 -11.5c0 -5.33301 -1.66699 -9.5 -5 -12.5s-7.33301 -4.5 -12 -4.5h-282zM140 17v291c0 5.33301 1.33301 9.33301 4 12c4.66699 3.33301 8.66699 5 12 5h231
c4.66699 0 8.66699 -1.5 12 -4.5s5 -7.16699 5 -12.5c0 -4.66699 -1.66699 -8.5 -5 -11.5s-7.33301 -4.5 -12 -4.5h-214v-275c0 -4.66699 -1.66699 -8.5 -5 -11.5s-7.33301 -4.5 -12 -4.5c-10.667 0 -16 5.33301 -16 16zM66 1c-10.667 0 -16 5.33301 -16 16v581
c0 10.667 5.33301 16 16 16h314c11.333 0 17 -5.33301 17 -16c0 -4.66699 -1.5 -8.66699 -4.5 -12s-7.16699 -5 -12.5 -5h-297v-564c0 -4.66699 -1.66699 -8.5 -5 -11.5s-7.33301 -4.5 -12 -4.5zM442 615c4.66699 -1.33301 8.16797 -4.16797 10.501 -8.50098
s2.5 -9.16602 0.5 -14.499c-2 -8 -7.66699 -12 -17 -12c-7.33301 2 -12.333 5.16699 -15 9.5s-3.33398 8.83301 -2.00098 13.5v1c3.33301 8 9 12 17 12c2.66699 0 4.66699 -0.333008 6 -1z" />
    <glyph glyph-name="g" unicode="g" horiz-adv-x="751" 
d="M173 350c0 -32 4.49902 -62.167 13.499 -90.5s22.167 -52.833 39.5 -73.5s38.833 -37 64.5 -49s55.167 -18 88.5 -18c31.333 0 58.5 5.66699 81.5 17s42.5 26.666 58.5 45.999s28.5 41.666 37.5 66.999s14.5 52 16.5 80h-233c-10.667 0 -16 5.33301 -16 16
c0 4.66699 1.5 8.66699 4.5 12s6.83301 5 11.5 5h250c4.66699 0 8.5 -1.66699 11.5 -5s4.5 -7.33301 4.5 -12c0 -38 -5.5 -72.833 -16.5 -104.5s-26.5 -59 -46.5 -82s-44 -40.833 -72 -53.5s-58.667 -19 -92 -19c-38 0 -72 7 -102 21s-55 33 -75 57s-35.333 52 -46 84
s-16 66 -16 102c0 40 7 76.167 21 108.5s32.333 59.833 55 82.5s48.334 40 77.001 52s57.334 18 86.001 18c22.667 0 45.5 -3.33301 68.5 -10s44.5 -16 64.5 -28c3.33301 -2 5.66602 -5.33301 6.99902 -10s0.666016 -8.66699 -2.00098 -12
c-2.66699 -5.33301 -7.33398 -8 -14.001 -8c-4 0 -6.66699 0.666992 -8 2c-17.333 10.667 -36.166 18.834 -56.499 24.501s-40.166 8.5 -59.499 8.5c-30.667 0 -58.667 -6.5 -84 -19.5s-47 -30.167 -65 -51.5s-32 -45.666 -42 -72.999s-15 -55.333 -15 -84zM484.999 240
h-145c-4.66699 0 -8.5 1.66699 -11.5 5s-4.5 7.33301 -4.5 12c0 10.667 5.33301 16 16 16h145c11.333 0 17 -5.33301 17 -16c0 -4.66699 -1.5 -8.66699 -4.5 -12s-7.16699 -5 -12.5 -5zM379.999 -5c-46 0 -88.8389 9.16699 -128.506 27.5s-74.167 43.5 -103.5 75.5
s-52.5 69.5 -69.5 112.5s-25.5 89.5 -25.5 139.5c0 47.333 8 92.166 24 134.499s38.5 79.333 67.5 111s63.833 56.834 104.5 75.501s85.334 28 134.001 28c28 0 56 -4 84 -12s54.5 -19.167 79.5 -33.5s48 -31.666 69 -51.999s38.5 -42.5 52.5 -66.5
c2.66699 -4 3.33398 -8.16699 2.00098 -12.5s-3.66602 -7.83301 -6.99902 -10.5c-2 -1.33301 -5 -2 -9 -2c-6 0 -10.667 2.66699 -14 8c-13.333 22 -29.333 42 -48 60s-39.167 33.5 -61.5 46.5s-46.166 23.167 -71.499 30.5s-50.666 11 -75.999 11
c-44.667 0 -85.167 -8.33301 -121.5 -25s-67.5 -39.5 -93.5 -68.5s-46.167 -62.667 -60.5 -101s-21.5 -78.833 -21.5 -121.5c0 -44.667 7.5 -86.667 22.5 -126s35.833 -73.333 62.5 -102s57.834 -51.334 93.501 -68.001s74.167 -25 115.5 -25
c46.667 0 87.334 8.66699 122.001 26s63.667 40.833 87 70.5s41.666 63.667 54.999 102s22.666 78.5 27.999 120.5c0.666992 4.66699 2.66699 8.5 6 11.5s7.33301 3.83301 12 2.5c10.667 -1.33301 15.334 -7.33301 14.001 -18c-6 -54.667 -18 -103.5 -36 -146.5
s-40.833 -79.5 -68.5 -109.5s-60 -53 -97 -69s-77.833 -24 -122.5 -24zM546.993 506c-7.33301 2.66699 -12.332 6.16504 -14.999 10.498s-3.33398 8.83301 -2.00098 13.5v1c2 8 7.66699 12 17 12c2.66699 0 4.66699 -0.333008 6 -1c4.66699 -1.33301 8 -4.16602 10 -8.49902
s2.33301 -9.16602 1 -14.499c-3.33301 -8.66699 -9 -13 -17 -13z" />
    <glyph glyph-name="h" unicode="h" horiz-adv-x="663" 
d="M169 223c0 10.667 5.66699 16 17 16c10.667 0 16 -5.33301 16 -16v-203c0 -10.667 -5.33301 -16 -16 -16c-11.333 0 -17 5.33301 -17 16v203zM477 451c-10.667 0 -16 5.33301 -16 16v212c0 4.66699 1.5 8.66699 4.5 12s6.83301 5 11.5 5c5.33301 0 9.5 -1.66699 12.5 -5
s4.5 -7.33301 4.5 -12v-212c0 -10.667 -5.66699 -16 -17 -16zM566 7c-4.66699 0 -8.5 1.66699 -11.5 5s-4.5 7.33301 -4.5 12v586c0 10.667 5.33301 16 16 16c4.66699 0 8.66699 -1.5 12 -4.5s5 -6.83301 5 -11.5v-586c0 -4.66699 -1.66699 -8.66699 -5 -12
s-7.33301 -5 -12 -5zM186 372c-5.33301 0 -9.5 1.66699 -12.5 5s-4.5 7.33301 -4.5 12v291c0 10.667 5.66699 16 17 16c10.667 0 16 -5.33301 16 -16v-275h275c11.333 0 17 -5.33301 17 -16v-308c0 -4.66699 -1.5 -8.66699 -4.5 -12s-7.16699 -5 -12.5 -5
c-4.66699 0 -8.5 1.66699 -11.5 5s-4.5 7.33301 -4.5 12v291h-275zM97 373c-4.66699 0 -8.66699 1.5 -12 4.5s-5 6.83301 -5 11.5v291c0 4.66699 1.66699 8.5 5 11.5s7.33301 4.5 12 4.5c10.667 0 16 -5.33301 16 -16v-291c0 -10.667 -5.33301 -16 -16 -16zM97 7
c-4.66699 0 -8.66699 1.66699 -12 5s-5 7.33301 -5 12v274c0 4.66699 1.66699 8.66699 5 12s7.33301 5 12 5h301c4.66699 0 8.5 -1.66699 11.5 -5s4.5 -7.33301 4.5 -12c0 -10.667 -5.33301 -16 -16 -16h-285v-258c0 -4.66699 -1.5 -8.66699 -4.5 -12s-6.83301 -5 -11.5 -5z
M484 43c4.66699 -2 8.00098 -5.16797 10.001 -9.50098s2.33301 -8.83301 1 -13.5v-1c-3.33301 -8 -9 -12 -17 -12c-7.33301 2 -12.333 5.33301 -15 10s-3.33398 9.33398 -2.00098 14.001c2 8.66699 7.66699 13 17 13c1.33301 0 2.33301 -0.166992 3 -0.5
s1.66699 -0.5 3 -0.5z" />
    <glyph glyph-name="i" unicode="i" horiz-adv-x="275" 
d="M166 73v259h-75c-10.667 0 -16 5.33301 -16 16v335c0 4.66699 1.5 8.66699 4.5 12s6.83301 5 11.5 5s8.66699 -1.66699 12 -5s5 -7.33301 5 -12v-318h74c4.66699 0 8.66699 -1.66699 12 -5s5 -7.33301 5 -12v-275c0 -4.66699 -1.66699 -8.5 -5 -11.5
s-7.33301 -4.5 -12 -4.5c-10.667 0 -16 5.33301 -16 16zM76 258c0 10.667 5.33301 16 16 16c11.333 0 17 -5.33301 17 -16v-242c0 -10.667 -5.66699 -16 -17 -16c-10.667 -0 -16 5.33301 -16 16v242zM199 437c0 -4.66699 -1.66699 -8.5 -5 -11.5s-7.33301 -4.5 -12 -4.5
c-10.667 0 -16 5.33301 -16 16v172c0 4.66699 1.5 8.66699 4.5 12s6.83301 5 11.5 5s8.66699 -1.66699 12 -5s5 -7.33301 5 -12v-172zM176 0c-4.66699 1.33301 -8 4.33301 -10 9s-2.33301 9.33398 -1 14.001v1c3.33301 8 9 12 17 12c1.33301 0 2.33301 -0.166992 3 -0.5
s1.66699 -0.5 3 -0.5c5.33301 -1.33301 9 -4.33301 11 -9s2 -9.33398 0 -14.001v-1c-2 -8 -7.66699 -12 -17 -12z" />
    <glyph glyph-name="j" unicode="j" horiz-adv-x="542" 
d="M98 118c-18.667 34.667 -27.998 75.6689 -27.998 123.002c0 4.66699 1.5 8.66699 4.5 12s7.16699 5 12.5 5c4.66699 0 8.5 -1.66699 11.5 -5s4.5 -7.33301 4.5 -12c0 -34.667 6 -66.5 18 -95.5s32.333 -54.167 61 -75.5c22.667 -16 44.334 -26.5 65.001 -31.5
s34.667 -7.5 42 -7.5c3.33301 -0.666992 6.16602 -1 8.49902 -1h7.5c7.33301 0 15.166 0.5 23.499 1.5s15.5 3.16699 21.5 6.5v541h-171c-4.66699 0 -8.5 1.66699 -11.5 5s-4.5 7.33301 -4.5 12c0 10.667 5.33301 16 16 16h187c4.66699 0 8.66699 -1.5 12 -4.5
s5 -6.83301 5 -11.5v-568c0 -8.66699 -4 -14 -12 -16c-9.33301 -6.66699 -20.333 -10.834 -33 -12.501s-23.667 -2.5 -33 -2.5c-20.667 0 -41.334 2.66699 -62.001 8s-40.167 13.166 -58.5 23.499s-35 23 -50 38s-27.167 32.167 -36.5 51.5zM182.002 202.002
c1.33301 0.666992 3.66602 1 6.99902 1c7.33301 0 12.333 -3 15 -9c8 -17.333 19.833 -32.166 35.5 -44.499s33.167 -20.5 52.5 -24.5c4.66699 -1.33301 8.16699 -3.83301 10.5 -7.5s2.83301 -7.83398 1.5 -12.501c-1.33301 -8.66699 -6.66602 -13 -15.999 -13
c-26 5.33301 -49 15.833 -69 31.5s-35 34.5 -45 56.5c-2 4 -2.16699 8.16699 -0.5 12.5s4.5 7.5 8.5 9.5zM87.002 665.002c-4.66699 0 -8.66699 1.5 -12 4.5s-5 7.16699 -5 12.5c0 4.66699 1.66699 8.5 5 11.5s7.33301 4.5 12 4.5h368c4.66699 0 8.66699 -1.5 12 -4.5
s5 -6.83301 5 -11.5v-544c0 -4.66699 -1.66699 -8.5 -5 -11.5s-7.33301 -4.5 -12 -4.5c-10.667 0 -16 5.33301 -16 16v527h-352zM183.002 259.002c4.66699 -1.33301 8 -4.33203 10 -8.99902s2.33301 -9.33398 1 -14.001c-3.33301 -8.66699 -9 -13 -17 -13
c-8 2.66699 -13.333 6.16699 -16 10.5s-3 8.83301 -1 13.5v1c2 8 7.66699 12 17 12c2.66699 0 4.66699 -0.333008 6 -1z" />
    <glyph glyph-name="k" unicode="k" horiz-adv-x="668" 
d="M121 379c-4.66699 0 -8.5 1.66699 -11.5 5s-4.5 7.33301 -4.5 12v287c0 4.66699 1.5 8.66699 4.5 12s6.83301 5 11.5 5s8.66699 -1.66699 12 -5s5 -7.33301 5 -12v-287c0 -4.66699 -1.66699 -8.66699 -5 -12s-7.33301 -5 -12 -5zM105 78l0.000976562 173.001
c0 4 1 7.33301 3 10l342 435c3.33301 4 7.66602 6 12.999 6c4 0 7.33301 -1 10 -3c9.33301 -6.66699 10.333 -14.334 3 -23.001l-338 -431v-167c0 -4.66699 -1.66699 -8.66699 -5 -12s-7.33301 -5 -12 -5s-8.5 1.66699 -11.5 5s-4.5 7.33301 -4.5 12zM226.001 498.001
c0 -4.66699 -1.66699 -8.66699 -5 -12s-7.33301 -5 -12 -5s-8.5 1.66699 -11.5 5s-4.5 7.33301 -4.5 12v96c0 10.667 5.33301 16 16 16c4.66699 0 8.66699 -1.5 12 -4.5s5 -6.83301 5 -11.5v-96zM209.001 4.00098c-10.667 0 -16 5.33398 -16 16.001v185c0 4.66699 1 8 3 10
l59 75c3.33301 4 7.66602 6 12.999 6c6 0 10.333 -2 13 -6l200 -262c6 -8.66699 5 -16.334 -3 -23.001c-2.66699 -2 -6 -3 -10 -3c-5.33301 0 -9.66602 2 -12.999 6l-187 245l-42 -53v-180c0 -4.66699 -1.66699 -8.5 -5 -11.5s-7.33301 -4.5 -12 -4.5zM599.001 699.002
c8.66699 -7.33301 9.33203 -15.0029 1.99902 -23.0029l-251 -318l252 -328c2.66699 -3.33301 3.66699 -7.16602 3 -11.499s-3 -8.16602 -7 -11.499c-2 -2 -5.33301 -3 -10 -3s-9 2 -13 6l-259 338c-4.66699 6.66699 -4.66699 13.334 0 20.001l260 328
c3.33301 4 7.33301 6 12 6s8.33398 -1 11.001 -3zM103.999 27.999c3.33301 8 9.00098 12 17.001 12c2.66699 0 4.66699 -0.333008 6 -1c4.66699 -1.33301 8 -4.16602 10 -8.49902s2.33301 -8.83301 1 -13.5v-1c-2 -8 -7.66699 -12 -17 -12
c-7.33301 2 -12.333 5.16699 -15 9.5s-3.33398 9.16602 -2.00098 14.499z" />
    <glyph glyph-name="l" unicode="l" horiz-adv-x="473" 
d="M141 24c0 4.66699 1.66699 8.5 5 11.5s7.33301 4.5 12 4.5h246c10.667 0 16 -5.33301 16 -16c0 -4.66699 -1.5 -8.66699 -4.5 -12s-6.83301 -5 -11.5 -5h-246c-4.66699 0 -8.66699 1.66699 -12 5s-5 7.33301 -5 12zM66 94c-10.667 0 -16 5.33301 -16 16v579
c0 10.667 5.33301 16 16 16c11.333 0 17 -5.33301 17 -16v-562h266c5.33301 0 9.5 -1.66699 12.5 -5s4.5 -7.33301 4.5 -12c0 -10.667 -5.66699 -16 -17 -16h-283zM140 599c0 10.667 5.33301 16 16 16c4.66699 0 8.66699 -1.5 12 -4.5s5 -6.83301 5 -11.5v-409
c0 -4.66699 -1.66699 -8.5 -5 -11.5s-7.33301 -4.5 -12 -4.5c-10.667 0 -16 5.33301 -16 16v409zM405 92c-7.33301 2 -12.332 5.33301 -14.999 10s-3.33398 9.33398 -2.00098 14.001v1c3.33301 8 9 12 17 12c1.33301 0 2.33301 -0.166992 3 -0.5s1.66699 -0.5 3 -0.5
c5.33301 -1.33301 9 -4.33301 11 -9s2 -9.33398 0 -14.001v-1c-2 -8 -7.66699 -12 -17 -12z" />
    <glyph glyph-name="m" unicode="m" horiz-adv-x="831" 
d="M647 31c4.66699 -1.33301 8.00098 -4.16699 10.001 -8.5s2.33301 -9.16602 1 -14.499c-2 -8 -7.66699 -12 -17 -12c-7.33301 2 -12.333 5.16699 -15 9.5s-3.33398 9.16602 -2.00098 14.499c3.33301 8 9 12 17 12c2.66699 0 4.66699 -0.333008 6 -1zM202.001 -3.00098
c-4.66699 0 -8.5 1.66699 -11.5 5s-4.5 7.33301 -4.5 12v313c0 10.667 5.33301 16 16 16c4.66699 0 8.66699 -1.5 12 -4.5s5 -6.83301 5 -11.5v-313c0 -4.66699 -1.66699 -8.66699 -5 -12s-7.33301 -5 -12 -5zM374.001 374.999c-6.66699 0 -11.668 2.66699 -15.001 8
l-131 236c-2.66699 4 -3.33398 8.16699 -2.00098 12.5s4 7.83301 8 10.5c4 1.33301 6.66699 2 8 2c6.66699 0 11.334 -3 14.001 -9l132 -235c2.66699 -4 3.33398 -8.16699 2.00098 -12.5s-4 -7.83301 -8 -10.5c-4 -1.33301 -6.66699 -2 -8 -2zM114 -3.00098
c-4.66699 0 -8.66699 1.66797 -12 5.00098s-5 7.33301 -5 12v666c0 8.66699 4.33301 14 13 16c4 0 7.5 -0.5 10.5 -1.5s5.5 -3.5 7.5 -7.5l236 -452l224 400c3.33301 5.33301 8 8 14 8c4 0 6.66699 -0.666992 8 -2c4 -2 6.66699 -5.16699 8 -9.5s1 -8.5 -1 -12.5l-239 -427
c-4 -6.66699 -9 -9.33398 -15 -8.00098c-7.33301 0 -12 2.66699 -14 8l-219 420v-598c0 -4.66699 -1.5 -8.66699 -4.5 -12s-6.83301 -5 -11.5 -5zM641 53c-10.667 0 -16 5.33301 -16 16v258c0 10.667 5.33301 16 16 16c4.66699 0 8.66699 -1.5 12 -4.5s5 -6.83301 5 -11.5
v-258c0 -4.66699 -1.66699 -8.5 -5 -11.5s-7.33301 -4.5 -12 -4.5zM731 -3c-4.66699 0 -8.66797 1.66699 -12.001 5s-5 7.33301 -5 12v601l-290 -531c-3.33301 -6 -8.33301 -9 -15 -9c-2 0 -4.66699 1 -8 3c-4 2 -6.66699 5.16699 -8 9.5s-0.666016 8.5 2.00098 12.5
l321 588c2 3.33301 4.66699 5.5 8 6.5s7 1.5 11 1.5c8 -2 12 -7.33301 12 -16v-666c0 -4.66699 -1.5 -8.66699 -4.5 -12s-6.83301 -5 -11.5 -5z" />
    <glyph glyph-name="n" unicode="n" 
d="M190 64c0 -10.667 -5.66699 -16 -17 -16c-10.667 0 -16 5.33301 -16 16v283c0 11.333 5.33301 17 16 17c11.333 0 17 -5.66699 17 -17v-283zM85 -2c-10.667 0 -16.002 5.33301 -16.002 16v668c0 8.66699 4 14 12 16c0.666992 0 1.33398 0.166992 2.00098 0.5
s1.33398 0.5 2.00098 0.5c6 0 10.667 -2.66699 14 -8l412 -668c6 -9.33301 4.33301 -17 -5 -23c-4 -1.33301 -7 -2 -9 -2c-6 0 -10.667 2.66699 -14 8l-381 618v-610c0 -4.66699 -1.66699 -8.5 -5 -11.5s-7.33301 -4.5 -12 -4.5zM214.998 625
c-6 9.33301 -4.33496 17 4.99805 23c2 1.33301 5 2 9 2c6.66699 0 11.334 -2.33301 14.001 -7l238 -379v418c0 4.66699 1.5 8.66699 4.5 12s6.83301 5 11.5 5s8.66699 -1.66699 12 -5s5 -7.33301 5 -12v-475c0 -8.66699 -4 -14 -12 -16
c-9.33301 0 -15.666 2.33301 -18.999 7zM584.996 643c5.33301 0 9.5 -1.66699 12.5 -5s4.5 -7.33301 4.5 -12v-612c0 -10.667 -5.66699 -16 -17 -16c-10.667 0 -16 5.33301 -16 16v612c0 4.66699 1.5 8.66699 4.5 12s6.83301 5 11.5 5zM579.996 665
c-5.33301 1.33301 -8.99805 4.33301 -10.998 9s-2.33301 9.33398 -1 14.001h1c2 8.66699 7.66699 13 17 13c1.33301 0 2.16602 -0.166992 2.49902 -0.5s1.16602 -0.5 2.49902 -0.5c11.333 -4.66699 15.333 -12.334 12 -23.001l-1 -1c-2 -8 -7.66699 -12 -17 -12z" />
    <glyph glyph-name="o" unicode="o" horiz-adv-x="714" 
d="M34 354c0 32 4.16992 63.6602 12.5029 94.9932s20.333 60.833 36 88.5s34.834 52.834 57.501 75.501s48.334 41.334 77.001 56.001c1.33301 1.33301 4 2 8 2c6 0 10.667 -2.66699 14 -8c2.66699 -4.66699 3.16699 -9.16699 1.5 -13.5s-4.5 -7.5 -8.5 -9.5
c-26 -14 -49.333 -31.167 -70 -51.5s-38 -43 -52 -68s-24.667 -51.667 -32 -80s-11 -57.166 -11 -86.499c0 -40.667 7.16699 -80.167 21.5 -118.5s34.333 -72.166 60 -101.499s56.334 -52.833 92.001 -70.5s74.834 -26.5 117.501 -26.5s81.667 8.83301 117 26.5
s65.833 41.334 91.5 71.001s45.667 63.5 60 101.5s21.5 77.333 21.5 118c0 39.333 -6.66699 77.5 -20 114.5s-32 70 -56 99s-52.833 52.833 -86.5 71.5s-70.834 29.334 -111.501 32.001v-71c0 -10.667 -5.33301 -16 -16 -16c-30.667 0 -58.667 -6.33301 -84 -19
s-46.833 -29.667 -64.5 -51s-31.334 -45.666 -41.001 -72.999s-14.5 -55.666 -14.5 -84.999c0 -28.667 4.83301 -56.667 14.5 -84s23.5 -51.666 41.5 -72.999s39.5 -38.333 64.5 -51s52.833 -19 83.5 -19s58.667 6.33301 84 19s47 29.5 65 50.5s31.833 45.167 41.5 72.5
s14.5 55.666 14.5 84.999c0 48 -11.5 91 -34.5 129s-54.167 65.667 -93.5 83c-4 1.33301 -6.83301 4.16602 -8.5 8.49902s-1.5 8.5 0.5 12.5c2 6.66699 7 10 15 10c2.66699 0 4.66699 -0.333008 6 -1c22.667 -10 43 -23.167 61 -39.5s33.5 -35 46.5 -56s23 -43.833 30 -68.5
s10.5 -50.667 10.5 -78c0 -34 -5.83301 -66.667 -17.5 -98s-27.834 -59 -48.501 -83s-45.667 -43.167 -75 -57.5s-61.666 -21.5 -96.999 -21.5s-67.5 7.33301 -96.5 22s-54 34 -75 58s-37.167 51.667 -48.5 83s-17 63.666 -17 96.999c0 32 5.16699 63.167 15.5 93.5
s25.166 57.333 44.499 81s42.5 43.334 69.5 59.001s57.167 24.5 90.5 26.5v72c0 10.667 5.66699 16 17 16c47.333 0 90.666 -9.83301 129.999 -29.5s73.333 -45.667 102 -78s51 -69.5 67 -111.5s24 -85.667 24 -131s-8 -89.166 -24 -131.499s-38.333 -79.666 -67 -111.999
s-62.834 -58.166 -102.501 -77.499s-82.834 -29 -129.501 -29c-47.333 0 -90.833 9.66699 -130.5 29s-73.834 45.166 -102.501 77.499s-51 69.666 -67 111.999s-24 86.166 -24 131.499zM260.003 681.993c2 8 7.66699 12.001 17 12.001c2.66699 0 4.66699 -0.333008 6 -1
c4.66699 -1.33301 8 -4.33301 10 -9s2.33301 -9.33398 1 -14.001c-3.33301 -8.66699 -9 -13 -17 -13c-8 2.66699 -13.333 6.16699 -16 10.5s-3 8.83301 -1 13.5v1z" />
    <glyph glyph-name="p" unicode="p" horiz-adv-x="530" 
d="M196 74c-10.667 0 -16.001 5.33398 -16.001 16.001v215c0 10.667 5.33301 16 16 16h78c8.66699 0 21.5 2.33301 38.5 7s34.167 13.667 51.5 27c40.667 33.333 61 82.666 61 147.999c0 23.333 -3.33301 45 -10 65s-16.334 37.167 -29.001 51.5s-28.5 25.666 -47.5 33.999
s-40.5 12.5 -64.5 12.5h-79c-4.66699 0 -8.66699 1.66699 -12 5s-5 7.33301 -5 12s1.66699 8.5 5 11.5s7.33301 4.5 12 4.5h79c29.333 0 55.5 -5 78.5 -15s42.333 -23.833 58 -41.5s27.5 -38.5 35.5 -62.5s12 -49.667 12 -77c0 -32.667 -5.66699 -64.5 -17 -95.5
s-30.333 -56.833 -57 -77.5c-19.333 -15.333 -39.166 -26.166 -59.499 -32.499s-37.166 -9.5 -50.499 -9.5h-61v-198c0 -4.66699 -1.66699 -8.5 -5 -11.5s-7.33301 -4.5 -12 -4.5zM89.999 594.001c0 4.66699 1.49805 8.66602 4.49805 11.999s7.16699 5 12.5 5h130
c18 0 35.167 -2.16699 51.5 -6.5s30.5 -11.166 42.5 -20.499s21.667 -21.333 29 -36s11 -32 11 -52s-3.5 -37.333 -10.5 -52s-16.667 -27.167 -29 -37.5s-26.666 -18 -42.999 -23s-33.5 -7.5 -51.5 -7.5h-41c-10.667 0 -16 5.33301 -16 16v70c0 10.667 5.33301 16 16 16
c4.66699 0 8.66699 -1.5 12 -4.5s5 -6.83301 5 -11.5v-53h24c27.333 0 51 7 71 21s30 36 30 66c0 15.333 -2.83301 28.166 -8.5 38.499s-13 18.833 -22 25.5s-19.667 11.334 -32 14.001s-25.166 4 -38.499 4h-114v-564c0 -4.66699 -1.5 -8.66699 -4.5 -12
s-6.83301 -5 -11.5 -5c-5.33301 0 -9.5 1.66699 -12.5 5s-4.5 7.33301 -4.5 12v580zM190.997 501c-5.33301 1.33301 -9 4.16504 -11 8.49805s-2.33301 8.83301 -1 13.5v1c3.33301 8 9.33301 12 18 12c2 0 3.66699 -0.333008 5 -1c5.33301 -1.33301 9 -4.16602 11 -8.49902
s2.33301 -9.16602 1 -14.499h-1c-2 -8 -7.66699 -12 -17 -12z" />
    <glyph glyph-name="q" unicode="q" horiz-adv-x="769" 
d="M753 -20c-15.333 0.666992 -31.8359 2.50293 -49.5029 5.50293s-35.5 7.83301 -53.5 14.5s-35.667 15.5 -53 26.5s-33.333 25.5 -48 43.5c-28 -23.333 -58.667 -41.166 -92 -53.499s-68 -18.5 -104 -18.5c-47.333 0 -90.833 9.83301 -130.5 29.5s-73.667 45.667 -102 78
s-50.5 69.666 -66.5 111.999s-24 86.166 -24 131.499c0 32 4 63.333 12 94s19.5 59.5 34.5 86.5s33.5 51.667 55.5 74s47 41.5 75 57.5c2 1.33301 4.66699 2 8 2c6.66699 0 11.667 -2.66699 15 -8c4.66699 -9.33301 2.33398 -17 -6.99902 -23
c-25.333 -14 -48 -31.333 -68 -52s-36.833 -43.167 -50.5 -67.5s-24 -50.5 -31 -78.5s-10.5 -56.333 -10.5 -85c0 -40.667 7 -80.167 21 -118.5s33.833 -72.333 59.5 -102s56.334 -53.334 92.001 -71.001s74.834 -26.5 117.501 -26.5c34.667 0 68.167 6.66699 100.5 20
s61.166 31.666 86.499 54.999c2.66699 2.66699 6.66699 4 12 4c4 0 8 -2 12 -6l1 -2c22.667 -32 50.5 -54.167 83.5 -66.5s68.167 -19.833 105.5 -22.5c4.66699 -0.666992 8.5 -2.66699 11.5 -6s4.16699 -7.33301 3.5 -12c-1.33301 -10 -6.66602 -15 -15.999 -15z
M752.997 68.0029c-66.667 10 -119 37.3311 -157 81.998c-4.66699 4.66699 -5.33398 10.667 -2.00098 18l4.5 10l11 24c4.33301 9.33301 8.66602 19.333 12.999 30s7.5 20 9.5 28l1 7c3.33301 13.333 5.83301 26.833 7.5 40.5s2.5 27.5 2.5 41.5
c0 39.333 -6.5 77.333 -19.5 114s-31.5 69.667 -55.5 99s-52.833 53.333 -86.5 72s-70.834 29 -111.501 31v-70c0 -4.66699 -1.66699 -8.66699 -5 -12s-7.33301 -5 -12 -5c-30.667 0 -58.5 -6.33301 -83.5 -19s-46.5 -29.667 -64.5 -51s-31.833 -45.666 -41.5 -72.999
s-14.5 -55.333 -14.5 -84c0 -29.333 4.83301 -57.666 14.5 -84.999s23.5 -51.5 41.5 -72.5s39.667 -38 65 -51s53.333 -19.5 84 -19.5c20.667 0 40.167 3.33301 58.5 10s35.833 15.667 52.5 27c-19.333 21.333 -40.166 37.666 -62.499 48.999s-45.166 17 -68.499 17
c-10.667 0 -16 5.33301 -16 16c0 4.66699 1.5 8.66699 4.5 12s6.83301 5 11.5 5c30.667 0 60.334 -7.83301 89.001 -23.5s55 -38.167 79 -67.5c3.33301 -3.33301 4.33301 -7.33301 3 -12c0 -4 -2 -7.66699 -6 -11c-18 -18 -40.5 -31.667 -67.5 -41s-52.833 -14 -77.5 -14
c-35.333 0 -67.666 7.33301 -96.999 22s-54.333 34 -75 58s-36.834 51.833 -48.501 83.5s-17.5 64.167 -17.5 97.5c0 32 5.16699 63.167 15.5 93.5s25.166 57.333 44.499 81s42.666 43.167 69.999 58.5s57.666 24.333 90.999 27v71c0 4.66699 1.5 8.66699 4.5 12
s6.83301 5 11.5 5c47.333 0 90.833 -9.66699 130.5 -29s73.667 -45.333 102 -78s50.5 -70 66.5 -112s24 -85.667 24 -131c0 -32.667 -3.33301 -62.667 -10 -90l-2 -7c-3.33301 -14 -9 -29.833 -17 -47.5s-14.333 -31.167 -19 -40.5c32 -34 74.667 -55 128 -63
c4.66699 -1.33301 8.33398 -3.66602 11.001 -6.99902s3.33398 -7.33301 2.00098 -12c-1.33301 -9.33301 -6.66602 -14 -15.999 -14zM537.997 195.001c-6 0 -10.6641 2.00098 -13.9971 6.00098c-22 30.667 -49.5 55.167 -82.5 73.5s-68.5 27.5 -106.5 27.5
c-10 0 -15.667 5.33301 -17 16c0 6.66699 2.16699 11.167 6.5 13.5s9.16602 3.5 14.499 3.5c36 0 71.333 -8.66699 106 -26s64 -39.333 88 -66l7 17c5.33301 11.333 9.16602 22.166 11.499 32.499s3.5 16.166 3.5 17.499c1.33301 6.66699 2.33301 13.334 3 20.001
s1 13.667 1 21c0 47.333 -11.667 90 -35 128s-54.333 65.667 -93 83c-4 2 -6.83301 5 -8.5 9s-1.5 8.33301 0.5 13c2 6.66699 7 10 15 10c1.33301 0 3.33301 -0.666992 6 -2c22.667 -10 43 -23 61 -39s33.5 -34.5 46.5 -55.5s23 -44 30 -69s10.5 -50.833 10.5 -77.5
c0 -8 -0.333008 -16 -1 -24s-1.66699 -15.667 -3 -23c-0.666992 -1.33301 -2.33398 -7.83301 -5.00098 -19.5s-7 -24.167 -13 -37.5l-17 -42c-2 -6.66699 -6.33301 -10 -13 -10h-2zM267 651.002c-8 2 -13.333 5.16699 -16 9.5s-3.33398 9.16602 -2.00098 14.499h1
c2 8 7.66699 12 17 12c2.66699 0 4.33398 -0.333008 5.00098 -1c5.33301 -1.33301 9 -4.16602 11 -8.49902s2.33301 -8.83301 1 -13.5v-1c-3.33301 -8 -9 -12 -17 -12z" />
    <glyph glyph-name="r" unicode="r" horiz-adv-x="645" 
d="M200 209c10.667 0 16 -5.33301 16 -16v-174c0 -11.333 -5.33301 -17 -16 -17c-4.66699 0 -8.66699 1.5 -12 4.5s-5 7.16699 -5 12.5v174c0 4.66699 1.66699 8.5 5 11.5s7.33301 4.5 12 4.5zM403 75c2.66699 -3.33301 3.49805 -7.33203 2.49805 -11.999
s-3.16699 -8.33398 -6.5 -11.001c-2.66699 -2 -6 -3 -10 -3c-5.33301 0 -9.66602 2.66699 -12.999 8l-194 288c-6 9.33301 -4.33301 17 5 23c2 2 5 3 9 3c4.66699 0 9.33398 -2.33301 14.001 -7zM127.998 585.001l-0.00195312 -565.998c0 -11.333 -5.33301 -17 -16 -17
c-11.333 0 -17 5.66699 -17 17v582c0 4.66699 1.5 8.66699 4.5 12s7.16699 5 12.5 5h199c24 0 46.167 -2.16699 66.5 -6.5s37.666 -11.833 51.999 -22.5s25.5 -24.834 33.5 -42.501s12 -39.834 12 -66.501c0 -94 -52.667 -141 -158 -141h-31
c-4.66699 0 -8.66699 1.66699 -12 5s-5 7.33301 -5 12s1.66699 8.5 5 11.5s7.33301 4.5 12 4.5h31c38.667 0 69.167 7.66699 91.5 23s33.5 43.666 33.5 84.999c0 21.333 -3.16699 38.833 -9.5 52.5s-15.166 24.334 -26.499 32.001s-25.166 13 -41.499 16
s-34.166 4.5 -53.499 4.5h-183zM371.996 265.003l161.999 -237.002c6 -9.33301 4.66699 -17 -4 -23c-2.66699 -2 -5.66699 -3 -9 -3c-6 0 -10.667 2.33301 -14 7l-178 262c-4 4.66699 -4.33301 10.334 -1 17.001c3.33301 6 8.33301 9 15 9c28 0 53.667 4.33301 77 13
s43.333 21 60 37s29.5 35.333 38.5 58s13.5 48.334 13.5 77.001c0 64 -16 110.167 -48 138.5s-79 42.5 -141 42.5h-142c-10.667 0 -16 5.66699 -16 17c0 10.667 5.33301 16 16 16h142c70.667 0 125.334 -17.167 164.001 -51.5s58 -88.5 58 -162.5
c0 -61.333 -17.167 -110.833 -51.5 -148.5s-81.5 -60.5 -141.5 -68.5zM425.995 37.001c5.33301 -1.33301 9.00098 -4.16797 11.001 -8.50098s2.33301 -9.16602 1 -14.499h-1c-2 -8 -7.66699 -12 -17 -12c-7.33301 2 -12.333 5.16699 -15 9.5s-3.33398 8.83301 -2.00098 13.5
v1c3.33301 8 9 12 17 12c2.66699 0 4.66699 -0.333008 6 -1z" />
    <glyph glyph-name="s" unicode="s" horiz-adv-x="608" 
d="M122 378c-36.667 33.333 -53.3311 72.9971 -49.998 118.997c0 1.33301 0.166992 4.66602 0.5 9.99902s1.66602 11.833 3.99902 19.5s5.83301 15.834 10.5 24.501s11.334 17 20.001 25c21.333 21.333 46.5 34.333 75.5 39s57.833 7 86.5 7
c9.33301 -0.666992 24 -2.5 44 -5.5s40 -10.167 60 -21.5c50 -27.333 74 -70 72 -128c-1.33301 -10 -7 -15 -17 -15c-5.33301 0 -9.5 1.66699 -12.5 5s-4.16699 7.33301 -3.5 12c1.33301 24.667 -3.66699 45 -15 61c-6 10.667 -14 19.5 -24 26.5s-21 12.833 -33 17.5
s-24.167 8.16699 -36.5 10.5s-24.166 3.83301 -35.499 4.5c-24 0 -48.5 -1.66699 -73.5 -5s-46.5 -13.666 -64.5 -30.999c-12.667 -12 -20 -24 -22 -36s-3 -18.667 -3 -20c-0.666992 -19.333 2 -36.5 8 -51.5s15.333 -28.5 28 -40.5s27.834 -23.167 45.501 -33.5
s37.5 -20.166 59.5 -29.499l15 -7l71.5 -32.5c21.667 -10.333 40.167 -21.166 55.5 -32.499c17.333 -11.333 29.666 -24 36.999 -38c9.33301 -16 11.666 -32.667 6.99902 -50c-2 -8 -7.33301 -12 -16 -12c-6.66699 1.33301 -11.334 3.83301 -14.001 7.5
s-3.33398 7.83398 -2.00098 12.501c5.33301 20 -5.66699 38.333 -33 55s-67 36.667 -119 60l-15 6c-18.667 8.66699 -38 18.167 -58 28.5s-37.667 23.166 -53 38.499zM297.003 -2.00293c-34 2 -65.833 9.33008 -95.5 21.9971s-55.167 30.334 -76.5 53.001
c-20.667 22 -36.167 46.667 -46.5 74s-14.833 56 -13.5 86c1.33301 10.667 7.33301 16 18 16c4.66699 -0.666992 8.5 -2.5 11.5 -5.5s4.16699 -7.16699 3.5 -12.5c-2 -52 15 -97 51 -135c18.667 -19.333 40.667 -34.666 66 -45.999s53 -17.666 83 -18.999
c5.33301 0 9.5 -1.66699 12.5 -5s4.16699 -7.33301 3.5 -12c0 -4.66699 -1.66699 -8.5 -5 -11.5s-7 -4.5 -11 -4.5h-1zM499.003 128.994c-23.333 -24.667 -49.502 -39.9951 -78.502 -45.9951s-59.5 -9 -91.5 -9c-16 0.666992 -32.5 3 -49.5 7s-33 9.66699 -48 17
s-28.5 16.666 -40.5 27.999s-21.333 25 -28 41c-1.33301 4 -1.16602 8.16699 0.500977 12.5s4.5 7.5 8.5 9.5c1.33301 0 2.33301 0.166992 3 0.5s1.66699 0.5 3 0.5c7.33301 0 12.666 -3.33301 15.999 -10c5.33301 -13.333 13 -24.333 23 -33s21.333 -15.834 34 -21.501
s25.834 -9.83398 39.501 -12.501s26.834 -4.66699 39.501 -6c16.667 0 34 1 52 3s35 6.33301 51 13s30 15.834 42 27.501s20.333 27.167 25 46.5c0.666992 16.667 0 30 -2 40s-7 19.667 -15 29c-10 11.333 -26 23.5 -48 36.5s-52.333 28.167 -91 45.5
c-28.667 12.667 -54.167 24.667 -76.5 36s-41.166 22.666 -56.499 33.999c-39.333 29.333 -56 60.333 -50 93c1.33301 6 3.83301 9.66699 7.5 11s7.83398 2 12.501 2c4.66699 -0.666992 8.16699 -2.83398 10.5 -6.50098s3.16602 -7.83398 2.49902 -12.501
c-2 -11.333 1 -22.5 9 -33.5s19.667 -21.667 35 -32s33.5 -20.666 54.5 -30.999s42.833 -20.5 65.5 -30.5c42 -19.333 74.5 -36 97.5 -50s40.167 -27.667 51.5 -41c13.333 -14.667 21.166 -29.334 23.499 -44.001s2.83301 -30.667 1.5 -48c0 -1.33301 -2 -8.83301 -6 -22.5
s-13 -28.167 -27 -43.5zM479.001 621.999c39.333 -43.333 57.3311 -96.332 53.998 -158.999c-1.33301 -10.667 -7 -16 -17 -16c-12 1.33301 -17.333 7.33301 -16 18c1.33301 26 -2 50.667 -10 74s-20 43.666 -36 60.999c-17.333 19.333 -39.166 34.5 -65.499 45.5
s-55.833 17.5 -88.5 19.5c-4.66699 0 -8.66699 1.66699 -12 5s-4.66602 7.33301 -3.99902 12c0 4.66699 1.66699 8.5 5 11.5s7.33301 4.5 12 4.5c76 -4 135.333 -29.333 178 -76zM186.999 222c-3.33301 -8 -9 -12 -17 -12c-8 2 -13.333 5.33301 -16 10s-3 9.33398 -1 14.001
v1c2 8 7.66699 12 17 12c1.33301 0 2.33301 -0.166992 3 -0.5s1.66699 -0.5 3 -0.5c4.66699 -1.33301 8 -4.33301 10 -9s2.33301 -9.33398 1 -14.001v-1z" />
    <glyph glyph-name="t" unicode="t" horiz-adv-x="603" 
d="M278 16c0 -10.667 -5.33301 -16 -16 -16c-4.66699 0 -8.66699 1.5 -12 4.5s-5 6.83301 -5 11.5v241c0 5.33301 1.66699 9.5 5 12.5s7.33301 4.5 12 4.5c10.667 0 16 -5.66699 16 -17v-241zM335 437v156c0 4.66699 1.66699 8.66699 5 12s7.33301 5 12 5h185
c5.33301 0 9.5 -1.66699 12.5 -5s4.5 -7.33301 4.5 -12c0 -10.667 -5.66699 -16 -17 -16h-169v-140c0 -10.667 -5.33301 -16 -16 -16c-4.66699 0 -8.66699 1.5 -12 4.5s-5 6.83301 -5 11.5zM184 610c4.66699 0 8.5 -1.66699 11.5 -5s4.5 -7.33301 4.5 -12
c0 -10.667 -5.33301 -16 -16 -16h-122c-11.333 0 -17 5.33301 -17 16c0 4.66699 1.5 8.66699 4.5 12s7.16699 5 12.5 5h122zM277 681v-316h75c4.66699 0 8.5 -1.66699 11.5 -5s4.5 -7.33301 4.5 -12v-255c0 -11.333 -5.33301 -17 -16 -17c-4.66699 0 -8.66699 1.5 -12 4.5
s-5 7.16699 -5 12.5v239h-74c-4.66699 0 -8.66699 1.5 -12 4.5s-5 6.83301 -5 11.5v317h-182c-11.333 0 -17 5.33301 -17 16c0 11.333 5.66699 17 17 17h199c10.667 0 16 -5.66699 16 -17zM352 698h130c10.667 0 16 -5.66699 16 -17c0 -10.667 -5.33301 -16 -16 -16h-130
c-4.66699 0 -8.66699 1.5 -12 4.5s-5 6.83301 -5 11.5c0 5.33301 1.66699 9.5 5 12.5s7.33301 4.5 12 4.5zM543 699c5.33301 -1.33301 9 -4.33203 11 -8.99902s2.33301 -9.33398 1 -14.001h-1c-2 -8.66699 -7.66699 -13 -17 -13c-7.33301 2.66699 -12.333 6.16699 -15 10.5
s-3.33398 8.83301 -2.00098 13.5l1 1c2 8 7.66699 12 17 12c2.66699 0 4.33398 -0.333008 5.00098 -1z" />
    <glyph glyph-name="u" unicode="u" horiz-adv-x="689" 
d="M148 593c0 4.66699 1.50098 8.66602 4.50098 11.999s7.16699 5 12.5 5c4.66699 0 8.5 -1.66699 11.5 -5s4.5 -7.33301 4.5 -12v-257c0 -19.333 2 -38.833 6 -58.5s10 -38.667 18 -57s18.333 -35.166 31 -50.499s27.334 -28.333 44.001 -39
c4 -2.66699 6.66699 -6.16699 8 -10.5s0.666016 -8.5 -2.00098 -12.5c-2.66699 -4.66699 -7.33398 -7 -14.001 -7c-4 0 -7 0.666992 -9 2c-36 22 -64.167 53.833 -84.5 95.5s-30.5 87.5 -30.5 137.5v257zM60.001 337.999l0.000976562 334.998c0 4.66699 1.5 8.66699 4.5 12
s7.16699 5 12.5 5c4.66699 0 8.5 -1.66699 11.5 -5s4.5 -7.33301 4.5 -12v-335c0 -42 6.16699 -81.5 18.5 -118.5s29 -69.667 50 -98s45.833 -51.333 74.5 -69s59.334 -27.834 92.001 -30.501v70c0 4.66699 1.5 8.66699 4.5 12s6.83301 5 11.5 5
c29.333 0 54.333 7.33301 75 22s37.5 33 50.5 55s22.5 46.333 28.5 73s9 52.334 9 77.001v279c0 5.33301 1.66699 9.5 5 12.5s7.33301 4.5 12 4.5c10.667 0 16 -5.66699 16 -17v-279c0 -28 -3.33301 -56.667 -10 -86s-17.334 -56.166 -32.001 -80.499
s-33.334 -45 -56.001 -62s-49.667 -27.167 -81 -30.5v-72c0 -4.66699 -1.66699 -8.66699 -5 -12s-7.33301 -5 -12 -5c-45.333 0 -85.5 10.667 -120.5 32s-64.667 48.833 -89 82.5s-42.833 71.334 -55.5 113.001s-19 82.5 -19 122.5zM416.002 25.9971
c30 11.333 56.168 27.834 78.501 49.501s41 46.334 56 74.001s26.333 57.167 34 88.5s11.5 62 11.5 92v342c0 4.66699 1.5 8.66699 4.5 12s6.83301 5 11.5 5s8.66699 -1.66699 12 -5s5 -7.33301 5 -12v-342c0 -32.667 -4.33301 -66.334 -13 -101.001
s-21.334 -67.334 -38.001 -98.001s-37.5 -58 -62.5 -82s-54.167 -41.667 -87.5 -53c-11.333 -2 -18.333 1 -21 9c-2 4.66699 -2 9 0 13s5 6.66699 9 8zM530.003 688.998c4.66699 -2 8.00098 -5.16797 10.001 -9.50098s2.33301 -8.83301 1 -13.5v-1
c-3.33301 -8 -9 -12 -17 -12c-7.33301 2 -12.333 5.33301 -15 10s-3.33398 9.33398 -2.00098 14.001v1c3.33301 8 9 12 17 12c1.33301 0 2.33301 -0.166992 3 -0.5s1.66699 -0.5 3 -0.5z" />
    <glyph glyph-name="v" unicode="v" horiz-adv-x="697" 
d="M320 0c-8 0 -13.333 3.66699 -16 11l-236 661c-1.33301 4.66699 -1 9 1 13s5 7 9 9c1.33301 0 2.33301 0.166992 3 0.5s1.66699 0.5 3 0.5c7.33301 0 12.333 -3.66699 15 -11l236 -661c3.33301 -10 0 -17.333 -10 -22zM392 259
c-7.33301 1.33301 -12.168 4.16699 -14.501 8.5s-2.83301 8.5 -1.5 12.5l119 346c3.33301 7.33301 8.66602 11 15.999 11c2.66699 0 4.33398 -0.333008 5.00098 -1c4.66699 -1.33301 8 -4 10 -8s2.33301 -8.33301 1 -13l-119 -345
c-3.33301 -7.33301 -8.66602 -11 -15.999 -11zM395.998 0.000976562c-8.66699 1.33301 -14 5.33203 -16 11.999l-198 591c-3.33301 10.667 0 17.667 10 21c1.33301 0.666992 3 1 5 1c8.66699 0 14 -3.66699 16 -11l183 -546l215 615c2 8 7 12 15 12
c1.33301 0 2.33301 -0.166992 3 -0.5s1.66699 -0.5 3 -0.5c4 -1.33301 7 -4.16602 9 -8.49902s2.33301 -8.5 1 -12.5l-231 -661c-2 -8 -7 -12 -15 -12zM530.998 660c-7.33301 2 -12.332 5.16797 -14.999 9.50098s-3.33398 9.16602 -2.00098 14.499c2 6 5 9.5 9 10.5
s8.66699 1.5 14 1.5c4.66699 -2 8 -5.16699 10 -9.5s2.33301 -8.83301 1 -13.5v-1c-3.33301 -8 -9 -12 -17 -12z" />
    <glyph glyph-name="w" unicode="w" horiz-adv-x="833" 
d="M633 329c-12 2 -17.333 8.33301 -16 19l42 280c1.33301 9.33301 6.66602 14 15.999 14c0.666992 0 1.33398 -0.333008 2.00098 -1c4.66699 -0.666992 8.5 -2.66699 11.5 -6s3.83301 -7.33301 2.5 -12l-41 -279c-2 -10 -7.66699 -15 -17 -15zM560 52
c-7.33301 0 -12.333 3.33301 -15 10l-97 236c-2 4 -2.16699 8.16699 -0.5 12.5s4.83398 7.16602 9.50098 8.49902c2.66699 1.33301 4.66699 2 6 2c8 0 13 -3.66699 15 -11l98 -236c1.33301 -4 1.16602 -8.16699 -0.500977 -12.5s-4.5 -7.16602 -8.5 -8.49902zM683 -1
c-6.66699 0 -11.667 3.33301 -15 10l-195 447l-185 -394c-3.33301 -6.66699 -8.33301 -10 -15 -10c-2 0 -4.33301 0.666992 -7 2c-4 2 -6.83301 5.16699 -8.5 9.5s-1.5 8.5 0.5 12.5l200 426c3.33301 6.66699 8.33301 10 15 10c8 0 13 -3.33301 15 -10l187 -427l88 609
c0.666992 4.66699 2.66699 8.16699 6 10.5s7.33301 3.5 12 3.5c4.66699 -0.666992 8.5 -2.66699 11.5 -6s3.83301 -7.33301 2.5 -12l-95 -667c-1.33301 -8 -6.33301 -12.667 -15 -14h-2zM190 335c-4 0 -7.5 1.5 -10.5 4.5s-5.16699 6.5 -6.5 10.5l-41 330
c-1.33301 10.667 3.33398 16.667 14.001 18c4.66699 0 8.66699 -1.16699 12 -3.5s5.33301 -5.83301 6 -10.5l42 -330c1.33301 -10.667 -3.33398 -16.667 -14.001 -18zM150 -1c-10 2 -15.666 6.66602 -16.999 13.999l-95 667c-1.33301 4.66699 -0.5 8.66699 2.5 12
s6.83301 5.33301 11.5 6c4.66699 0 8.66699 -1.16699 12 -3.5s5.33301 -5.83301 6 -10.5l88 -612l256 539c3.33301 6 8.33301 9 15 9c3.33301 0 5.66602 -0.666992 6.99902 -2c4 -1.33301 6.83301 -4.16602 8.5 -8.49902s1.5 -8.5 -0.5 -12.5l-279 -588
c-3.33301 -6.66699 -8.33301 -10 -15 -10zM683.001 661.999c-7.33301 2 -12.332 5.33301 -14.999 10s-3.33398 9.33398 -2.00098 14.001v1c3.33301 8 9 12 17 12c1.33301 0 2.33301 -0.166992 3 -0.5s1.66699 -0.5 3 -0.5c5.33301 -1.33301 9 -4.33301 11 -9
s2 -9.33398 0 -14.001v-1c-2 -8 -7.66699 -12 -17 -12z" />
    <glyph glyph-name="x" unicode="x" 
d="M318 257c-3.33301 5.33301 -3.3291 11.333 0.00390625 18l266 418c3.33301 4.66699 8 7 14 7c2 0 5 -0.666992 9 -2c3.33301 -2.66699 5.66602 -6.16699 6.99902 -10.5s0.666016 -8.5 -2.00098 -12.5l-261 -409l125 -197c6 -9.33301 4.33301 -17 -5 -23
c-2.66699 -1.33301 -5.33398 -2 -8.00098 -2c-6.66699 0 -11.334 2.33301 -14.001 7zM610.004 21c2.66699 -3.33301 3.5 -7.33203 2.5 -11.999s-3.5 -8.33398 -7.5 -11.001c-2.66699 -1.33301 -5.66699 -2 -9 -2c-5.33301 0 -10 2.66699 -14 8l-169 266
c-6 9.33301 -4.33301 17 5 23c3.33301 2 6.33301 3 9 3c6 0 10.667 -2.66699 14 -8zM376.004 499.001c-3.33301 2.66699 -5.66699 6.16699 -7 10.5s-0.666016 8.5 2.00098 12.5l79 123c3.33301 5.33301 8 8 14 8c3.33301 0 6 -1 8 -3c9.33301 -6 11 -13.667 5 -23l-78 -123
c-2.66699 -4.66699 -7.33398 -7 -14.001 -7c-4 0 -7 0.666992 -9 2zM58.0029 -1.99902c-4 2.66699 -6.5 6.33301 -7.5 11s-0.166992 8.66699 2.5 12l260 409l-155 245c-6 9.33301 -4.33301 17 5 23c2.66699 1.33301 5.33398 2 8.00098 2c6 0 10.667 -2.33301 14 -7l161 -254
c4.66699 -5.33301 4.66699 -11 0 -17l-266 -418c-3.33301 -5.33301 -8 -8 -14 -8c-2.66699 0 -5.33398 0.666992 -8.00098 2zM224.003 408l-169.998 267c-2.66699 4 -3.33398 8.16699 -2.00098 12.5s3.66602 7.83301 6.99902 10.5c4 1.33301 7 2 9 2
c6 0 10.667 -2.33301 14 -7l170 -267c4.66699 -9.33301 3 -17 -5 -23c-2.66699 -2 -5.66699 -3 -9 -3c-6 0 -10.667 2.66699 -14 8zM200.005 42c-2.66699 0 -5.66895 1 -9.00195 3c-3.33301 2.66699 -5.66602 6.16699 -6.99902 10.5s-0.666016 8.5 2.00098 12.5l79 124
c4 4.66699 8.66699 7 14 7c4 0 7 -0.666992 9 -2c9.33301 -6 11 -13.667 5 -23l-79 -124c-3.33301 -5.33301 -8 -8 -14 -8zM476.003 690c2 8 7.66895 11.998 17.002 11.998c2.66699 0 4.66699 -0.333008 6 -1c4.66699 -1.33301 8 -4.16602 10 -8.49902
s2.33301 -9.16602 1 -14.499c-2.66699 -8 -8.33398 -12 -17.001 -12c-7.33301 2 -12.333 5.16699 -15 9.5s-3.33398 8.83301 -2.00098 13.5v1z" />
    <glyph glyph-name="y" unicode="y" horiz-adv-x="618" 
d="M49 694c1.33301 1.33301 3.66699 2 7 2c6.66699 0 11.667 -2.66699 15 -8l215 -396c1.33301 -1.33301 2 -4 2 -8v-269c0 -10.667 -5.33301 -16 -16 -16c-4.66699 0 -8.66699 1.5 -12 4.5s-5 6.83301 -5 11.5v265l-213 392c-2 4 -2.33301 8.16699 -1 12.5s4 7.5 8 9.5z
M374.001 15c0 -10.667 -5.33301 -16 -16 -16c-4.66699 0 -8.66699 1.5 -12 4.5s-5 6.83301 -5 11.5v203c0 4.66699 1.66699 8.5 5 11.5s7.33301 4.5 12 4.5c10.667 0 16 -5.33301 16 -16v-203zM177.001 645c1.33301 1.33301 4 2 8 2c6 0 10.667 -2.66699 14 -8l161 -295
l187 344c3.33301 5.33301 8 8 14 8c4 0 6.66699 -0.666992 8 -2c4 -2 6.66699 -5.16699 8 -9.5s1 -8.5 -1 -12.5l-201 -370c-3.33301 -5.33301 -8.33301 -8 -15 -8h-1c-6 0 -10.667 2.66699 -14 8l-175 321c-2 4 -2.33301 8.16699 -1 12.5s4 7.5 8 9.5zM348.001 479
c-4 0 -6.66699 0.666992 -8 2c-4 2 -6.66699 5.16699 -8 9.5s-1 8.5 1 12.5l78 141c3.33301 6 8 9 14 9c1.33301 0 4 -0.666992 8 -2c4 -2 6.66699 -5.33301 8 -10s1 -9 -1 -13l-78 -141c-3.33301 -5.33301 -8 -8 -14 -8zM164.001 697
c4.66699 -1.33301 8.00098 -4.16602 10.001 -8.49902s2.33301 -8.83301 1 -13.5v-1c-3.33301 -8 -9 -12 -17 -12c-7.33301 2 -12.333 5.16699 -15 9.5s-3.33398 9.16602 -2.00098 14.499c3.33301 8 9 12 17 12c2.66699 0 4.66699 -0.333008 6 -1z" />
    <glyph glyph-name="z" unicode="z" horiz-adv-x="655" 
d="M280 121h226c4.66699 0 8.66699 -1.5 12 -4.5s5 -6.83301 5 -11.5c0 -5.33301 -1.66699 -9.5 -5 -12.5s-7.33301 -4.5 -12 -4.5h-226c-4.66699 0 -8.66699 1.5 -12 4.5s-5 7.16699 -5 12.5c0 4.66699 1.66699 8.5 5 11.5s7.33301 4.5 12 4.5zM576 543
c8.66699 -7.33301 9.33105 -15 1.99805 -23l-439 -487h424c4.66699 0 8.66699 -1.5 12 -4.5s5 -6.83301 5 -11.5s-1.66699 -8.66699 -5 -12s-7.33301 -5 -12 -5h-461c-8 -0 -13 3.33301 -15 10c-3.33301 6.66699 -2.66602 12.667 2.00098 18l464 514
c2.66699 3.33301 6.66699 5 12 5c4.66699 0 8.33398 -1.33301 11.001 -4zM348.997 580h-167c-11.333 0 -17 5.33301 -17 16c0 4.66699 1.5 8.66699 4.5 12s7.16699 5 12.5 5h167c4.66699 0 8.66699 -1.66699 12 -5s5 -7.33301 5 -12s-1.66699 -8.5 -5 -11.5
s-7.33301 -4.5 -12 -4.5zM587.997 690c3.33301 -6.66699 2.66699 -12.665 -2 -17.998l-456 -506c-4 -4 -8.33301 -6 -13 -6c-2.66699 0 -6.33398 1.66699 -11.001 5c-3.33301 3.33301 -5.16602 7.16602 -5.49902 11.499s1.16699 8.16602 4.5 11.499l431 479h-423
c-10.667 0 -16 5.33301 -16 16c0 4.66699 1.5 8.66699 4.5 12s6.83301 5 11.5 5h460c8 0 13 -3.33301 15 -10zM567.998 122.002c4.66699 -1.33301 8.00098 -4.16797 10.001 -8.50098s2.33301 -9.16602 1 -14.499c-2 -8 -7.66699 -12 -17 -12
c-7.33301 2 -12.333 5.16699 -15 9.5s-3.33398 8.83301 -2.00098 13.5v1c3.33301 8 9 12 17 12c2.66699 0 4.66699 -0.333008 6 -1z" />
    <glyph glyph-name="braceleft" unicode="{" horiz-adv-x="431" 
d="M35 246c-8.66699 5.33301 -16.666 11.8311 -23.999 19.498s-11 19.167 -11 34.5v39c0 15.333 3.66699 26.833 11 34.5s15.333 14.167 24 19.5l14 7c30.667 14.667 46 47 46 97c0 46 6.5 87.667 19.5 125s31.833 69.166 56.5 95.499s55 46.833 91 61.5
s77.333 22.667 124 24h7c10.667 0 19.667 -3.66699 27 -11s11 -16.666 11 -27.999v-66c0 -9.33301 -3.33301 -17.666 -10 -24.999s-14.667 -11.666 -24 -12.999h-6c-19.333 -2 -37.166 -7.66699 -53.499 -17s-30.333 -21.833 -42 -37.5s-20.834 -34 -27.501 -55
s-10 -43.5 -10 -67.5c0 -36.667 -5.33301 -69.334 -16 -98.001s-25.334 -50.667 -44.001 -66c21.333 -20 36.666 -45.167 45.999 -75.5s14 -59.5 14 -87.5c0 -20 2.66699 -40.167 8 -60.5s13.5 -38.833 24.5 -55.5s24.833 -30.5 41.5 -41.5s36.334 -17.5 59.001 -19.5l6 -1
c10 -1.33301 18.167 -5.66602 24.5 -12.999s9.5 -15.666 9.5 -24.999v-66c0 -10.667 -3.66699 -19.834 -11 -27.501s-16.333 -11.5 -27 -11.5h-6c-47.333 1.33301 -89.166 9.5 -125.499 24.5s-66.833 36 -91.5 63s-43.334 59 -56.001 96s-19 77.833 -19 122.5
c0 49.333 -15.333 82 -46 98zM33.001 338.998l-0.00195312 -39.0049c0 -5.33301 1.16699 -9.66602 3.5 -12.999s7.16602 -7.33301 14.499 -12l12 -6c43.333 -22 65 -64.667 65 -128c0 -41.333 5.66699 -78.666 17 -111.999s28 -61.833 50 -85.5s49.167 -42 81.5 -55
s69.5 -19.833 111.5 -20.5h5c3.33301 0 5 2 5 6v66c0 2.66699 -2 4.66699 -6 6l-5 1c-26.667 2.66699 -50.167 10.334 -70.5 23.001s-37.166 28.667 -50.499 48s-23.5 41 -30.5 65s-10.5 48.333 -10.5 73c0 11.333 -1.16699 24.5 -3.5 39.5s-6 29.667 -11 44
s-11.667 27.333 -20 39s-18.5 20.167 -30.5 25.5c-6 3.33301 -9 8.33301 -9 15s3.33301 11.667 10 15c19.333 9.33301 34.833 27.333 46.5 54s17.5 58.334 17.5 95.001c0 24.667 3.5 49.167 10.5 73.5s17.333 46.166 31 65.499s30.834 35.333 51.501 48s44.334 20 71.001 22
l4 1c3.33301 0 5 1.66699 5 5v66c0 4 -1.66699 6 -5 6h-7c-56.667 -0.666992 -105.334 -13.334 -146.001 -38.001s-71.667 -63 -93 -115c-6 -17.333 -10.667 -36.166 -14 -56.499s-5 -41.5 -5 -63.5c0 -63.333 -21.333 -105.666 -64 -126.999l-13 -6
c-7.33301 -4.66699 -12.166 -8.66699 -14.499 -12s-3.5 -7.66602 -3.5 -12.999z" />
    <glyph glyph-name="bar" unicode="|" horiz-adv-x="268" 
d="M215 -179c0 -11.333 -5.33301 -17 -16 -17h-121c-11.333 0 -17 5.66699 -17 17v1046c0 11.333 5.66699 17 17 17h121c10.667 0 16 -5.66699 16 -17v-1046zM182 -163v1014h-88v-1014h88z" />
    <glyph glyph-name="braceright" unicode="}" horiz-adv-x="431" 
d="M46 -165l-7.00098 0.00390625c-11.333 0 -20.666 3.66699 -27.999 11s-11 16.666 -11 27.999v66c-0 9.33301 3.33301 17.666 10 24.999s14.667 11.666 24 12.999h6c19.333 2 37.166 7.66699 53.499 17s30.333 21.833 42 37.5s20.834 34 27.501 55s10 43.5 10 67.5
c0 36.667 5.33301 69.334 16 98.001s25.334 50.667 44.001 66c-21.333 20 -36.666 45.167 -45.999 75.5s-14 59.5 -14 87.5c0 20 -2.66699 40.167 -8 60.5s-13.5 38.833 -24.5 55.5s-24.833 30.5 -41.5 41.5s-36.334 17.5 -59.001 19.5l-6 1
c-10 1.33301 -18.167 5.66602 -24.5 12.999s-9.5 15.666 -9.5 24.999v66c0 10.667 3.66699 19.834 11 27.501s16.666 11.5 27.999 11.5h5c47.333 -1.33301 89.166 -9.5 125.499 -24.5s66.833 -36 91.5 -63s43.334 -59 56.001 -96s19 -77.833 19 -122.5
c0 -49.333 15.333 -82 46 -98l12 -6c9.33301 -5.33301 17.833 -12 25.5 -20s11.5 -19.667 11.5 -35v-39c0 -15.333 -3.66699 -26.833 -11 -34.5s-15.333 -14.167 -24 -19.5l-14 -7c-30.667 -14.667 -46 -47 -46 -97c0 -46 -6.5 -87.5 -19.5 -124.5
s-31.833 -68.833 -56.5 -95.5s-55 -47.334 -91 -62.001s-77 -22.667 -123 -24zM44.999 -131.996c56.667 0.666992 105.336 13.3389 146.003 38.0059s71.667 63 93 115c6 17.333 10.667 36.166 14 56.499s5 41.5 5 63.5c0 63.333 21.333 105.666 64 126.999l13 6
c7.33301 4.66699 12.166 8.66699 14.499 12s3.5 7.66602 3.5 12.999v39c0 5.33301 -1.16699 9.66602 -3.5 12.999s-7.16602 7.33301 -14.499 12l-12 6c-43.333 22 -65 64.667 -65 128c0 41.333 -5.66699 78.666 -17 111.999s-28 61.833 -50 85.5s-49.167 42 -81.5 55
s-69.5 19.833 -111.5 20.5h-4c-4 0 -6 -2 -6 -6v-66c0 -2.66699 2 -4.66699 6 -6l5 -1c26.667 -2.66699 50.167 -10.334 70.5 -23.001s37.166 -28.667 50.499 -48s23.5 -41 30.5 -65s10.5 -48.333 10.5 -73c0 -11.333 1.16699 -24.5 3.5 -39.5s6 -29.667 11 -44
s11.667 -27.333 20 -39s18.5 -20.167 30.5 -25.5c6 -3.33301 9 -8.33301 9 -15s-3.33301 -11.667 -10 -15c-19.333 -9.33301 -34.833 -27.333 -46.5 -54s-17.5 -58.334 -17.5 -95.001c0 -24.667 -3.5 -49.167 -10.5 -73.5s-17.333 -46.166 -31 -65.499
s-30.834 -35.333 -51.501 -48s-44.334 -20 -71.001 -22l-4 -1c-3.33301 0 -5 -1.66699 -5 -5v-66c0 -4 2 -6 6 -6h6z" />
    <glyph glyph-name="uni00A0" unicode="&#xa0;" horiz-adv-x="210" 
 />
    <glyph glyph-name="exclamdown" unicode="&#xa1;" horiz-adv-x="288" 
d="M191 -118c-4.66699 0 -8.5 1.66699 -11.5 5s-4.5 7.33301 -4.5 12v164h-75c-10.667 0 -16 5.33301 -16 16v245c0 4.66699 1.5 8.66699 4.5 12s6.83301 5 11.5 5s8.66699 -1.66699 12 -5s5 -7.33301 5 -12v-228h74c4.66699 0 8.66699 -1.66699 12 -5s5 -7.33301 5 -12
v-180c0 -4.66699 -1.66699 -8.66699 -5 -12s-7.33301 -5 -12 -5zM206 170c0 -4.66699 -1.5 -8.66699 -4.5 -12s-6.83301 -5 -11.5 -5s-8.66699 1.66699 -12 5s-5 7.33301 -5 12v154c0 4.66699 1.66699 8.66699 5 12s7.33301 5 12 5s8.5 -1.66699 11.5 -5
s4.5 -7.33301 4.5 -12v-154zM100 7c4.66699 0 8.66699 -1.66699 12 -5s5 -7.33301 5 -12v-149c0 -5.33301 -1.66699 -9.5 -5 -12.5s-7.33301 -4.5 -12 -4.5c-10.667 0 -16 5.66699 -16 17v149c0 4.66699 1.5 8.66699 4.5 12s6.83301 5 11.5 5zM96 397
c-4.66699 0 -8.5 1.66699 -11.5 5s-4.5 7.33301 -4.5 12v94c0 10.667 5.33301 16 16 16h94c10.667 0 16 -5.33301 16 -16v-94c0 -4.66699 -1.5 -8.66699 -4.5 -12s-6.83301 -5 -11.5 -5h-94zM113 491v-61h60v61h-60zM198 -139c5.33301 -2 9.00098 -5.16797 11.001 -9.50098
s2 -8.83301 0 -13.5v-1c-2 -8 -7.66699 -12 -17 -12c-7.33301 2 -12.333 5.33301 -15 10s-3.33398 9.33398 -2.00098 14.001c3.33301 8.66699 9 13 17 13c1.33301 0 2.33301 -0.166992 3 -0.5s1.66699 -0.5 3 -0.5z" />
    <glyph glyph-name="cent" unicode="&#xa2;" horiz-adv-x="600" 
d="M122 334c12.667 40 34.3311 73.168 64.998 99.501s67.667 39.5 111 39.5c36.667 0 69.167 -9.5 97.5 -28.5s50.833 -44.5 67.5 -76.5c2 -4 2.33301 -8.16699 1 -12.5s-4 -7.5 -8 -9.5c-1.33301 -1.33301 -3.66602 -2 -6.99902 -2c-6.66699 0 -11.667 3 -15 9
c-15.333 28 -34.666 49.5 -57.999 64.5s-49.333 22.5 -78 22.5c-36 0 -66.5 -11.167 -91.5 -33.5s-42.833 -49.833 -53.5 -82.5c-2 -7.33301 -7.33301 -11 -16 -11c-7.33301 1.33301 -12 4.16602 -14 8.49902s-2.33301 8.5 -1 12.5zM471.997 167.001
c-16.667 -36 -40.501 -64.166 -71.501 -84.499s-65.167 -30.5 -102.5 -30.5c-26.667 0 -51.5 5.16699 -74.5 15.5s-43 24.333 -60 42s-30.833 38.167 -41.5 61.5s-16.667 48 -18 74h-48c-5.33301 0 -9.5 1.66699 -12.5 5s-4.5 7.33301 -4.5 12
c0 25.333 3.16699 50.5 9.5 75.5s15.5 48.667 27.5 71s26.833 42.666 44.5 60.999s37.834 33.5 60.501 45.5c1.33301 1.33301 4 2 8 2c6 0 10.667 -2.66699 14 -8c2 -4 2.5 -8.16699 1.5 -12.5s-3.5 -7.5 -7.5 -9.5c-38 -21.333 -67.5 -50.833 -88.5 -88.5
s-33.167 -77.834 -36.5 -120.501h48c10.667 0 16 -5.33301 16 -16c0 -22.667 4 -44.667 12 -66s19 -40.166 33 -56.499s31 -29.5 51 -39.5s42 -15 66 -15c30.667 0 58.834 8.5 84.501 25.5s45.5 40.5 59.5 70.5c3.33301 6 8.33301 9 15 9
c3.33301 0 5.66602 -0.333008 6.99902 -1c4 -2 6.83301 -5.16699 8.5 -9.5s1.5 -8.5 -0.5 -12.5zM525.996 345.002c-3.33301 0 -6.33105 0.999023 -8.99805 2.99902s-4.66699 4.66699 -6 8c-8 22.667 -19 43.5 -33 62.5s-30 35.667 -48 50s-38 25.5 -60 33.5
s-45.333 12 -70 12l-53 1c-10.667 0 -16 5.33301 -16 16v67c0 10.667 5.33301 16 16 16c11.333 0 17 -5.33301 17 -16v-51h30c28.667 0 56 -4.33301 82 -13s49.667 -21 71 -37s40 -35 56 -57s29 -46.333 39 -73c1.33301 -4 1.16602 -8.16699 -0.500977 -12.5
s-4.83398 -7.16602 -9.50098 -8.49902zM535.998 190.001c4 -1.33301 6.99805 -3.99902 8.99805 -7.99902s2.33301 -8.33301 1 -13c-11.333 -38 -29.333 -71.5 -54 -100.5s-54 -51.5 -88 -67.5c-2.66699 -1.33301 -5 -2 -7 -2c-6.66699 0 -11.667 3 -15 9
c-2 4.66699 -2.16699 9.16699 -0.5 13.5s4.5 7.16602 8.5 8.49902c29.333 14 54.833 34 76.5 60s37.834 55.667 48.501 89c2 8 7.33301 12 16 12c0.666992 0 1.33398 -0.166992 2.00098 -0.5s1.66699 -0.5 3 -0.5zM333.996 -144.998
c-10.667 0 -16.002 5.33398 -16.002 16.001v106l-48 2c-28 3.33301 -54.167 11.166 -78.5 23.499s-46 27.833 -65 46.5s-35.167 40 -48.5 64s-23.333 49.333 -30 76c-1.33301 4 -0.833008 7.83301 1.5 11.5s5.83301 6.16699 10.5 7.5c0.666992 0.666992 2 1 4 1
c8.66699 0 14 -4.33301 16 -13c6 -23.333 14.667 -45.5 26 -66.5s25.333 -39.667 42 -56s35.334 -29.833 56.001 -40.5s43.334 -17.667 68.001 -21l63 -2c4.66699 0 8.5 -1.66699 11.5 -5s4.5 -7.33301 4.5 -12v-122c0 -10.667 -5.66699 -16 -17 -16zM317.994 654.003
c0 10.667 5.33301 16 16 16c11.333 0 17 -5.33301 17 -16v-58c0 -10.667 -5.66699 -16 -17 -16c-10.667 0 -16 5.33301 -16 16v58zM230.994 -71.9971c0 4.66699 1.5 8.66699 4.5 12s6.83301 5 11.5 5c5.33301 0 9.5 -1.66699 12.5 -5s4.5 -7.33301 4.5 -12v-57
c0 -4.66699 -1.5 -8.66699 -4.5 -12s-7.16699 -5 -12.5 -5c-4.66699 0 -8.5 1.66699 -11.5 5s-4.5 7.33301 -4.5 12v57zM230.994 660.003c2 8 7.66699 12.001 17 12.001c2.66699 0 4.33398 -0.333008 5.00098 -1c5.33301 -1.33301 9 -4.33301 11 -9
s2.33301 -9.33398 1 -14.001c-3.33301 -8.66699 -9.33301 -13 -18 -13c-7.33301 2.66699 -12.333 6.16699 -15 10.5s-3.33398 8.83301 -2.00098 13.5z" />
    <glyph glyph-name="sterling" unicode="&#xa3;" horiz-adv-x="725" 
d="M486 -7c-14 0 -26.501 0.669922 -37.501 2.00293s-21.833 3.5 -32.5 6.5s-21.667 7 -33 12l-39 17.5l-14.5 7c-4.33301 2 -8.16602 3.66699 -11.499 5c-14.667 6.66699 -26.5 11.667 -35.5 15s-18.833 5 -29.5 5c-13.333 0 -23.666 -2.5 -30.999 -7.5
s-13.666 -14.167 -18.999 -27.5c-2 -7.33301 -7 -11 -15 -11c-2.66699 0 -4.66699 0.333008 -6 1c-4 1.33301 -7 4.16602 -9 8.49902s-2.33301 8.5 -1 12.5c7.33301 20 17.5 34.5 30.5 43.5s29.833 13.5 50.5 13.5c14 0 26.667 -2 38 -6s24.666 -9.66699 39.999 -17
c4 -1.33301 8.16699 -3 12.5 -5l13.5 -6l37 -17c10.667 -4.66699 20.667 -8.33398 30 -11.001s18.833 -4.66699 28.5 -6s20.834 -2 33.501 -2c7.33301 0 18.5 1.33301 33.5 4s30.667 9 47 19s32.5 25.167 48.5 45.5s28.667 47.833 38 82.5c2 8.66699 7.33301 13 16 13
c2 0 3.33301 -0.333008 4 -1c4.66699 -1.33301 8.16699 -3.83301 10.5 -7.5s2.83301 -7.83398 1.5 -12.501c-6.66699 -24 -15.834 -46.667 -27.501 -68s-25.834 -40 -42.501 -56s-35.667 -28.667 -57 -38s-45.333 -14 -72 -14zM94.999 16.0029
c-4.66699 0 -8.66699 1.66699 -12 5s-4.66602 7.33301 -3.99902 12c0.666992 18 2.16699 35.333 4.5 52s7 32.167 14 46.5s16.833 26.833 29.5 37.5s29 18.667 49 24v171h-117c-10.667 0 -16 5.33301 -16 16c0 11.333 5.33301 17 16 17h133c4.66699 0 8.66699 -1.5 12 -4.5
s5 -7.16699 5 -12.5v-201c0 -8 -4.66699 -13.333 -14 -16c-18 -3.33301 -32.333 -9 -43 -17s-19 -17.833 -25 -29.5s-9.83301 -24.667 -11.5 -39s-2.83398 -29.5 -3.50098 -45.5c-1.33301 -10.667 -7 -16 -17 -16zM462.999 91.0029c-14.667 0 -29.668 3.83301 -45.001 11.5
s-29 15.5 -41 23.5c-6.66699 3.33301 -14.334 6.66602 -23.001 9.99902s-17.167 6.33301 -25.5 9s-16.166 5 -23.499 7s-13 3.33301 -17 4c-8.66699 2 -13 7.66699 -13 17v53c0 10.667 5.33301 16 16 16c4.66699 0 8.66699 -1.5 12 -4.5s5 -6.83301 5 -11.5v-41
c11.333 -3.33301 25 -7.66602 41 -12.999s30 -11 42 -17c5.33301 -2 10 -4.16699 14 -6.5l11 -6.5c9.33301 -5.33301 17.5 -9.66602 24.5 -12.999s14.5 -5 22.5 -5c12.667 0 23.334 2.83301 32.001 8.5s15.667 12.167 21 19.5c6 8 11 17.333 15 28c2 8 7.33301 12 16 12
c2 0 3.33301 -0.333008 4 -1c4.66699 -1.33301 8.16699 -3.83301 10.5 -7.5s2.83301 -7.83398 1.5 -12.501c-0.666992 -0.666992 -2.5 -5 -5.5 -13s-8.16699 -17 -15.5 -27c-20.667 -26.667 -47 -40 -79 -40zM463.998 274.003l-173.998 -0.000976562
c-10.667 0 -16 5.66699 -16 17v175c0 36.667 10.333 67.334 31 92.001s50 37 88 37c30 0 56.5 -8.33301 79.5 -25s38.5 -39.667 46.5 -69c1.33301 -4.66699 0.833008 -8.83398 -1.5 -12.501s-5.83301 -6.16699 -10.5 -7.5c-0.666992 -0.666992 -2 -1 -4 -1
c-8.66699 0 -14 4 -16 12c-6.66699 26 -19.334 44.167 -38.001 54.5s-37.334 15.5 -56.001 15.5c-28.667 0 -50.167 -9.16699 -64.5 -27.5s-21.5 -41.166 -21.5 -68.499v-159h157c10.667 0 16 -5.33301 16 -16c0 -11.333 -5.33301 -17 -16 -17zM120 276.002h-59
c-10.667 0 -16 5.33301 -16 16c0 4.66699 1.5 8.66699 4.5 12s6.83301 5 11.5 5h59c4.66699 0 8.66699 -1.66699 12 -5s5 -7.33301 5 -12s-1.66699 -8.5 -5 -11.5s-7.33301 -4.5 -12 -4.5zM405 364.002h-48c-4.66699 0 -8.66699 1.5 -12 4.5s-5 6.83301 -5 11.5
s1.66699 8.66699 5 12s7.33301 5 12 5h48c4.66699 0 8.5 -1.66699 11.5 -5s4.5 -7.33301 4.5 -12c0 -10.667 -5.33301 -16 -16 -16zM190 435.002c-4.66699 0 -8.49316 1.66602 -11.4932 4.99902s-4.5 7.33301 -4.5 12c0.666992 35.333 5.16699 67.833 13.5 97.5
s21.166 55.167 38.499 76.5s39.5 37.833 66.5 49.5s59.5 17.5 97.5 17.5h3c30.667 0 59.667 -4.16699 87 -12.5s51.666 -20.666 72.999 -36.999s38.833 -36.666 52.5 -60.999s22.5 -52.5 26.5 -84.5c1.33301 -10.667 -3.33398 -16.667 -14.001 -18
c-4.66699 -0.666992 -8.83398 0.333008 -12.501 3s-5.83398 6.33398 -6.50098 11.001c-2.66699 27.333 -10 51.5 -22 72.5s-27.333 38.333 -46 52s-39.834 24 -63.501 31s-48.5 10.5 -74.5 10.5h-3c-34 0 -62.333 -5 -85 -15s-41.167 -24.333 -55.5 -43
s-24.833 -40.834 -31.5 -66.501s-10.334 -53.834 -11.001 -84.501c0 -10.667 -5.66699 -16 -17 -16zM460.007 362.001c-7.33301 2 -12.332 5.33301 -14.999 10s-3.33398 9.33398 -2.00098 14.001c3.33301 8.66699 9 13 17 13c1.33301 0 2.33301 -0.166992 3 -0.5
s1.66699 -0.5 3 -0.5c11.333 -4.66699 15.333 -12.334 12 -23.001l-1 -1c-2 -8 -7.66699 -12 -17 -12z" />
    <glyph glyph-name="dieresis" unicode="&#xa8;" horiz-adv-x="465" 
d="M370 749c10.667 0 16 -5.33301 16 -16v-94c0 -4.66699 -1.5 -8.66699 -4.5 -12s-6.83301 -5 -11.5 -5h-94c-4.66699 0 -8.66699 1.66699 -12 5s-5 7.33301 -5 12v94c0 4.66699 1.66699 8.5 5 11.5s7.33301 4.5 12 4.5h94zM353 655v61h-61v-61h61zM189 749
c4.66699 0 8.66699 -1.5 12 -4.5s5 -6.83301 5 -11.5v-94c0 -4.66699 -1.66699 -8.66699 -5 -12s-7.33301 -5 -12 -5h-94c-4.66699 0 -8.5 1.66699 -11.5 5s-4.5 7.33301 -4.5 12v94c0 10.667 5.33301 16 16 16h94zM173 655v61h-61v-61h61z" />
    <glyph glyph-name="logicalnot" unicode="&#xac;" horiz-adv-x="570" 
d="M359 223h-289c-4.66699 0 -8.66699 1.66699 -12 5s-5 7.33301 -5 12v94c0 4.66699 1.66699 8.5 5 11.5s7.33301 4.5 12 4.5h423c10.667 0 16 -5.33301 16 -16v-222c0 -4.66699 -1.5 -8.66699 -4.5 -12s-6.83301 -5 -11.5 -5h-117c-4.66699 0 -8.66699 1.66699 -12 5
s-5 7.33301 -5 12v111zM86 317v-61h290c4 0 7.66699 -1.66699 11 -5s5 -7 5 -11v-112h84v189h-390z" />
    <glyph glyph-name="uni00AD" unicode="&#xad;" horiz-adv-x="250" 
 />
    <glyph glyph-name="degree" unicode="&#xb0;" horiz-adv-x="413" 
d="M79 539c0 17.333 3.33301 33.833 10 49.5s15.834 29.167 27.501 40.5s25.167 20.333 40.5 27s31.666 10 48.999 10s33.833 -3.33301 49.5 -10s29.167 -15.667 40.5 -27s20.333 -24.833 27 -40.5s10 -32.167 10 -49.5s-3.33301 -33.666 -10 -48.999
s-15.667 -28.833 -27 -40.5s-24.833 -20.834 -40.5 -27.501s-32.167 -10 -49.5 -10s-33.666 3.33301 -48.999 10s-28.833 15.834 -40.5 27.501s-20.834 25.167 -27.501 40.5s-10 31.666 -10 48.999zM300 539c0 26 -9.16699 48.167 -27.5 66.5s-40.5 27.5 -66.5 27.5
s-48.167 -9.16699 -66.5 -27.5s-27.5 -40.5 -27.5 -66.5s9.16699 -48.167 27.5 -66.5s40.5 -27.5 66.5 -27.5s48.167 9.16699 66.5 27.5s27.5 40.5 27.5 66.5z" />
    <glyph glyph-name="acute" unicode="&#xb4;" horiz-adv-x="404" 
d="M319 752c8.66699 0 14 -3.66699 16 -11c2.66699 -7.33301 1 -13.333 -5 -18l-159 -133c-2.66699 -2 -6.33398 -3 -11.001 -3h-77c-7.33301 0 -12.666 3 -15.999 9c-2 6.66699 -1 12.667 3 18l123 133c3.33301 3.33301 7.33301 5 12 5h114zM155 620l119 99h-62l-92 -99h35
z" />
    <glyph glyph-name="periodcentered" unicode="&#xb7;" horiz-adv-x="330" 
d="M38 328c0 17.333 3.33301 33.833 10 49.5s15.834 29.167 27.501 40.5s25.167 20.333 40.5 27s31.666 10 48.999 10s33.833 -3.33301 49.5 -10s29.167 -15.667 40.5 -27s20.333 -24.833 27 -40.5s10 -32.167 10 -49.5s-3.33301 -33.666 -10 -48.999
s-15.667 -28.833 -27 -40.5s-24.833 -20.834 -40.5 -27.501s-32.167 -10 -49.5 -10s-33.666 3.33301 -48.999 10s-28.833 15.834 -40.5 27.501s-20.834 25.167 -27.501 40.5s-10 31.666 -10 48.999zM259 328c0 26 -9.16699 48.167 -27.5 66.5s-40.5 27.5 -66.5 27.5
s-48.167 -9.16699 -66.5 -27.5s-27.5 -40.5 -27.5 -66.5s9.16699 -48.167 27.5 -66.5s40.5 -27.5 66.5 -27.5s48.167 9.16699 66.5 27.5s27.5 40.5 27.5 66.5z" />
    <glyph glyph-name="questiondown" unicode="&#xbf;" horiz-adv-x="598" 
d="M229 503c0 10.667 5.66699 16 17 16h93c11.333 0 17 -5.33301 17 -16v-94c0 -4.66699 -1.5 -8.66699 -4.5 -12s-7.16699 -5 -12.5 -5h-93c-5.33301 0 -9.5 1.66699 -12.5 5s-4.5 7.33301 -4.5 12v94zM262 486v-61h61v61h-61zM349 244
c-6 -26.667 -15.1689 -51.168 -27.502 -73.501s-24.666 -41.833 -36.999 -58.5s-23.5 -29.834 -33.5 -39.501s-16 -15.167 -18 -16.5c-10.667 -10.667 -16 -23.667 -16 -39c0 -20.667 8.16699 -38.167 24.5 -52.5s36.166 -21.5 59.499 -21.5c11.333 0 22.333 2 33 6
s20 9.5 28 16.5s14.5 15 19.5 24s7.5 18.5 7.5 28.5c0 4.66699 1.66699 8.5 5 11.5s7.33301 4.5 12 4.5c10.667 0 16 -5.33301 16 -16c0 -15.333 -3.5 -29.666 -10.5 -42.999s-16.333 -24.833 -28 -34.5s-24.667 -17.167 -39 -22.5s-28.833 -8 -43.5 -8
c-16 0 -31.167 2.83301 -45.5 8.5s-26.833 13.334 -37.5 23.001s-19 21 -25 34s-9 26.833 -9 41.5c0 24.667 8.66699 45.667 26 63c0.666992 0 5.5 4.33301 14.5 13s19.333 20.667 31 36s23.334 33.5 35.001 54.5s20.5 43.833 26.5 68.5
c1.33301 4.66699 3.83301 7.83398 7.5 9.50098s7.83398 2.5 12.501 2.5c4.66699 -1.33301 8.16699 -3.83301 10.5 -7.5s2.83301 -7.83398 1.5 -12.501zM129.998 127.999l15.502 16.499c10.333 11 21.5 25 33.5 42s23 35.833 33 56.5s15 41.334 15 62.001
c0 10.667 5.33301 16 16 16c4.66699 0 8.66699 -1.5 12 -4.5s5 -6.83301 5 -11.5c0 -23.333 -5.16699 -46.333 -15.5 -69s-21.833 -43.334 -34.5 -62.001s-24.667 -34.167 -36 -46.5s-18 -19.833 -20 -22.5c-23.333 -27.333 -35 -60.666 -35 -99.999
c0 -24.667 5.33301 -46.167 16 -64.5s24.5 -33.666 41.5 -45.999s36.333 -21.5 58 -27.5s43.5 -9 65.5 -9c25.333 0 49 3.33301 71 10s41.167 16.834 57.5 30.501s29.166 30.5 38.499 50.5s14 43.333 14 70c0 4.66699 1.66699 8.5 5 11.5s7.33301 4.5 12 4.5
c10.667 0 16 -5.33301 16 -16c0 -31.333 -5.5 -59 -16.5 -83s-26.167 -44.333 -45.5 -61s-42 -29.167 -68 -37.5s-54 -12.5 -84 -12.5c-26.667 0 -52.834 3.83301 -78.501 11.5s-48.5 19.167 -68.5 34.5s-36.167 34.166 -48.5 56.499s-18.5 48.166 -18.5 77.499
c0 48 14.333 88.667 43 122zM346 320.998c5.33301 -1.33301 9.00098 -4.33301 11.001 -9s2 -9.33398 0 -14.001v-1c-2 -8 -7.66699 -12 -17 -12c-7.33301 2 -12.333 5.33301 -15 10s-3.33398 9.33398 -2.00098 14.001v1c3.33301 8 9 12 17 12
c1.33301 0 2.33301 -0.166992 3 -0.5s1.66699 -0.5 3 -0.5z" />
    <glyph glyph-name="Aacute" unicode="&#xc1;" horiz-adv-x="684" 
d="M410 752h-77.999c-5.33301 0 -9.33301 2.33301 -12 7c-2 4.66699 -1.33301 9.33398 2 14.001l82 104c3.33301 3.33301 6.66602 5 9.99902 5h115c5.33301 0 9.33301 -3 12 -9c2 -4.66699 0.666992 -9.33398 -4 -14.001l-119 -104c-2 -2 -4.66699 -3 -8 -3zM358.001 778h47
l90 78h-75zM47.001 2c-4.66699 1.33301 -7.83203 4.16699 -9.49902 8.5s-1.83398 8.5 -0.500977 12.5l246 662c3.33301 6.66699 8.66602 10 15.999 10h14c8.66699 0 14 -3.66699 16 -11l119 -363c1.33301 -4 1 -8 -1 -12s-5.33301 -6.66699 -10 -8
c-0.666992 -0.666992 -2.33398 -1 -5.00098 -1c-7.33301 0 -12.666 3.66699 -15.999 11l-111 338l-237 -637c-3.33301 -7.33301 -8.66602 -11 -15.999 -11zM392.003 619.001c-1.33301 4 -1.16699 8 0.5 12s4.83398 6.66699 9.50098 8c1.33301 0.666992 3 1 5 1
c8.66699 0 14 -3.66699 16 -11l101 -307c1.33301 -4.66699 1 -9 -1 -13s-5.33301 -6.66699 -10 -8c-10.667 -0.666992 -17.334 3 -20.001 11zM309.002 496.001c4.66699 -1.33301 7.99902 -4 9.99902 -8s2.33301 -8.33301 1 -13l-140 -410c-2 -7.33301 -7.33301 -11 -16 -11
c-13.333 4 -18.333 11.333 -15 22l140 410c2 7.33301 7 11 15 11c2.66699 0 4.33398 -0.333008 5.00098 -1zM283.001 246.001c0 4.66699 1.66895 8.66699 5.00195 12s7.33301 5 12 5h234c6.66699 0 11.667 -3.33301 15 -10l84 -230
c1.33301 -4 1.16602 -8.16699 -0.500977 -12.5s-4.83398 -7.16602 -9.50098 -8.49902c-10.667 -0.666992 -17.667 2.66602 -21 9.99902l-80 218h-222c-4.66699 0 -8.66699 1.5 -12 4.5s-5 6.83301 -5 11.5zM511.003 55.001c-7.33301 0 -12.332 3.66699 -14.999 11l-25 76
h-199c-10.667 0 -16 5.33301 -16 16c0 4.66699 1.5 8.66699 4.5 12s6.83301 5 11.5 5h211c7.33301 0 12.666 -4 15.999 -12l28 -86c1.33301 -4.66699 1 -9 -1 -13s-5.33301 -6.66699 -10 -8zM129.004 24.001c3.33301 8 9.00098 12.001 17.001 12.001
c2.66699 0 4.66699 -0.333008 6 -1c4.66699 -1.33301 8 -4.33301 10 -9s2.33301 -9.33398 1 -14.001c-2 -8.66699 -7.66699 -13 -17 -13c-7.33301 2.66699 -12.333 6.16699 -15 10.5s-3.33398 8.83301 -2.00098 13.5v1z" />
    <glyph glyph-name="Eacute" unicode="&#xc9;" horiz-adv-x="545" 
d="M339 752h-77.999c-5.33301 0 -9.33301 2.33301 -12 7c-2 4.66699 -1.33301 9.33398 2 14.001l82 104c3.33301 3.33301 6.66602 5 9.99902 5h115c5.33301 0 9.33301 -3 12 -9c2 -4.66699 0.666992 -9.33398 -4 -14.001l-119 -104c-2 -2 -4.66699 -3 -8 -3zM287.001 778h47
l90 78h-75zM95.001 -2c-4.66699 0 -8.66699 1.66699 -12 5s-5 7.33301 -5 12v290c0 4.66699 1.66699 8.66699 5 12s7.33301 5 12 5h273c4.66699 0 8.66699 -1.66699 12 -5s5 -7.33301 5 -12s-1.66699 -8.5 -5 -11.5s-7.33301 -4.5 -12 -4.5h-257v-258h347
c10.667 0 16 -5.33301 16 -16c0 -4.66699 -1.5 -8.66699 -4.5 -12s-6.83301 -5 -11.5 -5h-363zM95.001 376c-4.66699 0 -8.66699 1.66699 -12 5s-5 7.33301 -5 12v292c0 4.66699 1.66699 8.66699 5 12s7.33301 5 12 5s8.5 -1.66699 11.5 -5s4.5 -7.33301 4.5 -12v-276h257
c4.66699 0 8.66699 -1.5 12 -4.5s5 -6.83301 5 -11.5s-1.66699 -8.66699 -5 -12s-7.33301 -5 -12 -5h-273zM456.001 612c4.66699 0 8.66699 -1.66699 12 -5s5 -7.33301 5 -12s-1.66699 -8.5 -5 -11.5s-7.33301 -4.5 -12 -4.5h-259v-112c0 -4.66699 -1.66699 -8.66699 -5 -12
s-7.33301 -5 -12 -5s-8.5 1.66699 -11.5 5s-4.5 7.33301 -4.5 12v128c0 4.66699 1.5 8.66699 4.5 12s6.83301 5 11.5 5h276zM177.001 666c-4.66699 0 -8.5 1.66699 -11.5 5s-4.5 7.33301 -4.5 12c0 10.667 5.33301 16 16 16h281c4.66699 0 8.66699 -1.5 12 -4.5
s5 -6.83301 5 -11.5s-1.66699 -8.66699 -5 -12s-7.33301 -5 -12 -5h-281zM180.001 251c4.66699 0 8.66699 -1.5 12 -4.5s5 -7.16699 5 -12.5v-118h200c4.66699 0 8.66699 -1.66699 12 -5s5 -7.33301 5 -12s-1.66699 -8.5 -5 -11.5s-7.33301 -4.5 -12 -4.5h-217
c-10.667 0 -16 5.33301 -16 16v135c0 11.333 5.33301 17 16 17zM459.001 117c4.66699 -1.33301 8.00098 -4.16602 10.001 -8.49902s2.33301 -8.83301 1 -13.5v-1c-3.33301 -8 -9 -12 -17 -12c-7.33301 2 -12.333 5.16699 -15 9.5s-3.33398 9.16602 -2.00098 14.499
c3.33301 8 9 12 17 12c2.66699 0 4.66699 -0.333008 6 -1z" />
    <glyph glyph-name="Iacute" unicode="&#xcd;" horiz-adv-x="275" 
d="M189 752h-77.999c-5.33301 0 -9.33301 2.33301 -12 7c-2 4.66699 -1.33301 9.33398 2 14.001l82 104c3.33301 3.33301 6.66602 5 9.99902 5h115c5.33301 0 9.33301 -3 12 -9c2 -4.66699 0.666992 -9.33398 -4 -14.001l-119 -104c-2 -2 -4.66699 -3 -8 -3zM137.001 778h47
l90 78h-75zM166.001 332h-75c-10.667 0 -16 5.33301 -16 16v335c0 4.66699 1.5 8.66699 4.5 12s6.83301 5 11.5 5s8.66699 -1.66699 12 -5s5 -7.33301 5 -12v-318h74c4.66699 0 8.66699 -1.66699 12 -5s5 -7.33301 5 -12v-275c0 -4.66699 -1.66699 -8.5 -5 -11.5
s-7.33301 -4.5 -12 -4.5c-10.667 0 -16 5.33301 -16 16v259zM76.001 258c0 10.667 5.33301 16 16 16c11.333 0 17 -5.33301 17 -16v-242c0 -10.667 -5.66699 -16 -17 -16c-10.667 -0 -16 5.33301 -16 16v242zM199.001 437c0 -4.66699 -1.66699 -8.5 -5 -11.5
s-7.33301 -4.5 -12 -4.5c-10.667 0 -16 5.33301 -16 16v172c0 4.66699 1.5 8.66699 4.5 12s6.83301 5 11.5 5s8.66699 -1.66699 12 -5s5 -7.33301 5 -12v-172zM176.001 0c-4.66699 1.33301 -8 4.33301 -10 9s-2.33301 9.33398 -1 14.001v1c3.33301 8 9 12 17 12
c1.33301 0 2.33301 -0.166992 3 -0.5s1.66699 -0.5 3 -0.5c5.33301 -1.33301 9 -4.33301 11 -9s2 -9.33398 0 -14.001v-1c-2 -8 -7.66699 -12 -17 -12z" />
    <glyph glyph-name="Ntilde" unicode="&#xd1;" 
d="M158 349c0 4.66699 1.66699 8.66699 5 12s7.33301 5 12 5s8.5 -1.66699 11.5 -5s4.5 -7.33301 4.5 -12v-283c0 -4.66699 -1.5 -8.66699 -4.5 -12s-6.83301 -5 -11.5 -5s-8.66699 1.66699 -12 5s-5 7.33301 -5 12v283zM82 700c4 0 7.33203 -0.333008 9.99902 -1
s5.66699 -2.66699 9 -6l412 -668c2.66699 -4 3.33398 -8.16699 2.00098 -12.5s-4 -7.83301 -8 -10.5c-2 -2 -4.66699 -3 -8 -3c-6 0 -10.667 2.66699 -14 8l-382 619v-610c0 -4.66699 -1.5 -8.66699 -4.5 -12s-6.83301 -5 -11.5 -5c-5.33301 0 -9.5 1.66699 -12.5 5
s-4.5 7.33301 -4.5 12v668c0 8.66699 4 14 12 16zM498.999 700c10.667 0 15.999 -5.33203 15.999 -15.999v-475c0 -8.66699 -4 -14 -12 -16c-8.66699 -0.666992 -14.667 1.66602 -18 6.99902l-269 427c-2 4 -2.5 8.16699 -1.5 12.5s3.5 7.83301 7.5 10.5
c2.66699 1.33301 5.33398 2 8.00098 2c6 0 10.667 -2.66699 14 -8l238 -378v418c0 4.66699 1.66699 8.5 5 11.5s7.33301 4.5 12 4.5zM586.998 646.001c10.667 0 16 -5.33301 16 -16v-614c0 -4.66699 -1.5 -8.66699 -4.5 -12s-6.83301 -5 -11.5 -5s-8.66699 1.66699 -12 5
s-5 7.33301 -5 12v614c0 4.66699 1.66699 8.5 5 11.5s7.33301 4.5 12 4.5zM446.998 836.001c10.667 -4.66699 14.333 -12.002 11 -22.002v-1c-2 -5.33301 -5.66699 -8.66602 -11 -9.99902c-4.66699 -4 -11.167 -8 -19.5 -12s-18.166 -6 -29.499 -6
c-3.33301 0 -6.33301 0.166992 -9 0.5s-5.66699 0.833008 -9 1.5c-4 1.33301 -7.33301 3.83301 -10 7.5s-3.33398 7.83398 -2.00098 12.501c1.33301 8.66699 6.66602 13 15.999 13c1.33301 0 2.33301 -0.333008 3 -1c2 0 4 -0.166992 6 -0.5s3.66699 -0.5 5 -0.5
c7.33301 0 13.333 1.33301 18 4l12 7c2.66699 4.66699 7.33398 7 14.001 7h5zM340.997 783.999l2.99707 -4.49902c2 -3 4.66699 -6.33301 8 -10s7.66602 -7.33398 12.999 -11.001s11.333 -6.5 18 -8.5c2 0 3.83301 -0.166992 5.5 -0.5s3.5 -0.5 5.5 -0.5
c10.667 0 18.834 2.33301 24.501 7s8.83398 7.33398 9.50098 8.00098c3.33301 3.33301 7.33301 5 12 5s8.33398 -1.33301 11.001 -4c8.66699 -7.33301 9.33398 -15 2.00098 -23l-4.5 -4.5c-3 -3 -7 -6 -12 -9s-11 -5.83301 -18 -8.5s-15.167 -4 -24.5 -4
c-3.33301 0 -6.33301 0.166992 -9 0.5s-5.66699 0.833008 -9 1.5c-11.333 2.66699 -21 6.83398 -29 12.501s-14.667 11.334 -20 17.001s-9.33301 10.834 -12 15.501s-4 7.33398 -4 8.00098c-2.66699 5.33301 -6 10.333 -10 15c-3.33301 4 -7.5 7.83301 -12.5 11.5
s-11.167 6.16699 -18.5 7.5c-2.66699 0.666992 -6.33398 1 -11.001 1c-8.66699 0 -15.834 -1.83301 -21.501 -5.5l-11.5 -7.5c-3.33301 -5.33301 -8 -8 -14 -8c-7.33301 1.33301 -12.166 4.16602 -14.499 8.49902s-2.83301 8.83301 -1.5 13.5
c0.666992 2 2.33398 4.33301 5.00098 7c2 2.66699 8 7.5 18 14.5s23.333 10.5 40 10.5h9c2.66699 0 5.66699 -0.666992 9 -2c11.333 -2.66699 21 -6.83398 29 -12.501s14.5 -11.334 19.5 -17.001s8.83301 -10.834 11.5 -15.501s4 -7.33398 4 -8.00098zM603.994 680
l0.000976562 -1c-3.33301 -8 -9 -12 -17 -12c-7.33301 2 -12.333 5.33301 -15 10s-3.33398 9.33398 -2.00098 14.001v1c3.33301 8 9 12 17 12c1.33301 0 2.33301 -0.166992 3 -0.5s1.66699 -0.5 3 -0.5c4.66699 -1.33301 8 -4.33301 10 -9s2.33301 -9.33398 1 -14.001z
M228.995 731c-3.33301 -6 -8.33691 -8.99902 -15.0039 -8.99902c-7.33301 2 -12.166 5.16699 -14.499 9.5s-2.83301 8.83301 -1.5 13.5c0.666992 4 3.66699 7.33301 9 10c4 4 10.5 8.33301 19.5 13s19.833 7 32.5 7h9c2.66699 0 5.66699 -0.333008 9 -1
c4.66699 -1.33301 8.33398 -3.83301 11.001 -7.5s3.33398 -7.83398 2.00098 -12.501c-2 -8.66699 -8.66699 -13 -20 -13c-2.66699 0.666992 -6 1 -10 1c-7.33301 0 -13.666 -1.33301 -18.999 -4s-9.33301 -5 -12 -7z" />
    <glyph glyph-name="Oacute" unicode="&#xd3;" horiz-adv-x="715" 
d="M399 752h-77.999c-5.33301 0 -9.33301 2.33301 -12 7c-2 4.66699 -1.33301 9.33398 2 14.001l82 104c3.33301 3.33301 6.66602 5 9.99902 5h115c5.33301 0 9.33301 -3 12 -9c2 -4.66699 0.666992 -9.33398 -4 -14.001l-119 -104c-2 -2 -4.66699 -3 -8 -3zM347.001 778h47
l90 78h-75zM34.001 354c0 32 4.16992 63.6602 12.5029 94.9932s20.333 60.833 36 88.5s34.834 52.834 57.501 75.501s48.334 41.334 77.001 56.001c1.33301 1.33301 4 2 8 2c6 0 10.667 -2.66699 14 -8c2.66699 -4.66699 3.16699 -9.16699 1.5 -13.5s-4.5 -7.5 -8.5 -9.5
c-26 -14 -49.333 -31.167 -70 -51.5s-38 -43 -52 -68s-24.667 -51.667 -32 -80s-11 -57.166 -11 -86.499c0 -40.667 7.16699 -80.167 21.5 -118.5s34.333 -72.166 60 -101.499s56.334 -52.833 92.001 -70.5s74.834 -26.5 117.501 -26.5s81.667 8.83301 117 26.5
s65.833 41.334 91.5 71.001s45.667 63.5 60 101.5s21.5 77.333 21.5 118c0 39.333 -6.66699 77.5 -20 114.5s-32 70 -56 99s-52.833 52.833 -86.5 71.5s-70.834 29.334 -111.501 32.001v-71c0 -10.667 -5.33301 -16 -16 -16c-30.667 0 -58.667 -6.33301 -84 -19
s-46.833 -29.667 -64.5 -51s-31.334 -45.666 -41.001 -72.999s-14.5 -55.666 -14.5 -84.999c0 -28.667 4.83301 -56.667 14.5 -84s23.5 -51.666 41.5 -72.999s39.5 -38.333 64.5 -51s52.833 -19 83.5 -19s58.667 6.33301 84 19s47 29.5 65 50.5s31.833 45.167 41.5 72.5
s14.5 55.666 14.5 84.999c0 48 -11.5 91 -34.5 129s-54.167 65.667 -93.5 83c-4 1.33301 -6.83301 4.16602 -8.5 8.49902s-1.5 8.5 0.5 12.5c2 6.66699 7 10 15 10c2.66699 0 4.66699 -0.333008 6 -1c22.667 -10 43 -23.167 61 -39.5s33.5 -35 46.5 -56s23 -43.833 30 -68.5
s10.5 -50.667 10.5 -78c0 -34 -5.83301 -66.667 -17.5 -98s-27.834 -59 -48.501 -83s-45.667 -43.167 -75 -57.5s-61.666 -21.5 -96.999 -21.5s-67.5 7.33301 -96.5 22s-54 34 -75 58s-37.167 51.667 -48.5 83s-17 63.666 -17 96.999c0 32 5.16699 63.167 15.5 93.5
s25.166 57.333 44.499 81s42.5 43.334 69.5 59.001s57.167 24.5 90.5 26.5v72c0 10.667 5.66699 16 17 16c47.333 0 90.666 -9.83301 129.999 -29.5s73.333 -45.667 102 -78s51 -69.5 67 -111.5s24 -85.667 24 -131s-8 -89.166 -24 -131.499s-38.333 -79.666 -67 -111.999
s-62.834 -58.166 -102.501 -77.499s-82.834 -29 -129.501 -29c-47.333 0 -90.833 9.66699 -130.5 29s-73.834 45.166 -102.501 77.499s-51 69.666 -67 111.999s-24 86.166 -24 131.499zM260.004 681.993c2 8 7.66699 12.001 17 12.001c2.66699 0 4.66699 -0.333008 6 -1
c4.66699 -1.33301 8 -4.33301 10 -9s2.33301 -9.33398 1 -14.001c-3.33301 -8.66699 -9 -13 -17 -13c-8 2.66699 -13.333 6.16699 -16 10.5s-3 8.83301 -1 13.5v1z" />
    <glyph glyph-name="multiply" unicode="&#xd7;" horiz-adv-x="606" 
d="M526 472c0 -4.66699 -1.66699 -8.66699 -5 -12l-129 -129l129 -129c7.33301 -8 7.33301 -15.667 0 -23l-67 -67c-3.33301 -3.33301 -7 -5 -11 -5c-4.66699 0 -8.66699 1.66699 -12 5l-129 129l-129 -129c-3.33301 -3.33301 -7.33301 -5 -12 -5
c-4 0 -7.66699 1.66699 -11 5l-67 67c-7.33301 7.33301 -7.33301 15 0 23l129 129l-129 129c-3.33301 3.33301 -5 7.33301 -5 12c0 4 1.66699 7.66699 5 11l67 67c3.33301 3.33301 7 5 11 5c4.66699 0 8.66699 -1.66699 12 -5l129 -129l129 129
c3.33301 3.33301 7.33301 5 12 5c4 0 7.66699 -1.66699 11 -5l67 -67c3.33301 -3.33301 5 -7 5 -11zM357 343l129 129l-43 43l-129 -129c-3.33301 -3.33301 -7.33301 -5 -12 -5s-8.66699 1.66699 -12 5l-129 129l-43 -43l129 -129c3.33301 -3.33301 5 -7.33301 5 -12
s-1.66699 -8.66699 -5 -12l-129 -129l43 -43l129 129c3.33301 3.33301 7.33301 5 12 5s8.66699 -1.66699 12 -5l129 -129l43 43l-129 129c-3.33301 3.33301 -5 7.33301 -5 12s1.66699 8.66699 5 12z" />
    <glyph glyph-name="Uacute" unicode="&#xda;" horiz-adv-x="689" 
d="M369 752h-77.999c-5.33301 0 -9.33301 2.33301 -12 7c-2 4.66699 -1.33301 9.33398 2 14.001l82 104c3.33301 3.33301 6.66602 5 9.99902 5h115c5.33301 0 9.33301 -3 12 -9c2 -4.66699 0.666992 -9.33398 -4 -14.001l-119 -104c-2 -2 -4.66699 -3 -8 -3zM317.001 778h47
l90 78h-75zM148.001 593c0 4.66699 1.50098 8.66602 4.50098 11.999s7.16699 5 12.5 5c4.66699 0 8.5 -1.66699 11.5 -5s4.5 -7.33301 4.5 -12v-257c0 -19.333 2 -38.833 6 -58.5s10 -38.667 18 -57s18.333 -35.166 31 -50.499s27.334 -28.333 44.001 -39
c4 -2.66699 6.66699 -6.16699 8 -10.5s0.666016 -8.5 -2.00098 -12.5c-2.66699 -4.66699 -7.33398 -7 -14.001 -7c-4 0 -7 0.666992 -9 2c-36 22 -64.167 53.833 -84.5 95.5s-30.5 87.5 -30.5 137.5v257zM60.002 337.999l0.000976562 334.998c0 4.66699 1.5 8.66699 4.5 12
s7.16699 5 12.5 5c4.66699 0 8.5 -1.66699 11.5 -5s4.5 -7.33301 4.5 -12v-335c0 -42 6.16699 -81.5 18.5 -118.5s29 -69.667 50 -98s45.833 -51.333 74.5 -69s59.334 -27.834 92.001 -30.501v70c0 4.66699 1.5 8.66699 4.5 12s6.83301 5 11.5 5
c29.333 0 54.333 7.33301 75 22s37.5 33 50.5 55s22.5 46.333 28.5 73s9 52.334 9 77.001v279c0 5.33301 1.66699 9.5 5 12.5s7.33301 4.5 12 4.5c10.667 0 16 -5.66699 16 -17v-279c0 -28 -3.33301 -56.667 -10 -86s-17.334 -56.166 -32.001 -80.499
s-33.334 -45 -56.001 -62s-49.667 -27.167 -81 -30.5v-72c0 -4.66699 -1.66699 -8.66699 -5 -12s-7.33301 -5 -12 -5c-45.333 0 -85.5 10.667 -120.5 32s-64.667 48.833 -89 82.5s-42.833 71.334 -55.5 113.001s-19 82.5 -19 122.5zM416.003 25.9971
c30 11.333 56.168 27.834 78.501 49.501s41 46.334 56 74.001s26.333 57.167 34 88.5s11.5 62 11.5 92v342c0 4.66699 1.5 8.66699 4.5 12s6.83301 5 11.5 5s8.66699 -1.66699 12 -5s5 -7.33301 5 -12v-342c0 -32.667 -4.33301 -66.334 -13 -101.001
s-21.334 -67.334 -38.001 -98.001s-37.5 -58 -62.5 -82s-54.167 -41.667 -87.5 -53c-11.333 -2 -18.333 1 -21 9c-2 4.66699 -2 9 0 13s5 6.66699 9 8zM530.004 688.998c4.66699 -2 8.00098 -5.16797 10.001 -9.50098s2.33301 -8.83301 1 -13.5v-1
c-3.33301 -8 -9 -12 -17 -12c-7.33301 2 -12.333 5.33301 -15 10s-3.33398 9.33398 -2.00098 14.001v1c3.33301 8 9 12 17 12c1.33301 0 2.33301 -0.166992 3 -0.5s1.66699 -0.5 3 -0.5z" />
    <glyph glyph-name="Udieresis" unicode="&#xdc;" horiz-adv-x="728" 
d="M484 752h-94c-10.667 0 -16 5.66699 -16 17v93c0 11.333 5.33301 17 16 17h94c4.66699 0 8.66699 -1.5 12 -4.5s5 -7.16699 5 -12.5v-93c0 -5.33301 -1.66699 -9.5 -5 -12.5s-7.33301 -4.5 -12 -4.5zM407 785h61v61h-61v-61zM304 752h-94c-10.667 0 -16 5.66699 -16 17
v93c0 11.333 5.33301 17 16 17h94c4.66699 0 8.66699 -1.5 12 -4.5s5 -7.16699 5 -12.5v-93c0 -5.33301 -1.66699 -9.5 -5 -12.5s-7.33301 -4.5 -12 -4.5zM227 785h61v61h-61v-61zM148 593c0 4.66699 1.50098 8.66602 4.50098 11.999s7.16699 5 12.5 5
c4.66699 0 8.5 -1.66699 11.5 -5s4.5 -7.33301 4.5 -12v-257c0 -19.333 2 -38.833 6 -58.5s10 -38.667 18 -57s18.333 -35.166 31 -50.499s27.334 -28.333 44.001 -39c4 -2.66699 6.66699 -6.16699 8 -10.5s0.666016 -8.5 -2.00098 -12.5
c-2.66699 -4.66699 -7.33398 -7 -14.001 -7c-4 0 -7 0.666992 -9 2c-36 22 -64.167 53.833 -84.5 95.5s-30.5 87.5 -30.5 137.5v257zM60.001 337.999l0.000976562 334.998c0 4.66699 1.5 8.66699 4.5 12s7.16699 5 12.5 5c4.66699 0 8.5 -1.66699 11.5 -5
s4.5 -7.33301 4.5 -12v-335c0 -42 6.16699 -81.5 18.5 -118.5s29 -69.667 50 -98s45.833 -51.333 74.5 -69s59.334 -27.834 92.001 -30.501v70c0 4.66699 1.5 8.66699 4.5 12s6.83301 5 11.5 5c29.333 0 54.333 7.33301 75 22s37.5 33 50.5 55s22.5 46.333 28.5 73
s9 52.334 9 77.001v279c0 5.33301 1.66699 9.5 5 12.5s7.33301 4.5 12 4.5c10.667 0 16 -5.66699 16 -17v-279c0 -28 -3.33301 -56.667 -10 -86s-17.334 -56.166 -32.001 -80.499s-33.334 -45 -56.001 -62s-49.667 -27.167 -81 -30.5v-72
c0 -4.66699 -1.66699 -8.66699 -5 -12s-7.33301 -5 -12 -5c-45.333 0 -85.5 10.667 -120.5 32s-64.667 48.833 -89 82.5s-42.833 71.334 -55.5 113.001s-19 82.5 -19 122.5zM416.002 25.9971c30 11.333 56.168 27.834 78.501 49.501s41 46.334 56 74.001
s26.333 57.167 34 88.5s11.5 62 11.5 92v342c0 4.66699 1.5 8.66699 4.5 12s6.83301 5 11.5 5s8.66699 -1.66699 12 -5s5 -7.33301 5 -12v-342c0 -32.667 -4.33301 -66.334 -13 -101.001s-21.334 -67.334 -38.001 -98.001s-37.5 -58 -62.5 -82s-54.167 -41.667 -87.5 -53
c-11.333 -2 -18.333 1 -21 9c-2 4.66699 -2 9 0 13s5 6.66699 9 8zM530.003 688.998c4.66699 -2 8.00098 -5.16797 10.001 -9.50098s2.33301 -8.83301 1 -13.5v-1c-3.33301 -8 -9 -12 -17 -12c-7.33301 2 -12.333 5.33301 -15 10s-3.33398 9.33398 -2.00098 14.001v1
c3.33301 8 9 12 17 12c1.33301 0 2.33301 -0.166992 3 -0.5s1.66699 -0.5 3 -0.5z" />
    <glyph glyph-name="aacute" unicode="&#xe1;" horiz-adv-x="684" 
d="M410 752h-77.999c-5.33301 0 -9.33301 2.33301 -12 7c-2 4.66699 -1.33301 9.33398 2 14.001l82 104c3.33301 3.33301 6.66602 5 9.99902 5h115c5.33301 0 9.33301 -3 12 -9c2 -4.66699 0.666992 -9.33398 -4 -14.001l-119 -104c-2 -2 -4.66699 -3 -8 -3zM358.001 778h47
l90 78h-75zM49.001 1c-13.333 4 -18.335 11.333 -15.002 22l246 661c3.33301 7.33301 8.66602 11 15.999 11h14c7.33301 0 12.666 -3.66699 15.999 -11l119 -363c1.33301 -4.66699 1 -9 -1 -13s-5.33301 -6.66699 -10 -8c-1.33301 0 -2.16602 -0.166992 -2.49902 -0.5
s-1.16602 -0.5 -2.49902 -0.5c-7.33301 0 -12.666 4 -15.999 12l-111 338l-237 -638c-3.33301 -6.66699 -8.66602 -10 -15.999 -10zM614.999 1c-7.33301 0 -12.667 3.33301 -16 10l-80 218h-222c-5.33301 0 -9.5 1.66699 -12.5 5s-4.5 7.33301 -4.5 12
c0 10.667 5.66699 16 17 16h234c6.66699 0 11.667 -3 15 -9l84 -230c3.33301 -10.667 0 -17.667 -10 -21zM160.998 54c-13.333 4 -18.335 11.332 -15.002 21.999l139 410c4 7.33301 9.33301 11 16 11c1.33301 0 2.33301 -0.166992 3 -0.5s1.33398 -0.5 2.00098 -0.5
c4.66699 -1.33301 8 -4.16602 10 -8.49902s2.33301 -8.5 1 -12.5l-140 -410c-3.33301 -7.33301 -8.66602 -11 -15.999 -11zM507.996 54.999c-8 0 -12.999 3.66699 -14.999 11l-25 75h-199c-4.66699 0 -8.5 1.66699 -11.5 5s-4.5 7.33301 -4.5 12c0 10.667 5.33301 16 16 16
h211c7.33301 0 12.666 -3.66699 15.999 -11l28 -87c1.33301 -4 1 -8 -1 -12s-5.33301 -6.66699 -10 -8zM504.997 299.999c-7.33301 0 -12.667 3.66699 -16 11l-100 307c-3.33301 10.667 0 17.667 10 21c1.33301 0.666992 3 1 5 1c8 0 13.333 -3.66699 16 -11l101 -307
c1.33301 -4.66699 1 -9 -1 -13s-5.33301 -6.66699 -10 -8zM142.996 -1.00098c-7.33301 2 -12.332 5.16797 -14.999 9.50098s-3.33398 9.16602 -2.00098 14.499c3.33301 8.66699 9 13 17 13c1.33301 0 2.33301 -0.166992 3 -0.5s1.66699 -0.5 3 -0.5
c4.66699 -2 8 -5.16699 10 -9.5s2.33301 -8.83301 1 -13.5v-1c-3.33301 -8 -9 -12 -17 -12z" />
    <glyph glyph-name="eacute" unicode="&#xe9;" horiz-adv-x="545" 
d="M339 752h-77.999c-5.33301 0 -9.33301 2.33301 -12 7c-2 4.66699 -1.33301 9.33398 2 14.001l82 104c3.33301 3.33301 6.66602 5 9.99902 5h115c5.33301 0 9.33301 -3 12 -9c2 -4.66699 0.666992 -9.33398 -4 -14.001l-119 -104c-2 -2 -4.66699 -3 -8 -3zM287.001 778h47
l90 78h-75zM95.001 -2c-4.66699 0 -8.66699 1.66699 -12 5s-5 7.33301 -5 12v290c0 4.66699 1.66699 8.66699 5 12s7.33301 5 12 5h273c4.66699 0 8.66699 -1.66699 12 -5s5 -7.33301 5 -12s-1.66699 -8.5 -5 -11.5s-7.33301 -4.5 -12 -4.5h-257v-258h347
c10.667 0 16 -5.33301 16 -16c0 -4.66699 -1.5 -8.66699 -4.5 -12s-6.83301 -5 -11.5 -5h-363zM95.001 376c-4.66699 0 -8.66699 1.66699 -12 5s-5 7.33301 -5 12v292c0 4.66699 1.66699 8.66699 5 12s7.33301 5 12 5s8.5 -1.66699 11.5 -5s4.5 -7.33301 4.5 -12v-276h257
c4.66699 0 8.66699 -1.5 12 -4.5s5 -6.83301 5 -11.5s-1.66699 -8.66699 -5 -12s-7.33301 -5 -12 -5h-273zM456.001 612c4.66699 0 8.66699 -1.66699 12 -5s5 -7.33301 5 -12s-1.66699 -8.5 -5 -11.5s-7.33301 -4.5 -12 -4.5h-259v-112c0 -4.66699 -1.66699 -8.66699 -5 -12
s-7.33301 -5 -12 -5s-8.5 1.66699 -11.5 5s-4.5 7.33301 -4.5 12v128c0 4.66699 1.5 8.66699 4.5 12s6.83301 5 11.5 5h276zM177.001 666c-4.66699 0 -8.5 1.66699 -11.5 5s-4.5 7.33301 -4.5 12c0 10.667 5.33301 16 16 16h281c4.66699 0 8.66699 -1.5 12 -4.5
s5 -6.83301 5 -11.5s-1.66699 -8.66699 -5 -12s-7.33301 -5 -12 -5h-281zM180.001 251c4.66699 0 8.66699 -1.5 12 -4.5s5 -7.16699 5 -12.5v-118h200c4.66699 0 8.66699 -1.66699 12 -5s5 -7.33301 5 -12s-1.66699 -8.5 -5 -11.5s-7.33301 -4.5 -12 -4.5h-217
c-10.667 0 -16 5.33301 -16 16v135c0 11.333 5.33301 17 16 17zM459.001 117c4.66699 -1.33301 8.00098 -4.16602 10.001 -8.49902s2.33301 -8.83301 1 -13.5v-1c-3.33301 -8 -9 -12 -17 -12c-7.33301 2 -12.333 5.16699 -15 9.5s-3.33398 9.16602 -2.00098 14.499
c3.33301 8 9 12 17 12c2.66699 0 4.66699 -0.333008 6 -1z" />
    <glyph glyph-name="iacute" unicode="&#xed;" horiz-adv-x="275" 
d="M189 752h-77.999c-5.33301 0 -9.33301 2.33301 -12 7c-2 4.66699 -1.33301 9.33398 2 14.001l82 104c3.33301 3.33301 6.66602 5 9.99902 5h115c5.33301 0 9.33301 -3 12 -9c2 -4.66699 0.666992 -9.33398 -4 -14.001l-119 -104c-2 -2 -4.66699 -3 -8 -3zM137.001 778h47
l90 78h-75zM166.001 332h-75c-10.667 0 -16 5.33301 -16 16v335c0 4.66699 1.5 8.66699 4.5 12s6.83301 5 11.5 5s8.66699 -1.66699 12 -5s5 -7.33301 5 -12v-318h74c4.66699 0 8.66699 -1.66699 12 -5s5 -7.33301 5 -12v-275c0 -4.66699 -1.66699 -8.5 -5 -11.5
s-7.33301 -4.5 -12 -4.5c-10.667 0 -16 5.33301 -16 16v259zM76.001 258c0 10.667 5.33301 16 16 16c11.333 0 17 -5.33301 17 -16v-242c0 -10.667 -5.66699 -16 -17 -16c-10.667 -0 -16 5.33301 -16 16v242zM199.001 437c0 -4.66699 -1.66699 -8.5 -5 -11.5
s-7.33301 -4.5 -12 -4.5c-10.667 0 -16 5.33301 -16 16v172c0 4.66699 1.5 8.66699 4.5 12s6.83301 5 11.5 5s8.66699 -1.66699 12 -5s5 -7.33301 5 -12v-172zM176.001 0c-4.66699 1.33301 -8 4.33301 -10 9s-2.33301 9.33398 -1 14.001v1c3.33301 8 9 12 17 12
c1.33301 0 2.33301 -0.166992 3 -0.5s1.66699 -0.5 3 -0.5c5.33301 -1.33301 9 -4.33301 11 -9s2 -9.33398 0 -14.001v-1c-2 -8 -7.66699 -12 -17 -12z" />
    <glyph glyph-name="ntilde" unicode="&#xf1;" 
d="M158 349c0 4.66699 1.66699 8.66699 5 12s7.33301 5 12 5s8.5 -1.66699 11.5 -5s4.5 -7.33301 4.5 -12v-283c0 -4.66699 -1.5 -8.66699 -4.5 -12s-6.83301 -5 -11.5 -5s-8.66699 1.66699 -12 5s-5 7.33301 -5 12v283zM82 700c4 0 7.33203 -0.333008 9.99902 -1
s5.66699 -2.66699 9 -6l412 -668c2.66699 -4 3.33398 -8.16699 2.00098 -12.5s-4 -7.83301 -8 -10.5c-2 -2 -4.66699 -3 -8 -3c-6 0 -10.667 2.66699 -14 8l-382 619v-610c0 -4.66699 -1.5 -8.66699 -4.5 -12s-6.83301 -5 -11.5 -5c-5.33301 0 -9.5 1.66699 -12.5 5
s-4.5 7.33301 -4.5 12v668c0 8.66699 4 14 12 16zM498.999 700c10.667 0 15.999 -5.33203 15.999 -15.999v-475c0 -8.66699 -4 -14 -12 -16c-8.66699 -0.666992 -14.667 1.66602 -18 6.99902l-269 427c-2 4 -2.5 8.16699 -1.5 12.5s3.5 7.83301 7.5 10.5
c2.66699 1.33301 5.33398 2 8.00098 2c6 0 10.667 -2.66699 14 -8l238 -378v418c0 4.66699 1.66699 8.5 5 11.5s7.33301 4.5 12 4.5zM586.998 646.001c10.667 0 16 -5.33301 16 -16v-614c0 -4.66699 -1.5 -8.66699 -4.5 -12s-6.83301 -5 -11.5 -5s-8.66699 1.66699 -12 5
s-5 7.33301 -5 12v614c0 4.66699 1.66699 8.5 5 11.5s7.33301 4.5 12 4.5zM446.998 836.001c10.667 -4.66699 14.333 -12.002 11 -22.002v-1c-2 -5.33301 -5.66699 -8.66602 -11 -9.99902c-4.66699 -4 -11.167 -8 -19.5 -12s-18.166 -6 -29.499 -6
c-3.33301 0 -6.33301 0.166992 -9 0.5s-5.66699 0.833008 -9 1.5c-4 1.33301 -7.33301 3.83301 -10 7.5s-3.33398 7.83398 -2.00098 12.501c1.33301 8.66699 6.66602 13 15.999 13c1.33301 0 2.33301 -0.333008 3 -1c2 0 4 -0.166992 6 -0.5s3.66699 -0.5 5 -0.5
c7.33301 0 13.333 1.33301 18 4l12 7c2.66699 4.66699 7.33398 7 14.001 7h5zM340.997 783.999l2.99707 -4.49902c2 -3 4.66699 -6.33301 8 -10s7.66602 -7.33398 12.999 -11.001s11.333 -6.5 18 -8.5c2 0 3.83301 -0.166992 5.5 -0.5s3.5 -0.5 5.5 -0.5
c10.667 0 18.834 2.33301 24.501 7s8.83398 7.33398 9.50098 8.00098c3.33301 3.33301 7.33301 5 12 5s8.33398 -1.33301 11.001 -4c8.66699 -7.33301 9.33398 -15 2.00098 -23l-4.5 -4.5c-3 -3 -7 -6 -12 -9s-11 -5.83301 -18 -8.5s-15.167 -4 -24.5 -4
c-3.33301 0 -6.33301 0.166992 -9 0.5s-5.66699 0.833008 -9 1.5c-11.333 2.66699 -21 6.83398 -29 12.501s-14.667 11.334 -20 17.001s-9.33301 10.834 -12 15.501s-4 7.33398 -4 8.00098c-2.66699 5.33301 -6 10.333 -10 15c-3.33301 4 -7.5 7.83301 -12.5 11.5
s-11.167 6.16699 -18.5 7.5c-2.66699 0.666992 -6.33398 1 -11.001 1c-8.66699 0 -15.834 -1.83301 -21.501 -5.5l-11.5 -7.5c-3.33301 -5.33301 -8 -8 -14 -8c-7.33301 1.33301 -12.166 4.16602 -14.499 8.49902s-2.83301 8.83301 -1.5 13.5
c0.666992 2 2.33398 4.33301 5.00098 7c2 2.66699 8 7.5 18 14.5s23.333 10.5 40 10.5h9c2.66699 0 5.66699 -0.666992 9 -2c11.333 -2.66699 21 -6.83398 29 -12.501s14.5 -11.334 19.5 -17.001s8.83301 -10.834 11.5 -15.501s4 -7.33398 4 -8.00098zM603.994 680
l0.000976562 -1c-3.33301 -8 -9 -12 -17 -12c-7.33301 2 -12.333 5.33301 -15 10s-3.33398 9.33398 -2.00098 14.001v1c3.33301 8 9 12 17 12c1.33301 0 2.33301 -0.166992 3 -0.5s1.66699 -0.5 3 -0.5c4.66699 -1.33301 8 -4.33301 10 -9s2.33301 -9.33398 1 -14.001z
M228.995 731c-3.33301 -6 -8.33691 -8.99902 -15.0039 -8.99902c-7.33301 2 -12.166 5.16699 -14.499 9.5s-2.83301 8.83301 -1.5 13.5c0.666992 4 3.66699 7.33301 9 10c4 4 10.5 8.33301 19.5 13s19.833 7 32.5 7h9c2.66699 0 5.66699 -0.333008 9 -1
c4.66699 -1.33301 8.33398 -3.83301 11.001 -7.5s3.33398 -7.83398 2.00098 -12.501c-2 -8.66699 -8.66699 -13 -20 -13c-2.66699 0.666992 -6 1 -10 1c-7.33301 0 -13.666 -1.33301 -18.999 -4s-9.33301 -5 -12 -7z" />
    <glyph glyph-name="oacute" unicode="&#xf3;" horiz-adv-x="715" 
d="M399 752h-77.999c-5.33301 0 -9.33301 2.33301 -12 7c-2 4.66699 -1.33301 9.33398 2 14.001l82 104c3.33301 3.33301 6.66602 5 9.99902 5h115c5.33301 0 9.33301 -3 12 -9c2 -4.66699 0.666992 -9.33398 -4 -14.001l-119 -104c-2 -2 -4.66699 -3 -8 -3zM347.001 778h47
l90 78h-75zM34.001 354c0 32 4.16992 63.6602 12.5029 94.9932s20.333 60.833 36 88.5s34.834 52.834 57.501 75.501s48.334 41.334 77.001 56.001c1.33301 1.33301 4 2 8 2c6 0 10.667 -2.66699 14 -8c2.66699 -4.66699 3.16699 -9.16699 1.5 -13.5s-4.5 -7.5 -8.5 -9.5
c-26 -14 -49.333 -31.167 -70 -51.5s-38 -43 -52 -68s-24.667 -51.667 -32 -80s-11 -57.166 -11 -86.499c0 -40.667 7.16699 -80.167 21.5 -118.5s34.333 -72.166 60 -101.499s56.334 -52.833 92.001 -70.5s74.834 -26.5 117.501 -26.5s81.667 8.83301 117 26.5
s65.833 41.334 91.5 71.001s45.667 63.5 60 101.5s21.5 77.333 21.5 118c0 39.333 -6.66699 77.5 -20 114.5s-32 70 -56 99s-52.833 52.833 -86.5 71.5s-70.834 29.334 -111.501 32.001v-71c0 -10.667 -5.33301 -16 -16 -16c-30.667 0 -58.667 -6.33301 -84 -19
s-46.833 -29.667 -64.5 -51s-31.334 -45.666 -41.001 -72.999s-14.5 -55.666 -14.5 -84.999c0 -28.667 4.83301 -56.667 14.5 -84s23.5 -51.666 41.5 -72.999s39.5 -38.333 64.5 -51s52.833 -19 83.5 -19s58.667 6.33301 84 19s47 29.5 65 50.5s31.833 45.167 41.5 72.5
s14.5 55.666 14.5 84.999c0 48 -11.5 91 -34.5 129s-54.167 65.667 -93.5 83c-4 1.33301 -6.83301 4.16602 -8.5 8.49902s-1.5 8.5 0.5 12.5c2 6.66699 7 10 15 10c2.66699 0 4.66699 -0.333008 6 -1c22.667 -10 43 -23.167 61 -39.5s33.5 -35 46.5 -56s23 -43.833 30 -68.5
s10.5 -50.667 10.5 -78c0 -34 -5.83301 -66.667 -17.5 -98s-27.834 -59 -48.501 -83s-45.667 -43.167 -75 -57.5s-61.666 -21.5 -96.999 -21.5s-67.5 7.33301 -96.5 22s-54 34 -75 58s-37.167 51.667 -48.5 83s-17 63.666 -17 96.999c0 32 5.16699 63.167 15.5 93.5
s25.166 57.333 44.499 81s42.5 43.334 69.5 59.001s57.167 24.5 90.5 26.5v72c0 10.667 5.66699 16 17 16c47.333 0 90.666 -9.83301 129.999 -29.5s73.333 -45.667 102 -78s51 -69.5 67 -111.5s24 -85.667 24 -131s-8 -89.166 -24 -131.499s-38.333 -79.666 -67 -111.999
s-62.834 -58.166 -102.501 -77.499s-82.834 -29 -129.501 -29c-47.333 0 -90.833 9.66699 -130.5 29s-73.834 45.166 -102.501 77.499s-51 69.666 -67 111.999s-24 86.166 -24 131.499zM260.004 681.993c2 8 7.66699 12.001 17 12.001c2.66699 0 4.66699 -0.333008 6 -1
c4.66699 -1.33301 8 -4.33301 10 -9s2.33301 -9.33398 1 -14.001c-3.33301 -8.66699 -9 -13 -17 -13c-8 2.66699 -13.333 6.16699 -16 10.5s-3 8.83301 -1 13.5v1z" />
    <glyph glyph-name="odieresis" unicode="&#xf6;" horiz-adv-x="714" 
d="M34 354c0 32 4.16992 63.6602 12.5029 94.9932s20.333 60.833 36 88.5s34.834 52.834 57.501 75.501s48.334 41.334 77.001 56.001c1.33301 1.33301 4 2 8 2c6 0 10.667 -2.66699 14 -8c2.66699 -4.66699 3.16699 -9.16699 1.5 -13.5s-4.5 -7.5 -8.5 -9.5
c-26 -14 -49.333 -31.167 -70 -51.5s-38 -43 -52 -68s-24.667 -51.667 -32 -80s-11 -57.166 -11 -86.499c0 -40.667 7.16699 -80.167 21.5 -118.5s34.333 -72.166 60 -101.499s56.334 -52.833 92.001 -70.5s74.834 -26.5 117.501 -26.5s81.667 8.83301 117 26.5
s65.833 41.334 91.5 71.001s45.667 63.5 60 101.5s21.5 77.333 21.5 118c0 39.333 -6.66699 77.5 -20 114.5s-32 70 -56 99s-52.833 52.833 -86.5 71.5s-70.834 29.334 -111.501 32.001v-71c0 -10.667 -5.33301 -16 -16 -16c-30.667 0 -58.667 -6.33301 -84 -19
s-46.833 -29.667 -64.5 -51s-31.334 -45.666 -41.001 -72.999s-14.5 -55.666 -14.5 -84.999c0 -28.667 4.83301 -56.667 14.5 -84s23.5 -51.666 41.5 -72.999s39.5 -38.333 64.5 -51s52.833 -19 83.5 -19s58.667 6.33301 84 19s47 29.5 65 50.5s31.833 45.167 41.5 72.5
s14.5 55.666 14.5 84.999c0 48 -11.5 91 -34.5 129s-54.167 65.667 -93.5 83c-4 1.33301 -6.83301 4.16602 -8.5 8.49902s-1.5 8.5 0.5 12.5c2 6.66699 7 10 15 10c2.66699 0 4.66699 -0.333008 6 -1c22.667 -10 43 -23.167 61 -39.5s33.5 -35 46.5 -56s23 -43.833 30 -68.5
s10.5 -50.667 10.5 -78c0 -34 -5.83301 -66.667 -17.5 -98s-27.834 -59 -48.501 -83s-45.667 -43.167 -75 -57.5s-61.666 -21.5 -96.999 -21.5s-67.5 7.33301 -96.5 22s-54 34 -75 58s-37.167 51.667 -48.5 83s-17 63.666 -17 96.999c0 32 5.16699 63.167 15.5 93.5
s25.166 57.333 44.499 81s42.5 43.334 69.5 59.001s57.167 24.5 90.5 26.5v72c0 10.667 5.66699 16 17 16c47.333 0 90.666 -9.83301 129.999 -29.5s73.333 -45.667 102 -78s51 -69.5 67 -111.5s24 -85.667 24 -131s-8 -89.166 -24 -131.499s-38.333 -79.666 -67 -111.999
s-62.834 -58.166 -102.501 -77.499s-82.834 -29 -129.501 -29c-47.333 0 -90.833 9.66699 -130.5 29s-73.834 45.166 -102.501 77.499s-51 69.666 -67 111.999s-24 86.166 -24 131.499zM260.003 681.993c2 8 7.66699 12.001 17 12.001c2.66699 0 4.66699 -0.333008 6 -1
c4.66699 -1.33301 8 -4.33301 10 -9s2.33301 -9.33398 1 -14.001c-3.33301 -8.66699 -9 -13 -17 -13c-8 2.66699 -13.333 6.16699 -16 10.5s-3 8.83301 -1 13.5v1zM407.003 784.994h61v61h-61v-61zM227.003 784.994h61v61h-61v-61zM484.003 751.994h-94
c-10.667 0 -16 5.66699 -16 17v93c0 11.333 5.33301 17 16 17h94c4.66699 0 8.66699 -1.5 12 -4.5s5 -7.16699 5 -12.5v-93c0 -5.33301 -1.66699 -9.5 -5 -12.5s-7.33301 -4.5 -12 -4.5zM304.003 751.994h-94c-10.667 0 -16 5.66699 -16 17v93c0 11.333 5.33301 17 16 17h94
c4.66699 0 8.66699 -1.5 12 -4.5s5 -7.16699 5 -12.5v-93c0 -5.33301 -1.66699 -9.5 -5 -12.5s-7.33301 -4.5 -12 -4.5z" />
    <glyph glyph-name="divide" unicode="&#xf7;" horiz-adv-x="533" 
d="M494 262c0 -10.667 -5.33301 -16 -16 -16h-423c-10.667 0 -16 5.33301 -16 16v94c0 10.667 5.33301 16 16 16h423c10.667 0 16 -5.33301 16 -16v-94zM461 279v60h-389v-60h389zM219 559h94c10.667 0 16 -5.33301 16 -16v-94c0 -4.66699 -1.5 -8.66699 -4.5 -12
s-6.83301 -5 -11.5 -5h-94c-4.66699 0 -8.5 1.66699 -11.5 5s-4.5 7.33301 -4.5 12v94c0 10.667 5.33301 16 16 16zM296 465v61h-60v-61h60zM313 186c4.66699 0 8.5 -1.66699 11.5 -5s4.5 -7.33301 4.5 -12v-94c0 -10.667 -5.33301 -16 -16 -16h-94
c-10.667 0 -16 5.33301 -16 16v94c0 4.66699 1.5 8.66699 4.5 12s6.83301 5 11.5 5h94zM296 92v61h-60v-61h60z" />
    <glyph glyph-name="uacute" unicode="&#xfa;" horiz-adv-x="689" 
d="M369 752h-77.999c-5.33301 0 -9.33301 2.33301 -12 7c-2 4.66699 -1.33301 9.33398 2 14.001l82 104c3.33301 3.33301 6.66602 5 9.99902 5h115c5.33301 0 9.33301 -3 12 -9c2 -4.66699 0.666992 -9.33398 -4 -14.001l-119 -104c-2 -2 -4.66699 -3 -8 -3zM317.001 778h47
l90 78h-75zM148.001 593c0 4.66699 1.50098 8.66602 4.50098 11.999s7.16699 5 12.5 5c4.66699 0 8.5 -1.66699 11.5 -5s4.5 -7.33301 4.5 -12v-257c0 -19.333 2 -38.833 6 -58.5s10 -38.667 18 -57s18.333 -35.166 31 -50.499s27.334 -28.333 44.001 -39
c4 -2.66699 6.66699 -6.16699 8 -10.5s0.666016 -8.5 -2.00098 -12.5c-2.66699 -4.66699 -7.33398 -7 -14.001 -7c-4 0 -7 0.666992 -9 2c-36 22 -64.167 53.833 -84.5 95.5s-30.5 87.5 -30.5 137.5v257zM60.002 337.999l0.000976562 334.998c0 4.66699 1.5 8.66699 4.5 12
s7.16699 5 12.5 5c4.66699 0 8.5 -1.66699 11.5 -5s4.5 -7.33301 4.5 -12v-335c0 -42 6.16699 -81.5 18.5 -118.5s29 -69.667 50 -98s45.833 -51.333 74.5 -69s59.334 -27.834 92.001 -30.501v70c0 4.66699 1.5 8.66699 4.5 12s6.83301 5 11.5 5
c29.333 0 54.333 7.33301 75 22s37.5 33 50.5 55s22.5 46.333 28.5 73s9 52.334 9 77.001v279c0 5.33301 1.66699 9.5 5 12.5s7.33301 4.5 12 4.5c10.667 0 16 -5.66699 16 -17v-279c0 -28 -3.33301 -56.667 -10 -86s-17.334 -56.166 -32.001 -80.499
s-33.334 -45 -56.001 -62s-49.667 -27.167 -81 -30.5v-72c0 -4.66699 -1.66699 -8.66699 -5 -12s-7.33301 -5 -12 -5c-45.333 0 -85.5 10.667 -120.5 32s-64.667 48.833 -89 82.5s-42.833 71.334 -55.5 113.001s-19 82.5 -19 122.5zM416.003 25.9971
c30 11.333 56.168 27.834 78.501 49.501s41 46.334 56 74.001s26.333 57.167 34 88.5s11.5 62 11.5 92v342c0 4.66699 1.5 8.66699 4.5 12s6.83301 5 11.5 5s8.66699 -1.66699 12 -5s5 -7.33301 5 -12v-342c0 -32.667 -4.33301 -66.334 -13 -101.001
s-21.334 -67.334 -38.001 -98.001s-37.5 -58 -62.5 -82s-54.167 -41.667 -87.5 -53c-11.333 -2 -18.333 1 -21 9c-2 4.66699 -2 9 0 13s5 6.66699 9 8zM530.004 688.998c4.66699 -2 8.00098 -5.16797 10.001 -9.50098s2.33301 -8.83301 1 -13.5v-1
c-3.33301 -8 -9 -12 -17 -12c-7.33301 2 -12.333 5.33301 -15 10s-3.33398 9.33398 -2.00098 14.001v1c3.33301 8 9 12 17 12c1.33301 0 2.33301 -0.166992 3 -0.5s1.66699 -0.5 3 -0.5z" />
    </font>
</defs>
</svg>
